<svg xmlns="http://www.w3.org/2000/svg" viewBox="0 0 219.58 11.82"><defs><style>.cls-1{fill:#fff;}</style></defs><g id="Layer_2" data-name="Layer 2"><g id="Layer_2-2" data-name="Layer 2"><path class="cls-1" d="M9.09,11.52l-1.26-3H1.67l-1.31,3H0L4.6.9H5L9.45,11.52ZM4.8,1.11l-3,7.08H7.73Z"/><path class="cls-1" d="M17.25.18h.33V11.52h-.33V9.66H17.2a3.4,3.4,0,0,1-1.28,1.55,3.33,3.33,0,0,1-1.82.52,3.39,3.39,0,0,1-1.39-.28,3.24,3.24,0,0,1-1.09-.76,3.44,3.44,0,0,1-.72-1.16,4,4,0,0,1-.25-1.45,4.09,4.09,0,0,1,.25-1.45,3.49,3.49,0,0,1,.72-1.17,3.13,3.13,0,0,1,1.09-.77,3.39,3.39,0,0,1,1.39-.28,3.33,3.33,0,0,1,1.82.52A3.41,3.41,0,0,1,17.2,6.5h.05ZM11,8.08a3.74,3.74,0,0,0,.22,1.3,3.16,3.16,0,0,0,.62,1.07,2.93,2.93,0,0,0,1,.72,3.05,3.05,0,0,0,1.3.27,3,3,0,0,0,1.27-.27,3.08,3.08,0,0,0,1-.72A3.44,3.44,0,0,0,17,9.38a3.7,3.7,0,0,0,0-2.62A3.27,3.27,0,0,0,15.37,5a3.14,3.14,0,0,0-1.27-.27A3.06,3.06,0,0,0,12.8,5a3.09,3.09,0,0,0-1.6,1.82A3.8,3.8,0,0,0,11,8.08Z"/><path class="cls-1" d="M22.62,11.52h-.43l-2.72-6.9h.36l2.57,6.57h0L24.9,4.62h.36Z"/><path class="cls-1" d="M26.88,8a4.06,4.06,0,0,0,.19,1.24,3.12,3.12,0,0,0,.57,1.1,2.76,2.76,0,0,0,1,.79,3,3,0,0,0,1.38.3,3.18,3.18,0,0,0,1.44-.32,3.27,3.27,0,0,0,1.1-.94l.24.21a3.55,3.55,0,0,1-1.19,1,3.65,3.65,0,0,1-1.59.34,3.32,3.32,0,0,1-1.39-.28,3.23,3.23,0,0,1-1.09-.77,3.39,3.39,0,0,1-.7-1.18A4.29,4.29,0,0,1,26.55,8a3.76,3.76,0,0,1,.26-1.44,3.62,3.62,0,0,1,.69-1.14,3.11,3.11,0,0,1,1.05-.75,3.27,3.27,0,0,1,1.29-.26,3,3,0,0,1,2.42,1,3.25,3.25,0,0,1,.59,1.06A3.87,3.87,0,0,1,33,7.71V8Zm5.83-.29a3.45,3.45,0,0,0-.23-1.23,2.78,2.78,0,0,0-.59-1,2.59,2.59,0,0,0-.9-.62,3.13,3.13,0,0,0-1.17-.22A2.59,2.59,0,0,0,28.48,5a2.88,2.88,0,0,0-.9.79,3.37,3.37,0,0,0-.52,1,3.11,3.11,0,0,0-.17.91Z"/><path class="cls-1" d="M36.84,4.88a2.42,2.42,0,0,1,1.42-.47h.27v.29l-.11,0h-.08a2,2,0,0,0-1.13.3,2.4,2.4,0,0,0-.76.76,3.49,3.49,0,0,0-.44,1A4.6,4.6,0,0,0,35.86,8v3.57h-.33V6c0-.16,0-.33,0-.49s0-.32,0-.47,0-.28,0-.38h.33a3.63,3.63,0,0,1,0,.38c0,.15,0,.31,0,.48s0,.35,0,.51,0,.32,0,.44h0A2.73,2.73,0,0,1,36.84,4.88Z"/><path class="cls-1" d="M42.3,11.66a3.89,3.89,0,0,1-.47,0,1.33,1.33,0,0,1-1.15-.46,1.83,1.83,0,0,1-.35-1.15V4.91h-1.5V4.62h1.49v-2h.33v2h2v.29h-2v5.18a1.31,1.31,0,0,0,.34,1,1.36,1.36,0,0,0,.92.31,2.06,2.06,0,0,0,.76-.14l0,.26Z"/><path class="cls-1" d="M44.79,2a.33.33,0,0,1-.24-.1.39.39,0,0,1-.11-.28.35.35,0,0,1,.11-.27.32.32,0,0,1,.48,0,.35.35,0,0,1,.1.27.36.36,0,0,1-.11.28A.32.32,0,0,1,44.79,2Zm-.17,9.5V4.62H45v6.9Z"/><path class="cls-1" d="M51.9,9.72a1.84,1.84,0,0,1-.18.83,1.75,1.75,0,0,1-.49.62,2.15,2.15,0,0,1-.71.4,2.73,2.73,0,0,1-.87.13,3.32,3.32,0,0,1-1.39-.29,2.7,2.7,0,0,1-1-.87l.27-.17a2.49,2.49,0,0,0,2.16,1.05,2.24,2.24,0,0,0,.67-.11A2,2,0,0,0,51,11a1.92,1.92,0,0,0,.45-.53,1.53,1.53,0,0,0,.17-.72A1.26,1.26,0,0,0,51.35,9a1.59,1.59,0,0,0-.55-.48,3.29,3.29,0,0,0-.72-.29L49.33,8c-.25-.08-.48-.15-.7-.24a1.94,1.94,0,0,1-.58-.33,1.5,1.5,0,0,1-.39-.5,1.82,1.82,0,0,1-.14-.75,1.61,1.61,0,0,1,.18-.78,1.69,1.69,0,0,1,.48-.55,2.53,2.53,0,0,1,.68-.33,2.92,2.92,0,0,1,.77-.11,2.43,2.43,0,0,1,2.12,1l-.29.16a2.33,2.33,0,0,0-.78-.67,2.39,2.39,0,0,0-1-.22,2.61,2.61,0,0,0-.6.08,1.63,1.63,0,0,0-.57.25,1.39,1.39,0,0,0-.44.46,1.36,1.36,0,0,0-.17.69,1.65,1.65,0,0,0,.14.72,1.18,1.18,0,0,0,.4.43A2.66,2.66,0,0,0,49,7.6l.8.22c.27.07.53.15.79.24a2.67,2.67,0,0,1,.67.36,1.56,1.56,0,0,1,.47.52A1.67,1.67,0,0,1,51.9,9.72Z"/><path class="cls-1" d="M54,8a4.06,4.06,0,0,0,.19,1.24,3.12,3.12,0,0,0,.57,1.1,2.76,2.76,0,0,0,1,.79,3,3,0,0,0,1.38.3,3.18,3.18,0,0,0,1.44-.32,3.27,3.27,0,0,0,1.1-.94l.24.21a3.55,3.55,0,0,1-1.19,1,3.65,3.65,0,0,1-1.59.34,3.32,3.32,0,0,1-1.39-.28,3.23,3.23,0,0,1-1.09-.77,3.39,3.39,0,0,1-.7-1.18A4.29,4.29,0,0,1,53.64,8a4,4,0,0,1,.25-1.44,3.64,3.64,0,0,1,.7-1.14,3.11,3.11,0,0,1,1-.75,3.51,3.51,0,0,1,2.7,0,3,3,0,0,1,1.6,1.81,3.87,3.87,0,0,1,.19,1.21V8Zm5.83-.29a3.45,3.45,0,0,0-.23-1.23,2.78,2.78,0,0,0-.59-1,2.59,2.59,0,0,0-.9-.62,3.13,3.13,0,0,0-1.17-.22A2.59,2.59,0,0,0,55.57,5a2.88,2.88,0,0,0-.9.79,3.37,3.37,0,0,0-.52,1,3.11,3.11,0,0,0-.17.91Z"/><path class="cls-1" d="M67.86,6.52a2.9,2.9,0,0,1,1-1.56,2.59,2.59,0,0,1,1.63-.55,2.47,2.47,0,0,1,1.17.26,2,2,0,0,1,.75.67,2.88,2.88,0,0,1,.39,1,4.72,4.72,0,0,1,.12,1.06v4.17h-.33V7.38a4.9,4.9,0,0,0-.09-.9,2.77,2.77,0,0,0-.34-.87A2,2,0,0,0,71.53,5a1.8,1.8,0,0,0-1-.27,2.21,2.21,0,0,0-1,.24,2.47,2.47,0,0,0-.82.66,3.47,3.47,0,0,0-.57,1.06,4.46,4.46,0,0,0-.21,1.42v3.45h-.33V7.38a4.84,4.84,0,0,0-.08-.9,2.51,2.51,0,0,0-.31-.87A1.83,1.83,0,0,0,66.56,5a1.75,1.75,0,0,0-1-.27,2.18,2.18,0,0,0-1,.24,2.5,2.5,0,0,0-.83.66,3.43,3.43,0,0,0-.55,1.06A4.46,4.46,0,0,0,63,8.07v3.45h-.33V6c0-.16,0-.33,0-.49s0-.32,0-.47,0-.28,0-.38h.33a3.63,3.63,0,0,1,0,.38c0,.15,0,.31,0,.48s0,.35,0,.51,0,.32,0,.44h0a3.07,3.07,0,0,1,.42-.85A3.1,3.1,0,0,1,64,4.94a2.43,2.43,0,0,1,1.55-.53,2.46,2.46,0,0,1,.94.17,1.78,1.78,0,0,1,.66.44,2.51,2.51,0,0,1,.44.67,3.78,3.78,0,0,1,.24.83Z"/><path class="cls-1" d="M75.64,8a4.39,4.39,0,0,0,.19,1.24,3.49,3.49,0,0,0,.57,1.1,2.89,2.89,0,0,0,1,.79,3,3,0,0,0,1.38.3,3.18,3.18,0,0,0,1.44-.32,3.24,3.24,0,0,0,1.09-.94l.24.21a3.46,3.46,0,0,1-1.19,1,3.57,3.57,0,0,1-1.58.34,3.37,3.37,0,0,1-1.4-.28,3.09,3.09,0,0,1-1.08-.77,3.41,3.41,0,0,1-.71-1.18A4.54,4.54,0,0,1,75.31,8a4,4,0,0,1,.26-1.44,3.47,3.47,0,0,1,.7-1.14,3,3,0,0,1,1-.75,3.32,3.32,0,0,1,1.3-.26A3.26,3.26,0,0,1,80,4.69a3.32,3.32,0,0,1,1,.75,3.07,3.07,0,0,1,.59,1.06,3.88,3.88,0,0,1,.2,1.21V8Zm5.84-.29a3.69,3.69,0,0,0-.23-1.23,3,3,0,0,0-.6-1,2.59,2.59,0,0,0-.9-.62,3.13,3.13,0,0,0-1.17-.22A2.55,2.55,0,0,0,77.25,5a3,3,0,0,0-.91.79,3.63,3.63,0,0,0-.52,1,3.06,3.06,0,0,0-.16.91Z"/><path class="cls-1" d="M85.08,5.58a3.23,3.23,0,0,1,.64-.64,3.2,3.2,0,0,1,.78-.4,3.16,3.16,0,0,1,.87-.13,2.54,2.54,0,0,1,1.2.26,2,2,0,0,1,.77.67,2.7,2.7,0,0,1,.4,1,4.72,4.72,0,0,1,.12,1.06v4.17h-.33V7.38a4.9,4.9,0,0,0-.09-.9,2.54,2.54,0,0,0-.33-.87A2.08,2.08,0,0,0,88.44,5a2,2,0,0,0-1.07-.27,2.46,2.46,0,0,0-1.07.24,2.64,2.64,0,0,0-.87.66,3.49,3.49,0,0,0-.58,1.06,4.19,4.19,0,0,0-.22,1.42v3.45H84.3V6.36c0-.11,0-.24,0-.4s0-.33,0-.49,0-.32,0-.47,0-.28,0-.38h.33c0,.1,0,.22,0,.38s0,.31,0,.48,0,.35,0,.51v.44h0A2.86,2.86,0,0,1,85.08,5.58Z"/><path class="cls-1" d="M95.07,11.66a3.89,3.89,0,0,1-.47,0,1.33,1.33,0,0,1-1.15-.46,1.83,1.83,0,0,1-.35-1.15V4.91H91.6V4.62h1.49v-2h.33v2h2v.29h-2v5.18a1.31,1.31,0,0,0,.34,1,1.36,1.36,0,0,0,.92.31,2.06,2.06,0,0,0,.76-.14l0,.26Z"/><path class="cls-1" d="M103.83.35l-.3-.06-.32,0a1.36,1.36,0,0,0-.69.17,1.3,1.3,0,0,0-.45.42,1.78,1.78,0,0,0-.25.6,3,3,0,0,0-.08.67V4.62h1.88v.29h-1.88v6.61h-.31V4.91H100V4.62h1.44V2.15a3.13,3.13,0,0,1,.16-1A1.71,1.71,0,0,1,102,.44a1.5,1.5,0,0,1,.58-.34,2,2,0,0,1,.63-.1,2.4,2.4,0,0,1,.69.09Z"/><path class="cls-1" d="M112,8.06a4.18,4.18,0,0,1-.26,1.48A3.41,3.41,0,0,1,111,10.7a3.31,3.31,0,0,1-1.14.76,3.92,3.92,0,0,1-1.47.27,3.78,3.78,0,0,1-1.45-.27,3.31,3.31,0,0,1-1.14-.76A3.25,3.25,0,0,1,105,9.54a4,4,0,0,1-.27-1.48A3.86,3.86,0,0,1,105,6.58a3.21,3.21,0,0,1,.74-1.15,3.43,3.43,0,0,1,1.14-.75,3.78,3.78,0,0,1,1.45-.27,3.92,3.92,0,0,1,1.47.27,3.43,3.43,0,0,1,1.14.75,3.37,3.37,0,0,1,.75,1.15A4.07,4.07,0,0,1,112,8.06Zm-.33,0a3.76,3.76,0,0,0-.23-1.31,3,3,0,0,0-.65-1.07,2.9,2.9,0,0,0-1-.72,3.4,3.4,0,0,0-1.38-.27A3.27,3.27,0,0,0,107,5a3,3,0,0,0-1,.72,3.14,3.14,0,0,0-.65,1.07,3.76,3.76,0,0,0-.23,1.31,3.81,3.81,0,0,0,.23,1.32,3.24,3.24,0,0,0,.65,1.07,3.14,3.14,0,0,0,1,.72,3.27,3.27,0,0,0,1.36.27,3.4,3.4,0,0,0,1.38-.27,3,3,0,0,0,1-.72,3.08,3.08,0,0,0,.65-1.07A3.81,3.81,0,0,0,111.66,8.06Z"/><path class="cls-1" d="M115.8,4.88a2.42,2.42,0,0,1,1.42-.47h.27v.29l-.11,0h-.08a2,2,0,0,0-1.13.3,2.4,2.4,0,0,0-.76.76,3.49,3.49,0,0,0-.44,1A4.6,4.6,0,0,0,114.82,8v3.57h-.33V6c0-.16,0-.33,0-.49s0-.32,0-.47,0-.28,0-.38h.33a3.63,3.63,0,0,1,0,.38c0,.15,0,.31,0,.48s0,.35,0,.51,0,.32,0,.44h0A2.73,2.73,0,0,1,115.8,4.88Z"/><path class="cls-1" d="M127.69,10c0,.26,0,.54,0,.83s0,.54.08.73h-.31a2.78,2.78,0,0,1,0-.37q0-.21,0-.45a3.4,3.4,0,0,1,0-.45c0-.16,0-.28,0-.38h0a2.42,2.42,0,0,1-1,1.4,2.9,2.9,0,0,1-1.58.46,3,3,0,0,1-.83-.12,2.42,2.42,0,0,1-.74-.36,1.74,1.74,0,0,1-.53-.61,1.8,1.8,0,0,1-.21-.89,1.73,1.73,0,0,1,.39-1.18,2.38,2.38,0,0,1,1-.7A4.15,4.15,0,0,1,125,7.54c.44,0,.83-.07,1.19-.07h1.2V6.92a2.12,2.12,0,0,0-.61-1.69,2.36,2.36,0,0,0-1.61-.54,2.87,2.87,0,0,0-1.14.23,3.38,3.38,0,0,0-1,.6l-.18-.26A3.49,3.49,0,0,1,124,4.63a3.42,3.42,0,0,1,1.19-.22A2.68,2.68,0,0,1,127,5a2.41,2.41,0,0,1,.68,1.91Zm-.33-2.21H126.3c-.38,0-.78,0-1.2.07a4.58,4.58,0,0,0-1.16.28,2.22,2.22,0,0,0-.86.6,1.58,1.58,0,0,0-.34,1.05,1.51,1.51,0,0,0,.67,1.32,2.1,2.1,0,0,0,.65.28,2.23,2.23,0,0,0,.66.09,2.61,2.61,0,0,0,1.28-.28,2.41,2.41,0,0,0,.82-.73,2.81,2.81,0,0,0,.42-1,4.82,4.82,0,0,0,.12-1Z"/><path class="cls-1" d="M140.47,11.52l-3.21-5.35h-2.49v5.35h-.33V.9h2.94a8.07,8.07,0,0,1,1.19.1,3.26,3.26,0,0,1,1.07.4,2.3,2.3,0,0,1,.77.81,2.54,2.54,0,0,1,.3,1.31,2.46,2.46,0,0,1-.28,1.25,2.37,2.37,0,0,1-.74.8,2.94,2.94,0,0,1-1,.44,4.57,4.57,0,0,1-1.08.14l3.23,5.37Zm-.09-8a2.21,2.21,0,0,0-.27-1.14,1.89,1.89,0,0,0-.71-.72,2.88,2.88,0,0,0-1-.37,6.56,6.56,0,0,0-1.18-.1h-2.43V5.88h2.6a3.52,3.52,0,0,0,2.24-.62A2.08,2.08,0,0,0,140.38,3.52Z"/><path class="cls-1" d="M147.85,10c0,.26,0,.54,0,.83s.05.54.08.73h-.31a2.78,2.78,0,0,1,0-.37q0-.21,0-.45a3.4,3.4,0,0,1,0-.45c0-.16,0-.28,0-.38h0a2.42,2.42,0,0,1-1,1.4,2.9,2.9,0,0,1-1.58.46,3,3,0,0,1-.83-.12,2.42,2.42,0,0,1-.74-.36,1.74,1.74,0,0,1-.53-.61,1.8,1.8,0,0,1-.21-.89A1.73,1.73,0,0,1,143,8.57a2.38,2.38,0,0,1,.95-.7,4.15,4.15,0,0,1,1.22-.33c.44,0,.83-.07,1.19-.07h1.2V6.92a2.12,2.12,0,0,0-.61-1.69,2.36,2.36,0,0,0-1.61-.54,2.87,2.87,0,0,0-1.14.23,3.38,3.38,0,0,0-1,.6L143,5.26a3.49,3.49,0,0,1,1.09-.63,3.42,3.42,0,0,1,1.19-.22,2.68,2.68,0,0,1,1.87.61,2.41,2.41,0,0,1,.68,1.91Zm-.33-2.21h-1.06c-.38,0-.78,0-1.2.07a4.58,4.58,0,0,0-1.16.28,2.22,2.22,0,0,0-.86.6,1.58,1.58,0,0,0-.34,1.05,1.51,1.51,0,0,0,.67,1.32,2.1,2.1,0,0,0,.65.28,2.23,2.23,0,0,0,.66.09,2.61,2.61,0,0,0,1.28-.28,2.41,2.41,0,0,0,.82-.73,2.81,2.81,0,0,0,.42-1,4.82,4.82,0,0,0,.12-1Z"/><path class="cls-1" d="M156.79.18h.33V11.52h-.33V9.66h0a3.47,3.47,0,0,1-1.28,1.55,3.38,3.38,0,0,1-1.83.52,3.42,3.42,0,0,1-2.48-1,3.58,3.58,0,0,1-.71-1.16,4,4,0,0,1-.26-1.45,4.1,4.1,0,0,1,.26-1.45,3.63,3.63,0,0,1,.71-1.17,3.17,3.17,0,0,1,1.1-.77,3.31,3.31,0,0,1,1.38-.28,3.38,3.38,0,0,1,1.83.52,3.47,3.47,0,0,1,1.28,1.57h0Zm-6.27,7.9a4,4,0,0,0,.22,1.3,3.34,3.34,0,0,0,.62,1.07,2.88,2.88,0,0,0,1,.72,3.17,3.17,0,0,0,2.56,0,3,3,0,0,0,1-.72,3.44,3.44,0,0,0,.66-1.07,3.7,3.7,0,0,0,0-2.62,3.44,3.44,0,0,0-.66-1.07,3.35,3.35,0,0,0-1-.73,3.1,3.1,0,0,0-1.27-.27,3,3,0,0,0-1.29.28,3.21,3.21,0,0,0-1,.74,3.5,3.5,0,0,0-.62,1.08A4.06,4.06,0,0,0,150.52,8.08Z"/><path class="cls-1" d="M160.35,2a.33.33,0,0,1-.24-.1.39.39,0,0,1-.11-.28.35.35,0,0,1,.11-.27.32.32,0,0,1,.48,0,.35.35,0,0,1,.1.27.36.36,0,0,1-.11.28A.32.32,0,0,1,160.35,2Zm-.17,9.5V4.62h.33v6.9Z"/><path class="cls-1" d="M170.19,8.06a4.18,4.18,0,0,1-.26,1.48,3.41,3.41,0,0,1-.75,1.16,3.31,3.31,0,0,1-1.14.76,3.92,3.92,0,0,1-1.47.27,3.78,3.78,0,0,1-1.45-.27A3.31,3.31,0,0,1,164,10.7a3.25,3.25,0,0,1-.74-1.16A4,4,0,0,1,163,8.06a3.86,3.86,0,0,1,.27-1.48A3.21,3.21,0,0,1,164,5.43a3.43,3.43,0,0,1,1.14-.75,3.78,3.78,0,0,1,1.45-.27,3.92,3.92,0,0,1,1.47.27,3.43,3.43,0,0,1,1.14.75,3.37,3.37,0,0,1,.75,1.15A4.07,4.07,0,0,1,170.19,8.06Zm-.33,0a3.76,3.76,0,0,0-.23-1.31A3,3,0,0,0,169,5.68,2.9,2.9,0,0,0,168,5a3.4,3.4,0,0,0-1.38-.27,3.27,3.27,0,0,0-1.36.27,3,3,0,0,0-1,.72,3.14,3.14,0,0,0-.65,1.07,3.76,3.76,0,0,0-.23,1.31,3.81,3.81,0,0,0,.23,1.32,3.24,3.24,0,0,0,.65,1.07,3.14,3.14,0,0,0,1,.72,3.27,3.27,0,0,0,1.36.27,3.4,3.4,0,0,0,1.38-.27,3,3,0,0,0,1-.72,3.08,3.08,0,0,0,.65-1.07A3.81,3.81,0,0,0,169.86,8.06Z"/><path class="cls-1" d="M182.34,9a2.79,2.79,0,0,1-.26,1.21,3,3,0,0,1-.7.9,2.91,2.91,0,0,1-1,.55,3.92,3.92,0,0,1-1.24.19,4.55,4.55,0,0,1-1.8-.35,3.76,3.76,0,0,1-1.36-1l.25-.22a3.58,3.58,0,0,0,1.33.92,4.07,4.07,0,0,0,1.57.31,3.68,3.68,0,0,0,1.11-.17,3,3,0,0,0,.93-.5,2.35,2.35,0,0,0,.64-.79A2.53,2.53,0,0,0,182,9a2,2,0,0,0-.26-1,2.8,2.8,0,0,0-.66-.72,4,4,0,0,0-.92-.5l-1-.37a10.6,10.6,0,0,1-1.21-.44,3.37,3.37,0,0,1-.94-.57,2.15,2.15,0,0,1-.62-.81,2.76,2.76,0,0,1-.22-1.14,2.48,2.48,0,0,1,.27-1.18,2.41,2.41,0,0,1,.71-.87,3.12,3.12,0,0,1,1-.54A4,4,0,0,1,179.41.6,3.85,3.85,0,0,1,181,.91a3,3,0,0,1,1.19.88l-.25.22a2.87,2.87,0,0,0-1.08-.82A3.45,3.45,0,0,0,179.4.9a3.82,3.82,0,0,0-1.06.15,2.94,2.94,0,0,0-.94.46,2.24,2.24,0,0,0-.93,1.87,2.22,2.22,0,0,0,.23,1,2.35,2.35,0,0,0,.6.73,3.7,3.7,0,0,0,.85.49q.47.19,1,.36c.45.15.87.3,1.26.46a4.4,4.4,0,0,1,1,.56,2.27,2.27,0,0,1,.94,2Z"/><path class="cls-1" d="M187.09,11.66a3.73,3.73,0,0,1-.46,0,1.35,1.35,0,0,1-1.16-.46,1.83,1.83,0,0,1-.34-1.15V4.91h-1.5V4.62h1.48v-2h.33v2h2v.29h-2v5.18a1.31,1.31,0,0,0,.35,1,1.34,1.34,0,0,0,.91.31,2.11,2.11,0,0,0,.77-.14l0,.26Z"/><path class="cls-1" d="M194.16,10a8.07,8.07,0,0,0,0,.83c0,.3.05.54.08.73H194a3,3,0,0,1,0-.37c0-.14,0-.29,0-.45s0-.3,0-.45,0-.28,0-.38h0a2.44,2.44,0,0,1-1,1.4,2.87,2.87,0,0,1-1.57.46,3,3,0,0,1-.84-.12,2.42,2.42,0,0,1-.74-.36,1.84,1.84,0,0,1-.53-.61,1.92,1.92,0,0,1-.2-.89,1.78,1.78,0,0,1,.38-1.18,2.45,2.45,0,0,1,1-.7,4.14,4.14,0,0,1,1.23-.33c.43,0,.83-.07,1.19-.07h1.2V6.92a2.12,2.12,0,0,0-.62-1.69,2.33,2.33,0,0,0-1.6-.54,2.91,2.91,0,0,0-1.15.23,3.33,3.33,0,0,0-1,.6l-.18-.26a3.64,3.64,0,0,1,2.28-.85,2.7,2.7,0,0,1,1.87.61,2.44,2.44,0,0,1,.68,1.91Zm-.33-2.21h-1.07c-.38,0-.78,0-1.2.07a4.51,4.51,0,0,0-1.15.28,2.15,2.15,0,0,0-.86.6,1.53,1.53,0,0,0-.34,1.05,1.51,1.51,0,0,0,.19.8,1.42,1.42,0,0,0,.48.52,2,2,0,0,0,.64.28,2.29,2.29,0,0,0,.67.09,2.57,2.57,0,0,0,1.27-.28,2.32,2.32,0,0,0,.82-.73,2.83,2.83,0,0,0,.43-1,4.82,4.82,0,0,0,.12-1Z"/><path class="cls-1" d="M199.18,11.66a3.73,3.73,0,0,1-.46,0,1.35,1.35,0,0,1-1.16-.46,1.83,1.83,0,0,1-.34-1.15V4.91h-1.5V4.62h1.48v-2h.33v2h2v.29h-2v5.18a1.31,1.31,0,0,0,.35,1,1.34,1.34,0,0,0,.91.31,2.11,2.11,0,0,0,.77-.14l0,.26Z"/><path class="cls-1" d="M201.67,2a.33.33,0,0,1-.24-.1.39.39,0,0,1-.1-.28.35.35,0,0,1,.1-.27.32.32,0,0,1,.48,0,.35.35,0,0,1,.11.27.39.39,0,0,1-.11.28A.36.36,0,0,1,201.67,2Zm-.16,9.5V4.62h.33v6.9Z"/><path class="cls-1" d="M211.51,8.06a4.18,4.18,0,0,1-.26,1.48,3.39,3.39,0,0,1-.74,1.16,3.35,3.35,0,0,1-1.15.76,4.08,4.08,0,0,1-2.92,0,3.31,3.31,0,0,1-1.14-.76,3.25,3.25,0,0,1-.74-1.16,4,4,0,0,1-.26-1.48,3.87,3.87,0,0,1,.26-1.48,3.21,3.21,0,0,1,.74-1.15,3.43,3.43,0,0,1,1.14-.75,4.08,4.08,0,0,1,2.92,0,3.47,3.47,0,0,1,1.15.75,3.35,3.35,0,0,1,.74,1.15A4.07,4.07,0,0,1,211.51,8.06Zm-.33,0A3.75,3.75,0,0,0,211,6.75a3,3,0,0,0-.66-1.07,2.9,2.9,0,0,0-1-.72,3.61,3.61,0,0,0-2.74,0,3,3,0,0,0-1,.72,3.14,3.14,0,0,0-.65,1.07,3.75,3.75,0,0,0-.22,1.31,3.81,3.81,0,0,0,.22,1.32,3.24,3.24,0,0,0,.65,1.07,3.14,3.14,0,0,0,1,.72,3.61,3.61,0,0,0,2.74,0,3,3,0,0,0,1-.72A3.1,3.1,0,0,0,211,9.38,3.81,3.81,0,0,0,211.18,8.06Z"/><path class="cls-1" d="M214.8,5.58a3.23,3.23,0,0,1,.64-.64,3.2,3.2,0,0,1,.78-.4,3.16,3.16,0,0,1,.87-.13,2.54,2.54,0,0,1,1.2.26,2,2,0,0,1,.77.67,2.7,2.7,0,0,1,.4,1,4.72,4.72,0,0,1,.12,1.06v4.17h-.33V7.38a4.9,4.9,0,0,0-.09-.9,2.36,2.36,0,0,0-.34-.87,1.94,1.94,0,0,0-1.73-.92,2.43,2.43,0,0,0-1.07.24,2.55,2.55,0,0,0-.87.66,3.51,3.51,0,0,0-.59,1.06,4.46,4.46,0,0,0-.21,1.42v3.45H214V6.36c0-.11,0-.24,0-.4s0-.33,0-.49,0-.32,0-.47,0-.28,0-.38h.33a3.63,3.63,0,0,1,0,.38c0,.15,0,.31,0,.48s0,.35,0,.51,0,.32,0,.44h0A2.86,2.86,0,0,1,214.8,5.58Z"/></g></g></svg>