<svg xmlns="http://www.w3.org/2000/svg" viewBox="0 0 139.92 17.95"><defs><style>.cls-1{fill:#fff;}</style></defs><g id="Layer_2" data-name="Layer 2"><g id="Layer_2-2" data-name="Layer 2"><path class="cls-1" d="M0,17.47v-.62l5.93-7A23.73,23.73,0,0,0,8.06,7.06a4.83,4.83,0,0,0,.8-2.57,4.26,4.26,0,0,0-.29-1.6,3.62,3.62,0,0,0-.81-1.21A3.38,3.38,0,0,0,6.53.91,4.47,4.47,0,0,0,5,.65a4.19,4.19,0,0,0-2.45.73A3.88,3.88,0,0,0,1.06,3.55L.55,3.38A4.26,4.26,0,0,1,2.21,1,4.81,4.81,0,0,1,5,.19,5,5,0,0,1,6.77.5,4,4,0,0,1,9.06,2.7a4,4,0,0,1,.32,1.61,5.11,5.11,0,0,1-.2,1.49,6.37,6.37,0,0,1-.63,1.4,13.91,13.91,0,0,1-1,1.49q-.61.78-1.41,1.71L.53,16.94h9v.53Z"/><path class="cls-1" d="M14.81,17.62a.56.56,0,0,1-.39-.17.63.63,0,0,1-.16-.46.59.59,0,0,1,.16-.43.56.56,0,0,1,.39-.17.53.53,0,0,1,.38.17.6.6,0,0,1,.17.43.6.6,0,0,1-.18.46A.55.55,0,0,1,14.81,17.62Z"/><path class="cls-1" d="M34.92,13.39a4.29,4.29,0,0,1-1.54,3.37,4.56,4.56,0,0,1-1.64.89,6.5,6.5,0,0,1-2,.3,7.3,7.3,0,0,1-2.89-.56,6.17,6.17,0,0,1-2.17-1.53l.4-.36A5.89,5.89,0,0,0,27.23,17a6.56,6.56,0,0,0,2.51.49,5.75,5.75,0,0,0,1.77-.27A4.75,4.75,0,0,0,33,16.4a3.63,3.63,0,0,0,1-1.27,3.84,3.84,0,0,0,.37-1.74A3,3,0,0,0,34,11.74a4,4,0,0,0-1-1.16,6.53,6.53,0,0,0-1.48-.8c-.55-.22-1.11-.41-1.67-.59s-1.34-.46-1.93-.71a5.62,5.62,0,0,1-1.51-.91,3.75,3.75,0,0,1-1-1.29A4.29,4.29,0,0,1,25,4.44a4.06,4.06,0,0,1,1.56-3.28A5.28,5.28,0,0,1,28.24.3a6.59,6.59,0,0,1,2-.3A6.25,6.25,0,0,1,32.7.49,4.87,4.87,0,0,1,34.61,1.9l-.41.36A4.51,4.51,0,0,0,32.48,1,5.48,5.48,0,0,0,30.22.48a6.12,6.12,0,0,0-1.7.24,4.75,4.75,0,0,0-1.5.73,3.92,3.92,0,0,0-1.08,1.24,3.59,3.59,0,0,0-.4,1.75,3.55,3.55,0,0,0,.36,1.67,3.7,3.7,0,0,0,1,1.16,5.32,5.32,0,0,0,1.35.79c.51.21,1,.4,1.55.58.72.24,1.39.48,2,.73a7.32,7.32,0,0,1,1.64.9,3.68,3.68,0,0,1,1.1,1.29A3.81,3.81,0,0,1,34.92,13.39Z"/><path class="cls-1" d="M39.19,17.47V.48H49.1V1H39.72V8.42h8.83V8.9H39.72V17h9.77v.48Z"/><path class="cls-1" d="M69.48,17.47V1.08h-.1L61.87,17.47h-.43L54,1.08h-.07V17.47h-.53V.48h.94L61.68,16.7,69.07.48H70v17Z"/><path class="cls-1" d="M75.09,17.47V.48H85V1H75.62V8.42h8.83V8.9H75.62V17h9.77v.48Z"/><path class="cls-1" d="M98.66,13.39a4.28,4.28,0,0,1-.42,1.93,4.41,4.41,0,0,1-1.11,1.44,4.69,4.69,0,0,1-1.65.89,6.5,6.5,0,0,1-2,.3,7.34,7.34,0,0,1-2.89-.56,6.26,6.26,0,0,1-2.17-1.53l.41-.36A5.78,5.78,0,0,0,91,17a6.56,6.56,0,0,0,2.51.49,5.75,5.75,0,0,0,1.77-.27,4.75,4.75,0,0,0,1.49-.8,3.63,3.63,0,0,0,1-1.27,3.84,3.84,0,0,0,.37-1.74,3.13,3.13,0,0,0-.4-1.65,4.19,4.19,0,0,0-1.06-1.16,6.32,6.32,0,0,0-1.48-.8c-.55-.22-1.1-.41-1.66-.59a20.48,20.48,0,0,1-1.94-.71,5.78,5.78,0,0,1-1.51-.91,3.75,3.75,0,0,1-1-1.29,4.44,4.44,0,0,1-.35-1.84,4.06,4.06,0,0,1,1.56-3.28A5.39,5.39,0,0,1,92,.3,6.59,6.59,0,0,1,94,0a6.17,6.17,0,0,1,2.46.49A4.87,4.87,0,0,1,98.35,1.9l-.41.36A4.55,4.55,0,0,0,96.23,1,5.56,5.56,0,0,0,94,.48a6,6,0,0,0-1.69.24,4.55,4.55,0,0,0-1.5.73,3.69,3.69,0,0,0-1.08,1.24,3.48,3.48,0,0,0-.41,1.75,3.55,3.55,0,0,0,.36,1.67,3.7,3.7,0,0,0,1,1.16A5.21,5.21,0,0,0,92,8.06c.5.21,1,.4,1.54.58.72.24,1.4.48,2,.73a7.32,7.32,0,0,1,1.64.9,3.82,3.82,0,0,1,1.11,1.29A3.93,3.93,0,0,1,98.66,13.39Z"/><path class="cls-1" d="M106.75,1V17.47h-.53V1h-5.78V.48h12.09V1Z"/><path class="cls-1" d="M115.51,17.47V.48h9.91V1H116V8.42h8.83V8.9H116V17h9.77v.48Z"/><path class="cls-1" d="M139.32,17.47,134.18,8.9h-4v8.57h-.53V.48h4.71a11.16,11.16,0,0,1,1.89.17,4.85,4.85,0,0,1,1.72.63,3.72,3.72,0,0,1,1.23,1.29,4.12,4.12,0,0,1,.48,2.11,4,4,0,0,1-.45,2A4,4,0,0,1,138.07,8a4.94,4.94,0,0,1-1.59.7,6.94,6.94,0,0,1-1.72.22l5.16,8.59Zm-.15-12.79a3.55,3.55,0,0,0-.43-1.84,3.22,3.22,0,0,0-1.14-1.15A5,5,0,0,0,136,1.1a10.68,10.68,0,0,0-1.88-.16H130.2V8.45h4.15a5.64,5.64,0,0,0,3.59-1A3.35,3.35,0,0,0,139.17,4.68Z"/></g></g></svg>