<svg xmlns="http://www.w3.org/2000/svg" viewBox="0 0 258.99 15.09"><defs><style>.cls-1{fill:#fff;}</style></defs><g id="Layer_2" data-name="Layer 2"><g id="Layer_2-2" data-name="Layer 2"><path class="cls-1" d="M7.51,11.24a5.7,5.7,0,0,1-2.09.4,5.48,5.48,0,0,1-2.19-.42,5.13,5.13,0,0,1-1.71-1.16A5.18,5.18,0,0,1,.4,8.28,6.12,6.12,0,0,1,0,6,6.12,6.12,0,0,1,.4,3.78,5.18,5.18,0,0,1,1.52,2,5.23,5.23,0,0,1,3.23.84,5.59,5.59,0,0,1,5.42.42,5.51,5.51,0,0,1,7.34.76a4.11,4.11,0,0,1,1.6,1L8.73,2A3.94,3.94,0,0,0,8,1.45,5.49,5.49,0,0,0,7.18,1,6.21,6.21,0,0,0,6.29.79,6.92,6.92,0,0,0,5.42.72a5.15,5.15,0,0,0-2.08.41A4.88,4.88,0,0,0,1.73,2.26,5.19,5.19,0,0,0,.7,4,5.73,5.73,0,0,0,.33,6,5.94,5.94,0,0,0,.69,8.11a5,5,0,0,0,1,1.68,4.86,4.86,0,0,0,1.6,1.14,5.24,5.24,0,0,0,2.1.41,5.37,5.37,0,0,0,2-.38A3.9,3.9,0,0,0,9,9.81l.24.22A4.08,4.08,0,0,1,7.51,11.24Z"/><path class="cls-1" d="M17.75,7.88a3.94,3.94,0,0,1-.27,1.48,3.31,3.31,0,0,1-1.89,1.92,3.83,3.83,0,0,1-1.46.27,3.78,3.78,0,0,1-1.45-.27,3.13,3.13,0,0,1-1.14-.76,3.27,3.27,0,0,1-.75-1.16,4.14,4.14,0,0,1-.26-1.48,4.07,4.07,0,0,1,.26-1.48,3.35,3.35,0,0,1,1.89-1.9,3.78,3.78,0,0,1,1.45-.27,3.83,3.83,0,0,1,1.46.27,3.37,3.37,0,0,1,1.15.75,3.21,3.21,0,0,1,.74,1.15A3.86,3.86,0,0,1,17.75,7.88Zm-.33,0a3.8,3.8,0,0,0-.23-1.31,3.14,3.14,0,0,0-.65-1.07,2.94,2.94,0,0,0-1-.72,3.32,3.32,0,0,0-1.37-.27,3.27,3.27,0,0,0-1.36.27,2.9,2.9,0,0,0-1,.72,3,3,0,0,0-.66,1.07,4,4,0,0,0-.22,1.31,4,4,0,0,0,.22,1.31,3.14,3.14,0,0,0,.66,1.08,3.18,3.18,0,0,0,1,.72,3.27,3.27,0,0,0,1.36.27A3.32,3.32,0,0,0,15.5,11a3.22,3.22,0,0,0,1-.72,3.28,3.28,0,0,0,.65-1.08A3.72,3.72,0,0,0,17.42,7.88Z"/><path class="cls-1" d="M24.86,10.39a2.73,2.73,0,0,1-.64.63,3.2,3.2,0,0,1-.78.4,3.1,3.1,0,0,1-.87.13,2.47,2.47,0,0,1-1.19-.26,2,2,0,0,1-.77-.67,2.8,2.8,0,0,1-.41-.95,4.72,4.72,0,0,1-.12-1.06V4.44h.34V8.58a4.87,4.87,0,0,0,.08.91,2.58,2.58,0,0,0,.34.86,2.16,2.16,0,0,0,.66.65,1.93,1.93,0,0,0,1.07.26A2.5,2.5,0,0,0,23.65,11a2.55,2.55,0,0,0,.87-.67,3.32,3.32,0,0,0,.58-1,4.19,4.19,0,0,0,.22-1.42V4.44h.33V9.6c0,.11,0,.25,0,.4s0,.33,0,.49,0,.32,0,.47,0,.28,0,.38H25.4a3.45,3.45,0,0,1,0-.38c0-.15,0-.31,0-.48s0-.35,0-.51,0-.32,0-.45h0A3.09,3.09,0,0,1,24.86,10.39Z"/><path class="cls-1" d="M30.13,4.7a2.45,2.45,0,0,1,1.43-.47h.27v.29l-.11,0h-.09a2,2,0,0,0-1.12.3,2.3,2.3,0,0,0-.76.76,3.51,3.51,0,0,0-.45,1,5.09,5.09,0,0,0-.14,1.15v3.57h-.33V6.18c0-.11,0-.24,0-.41s0-.32,0-.48,0-.33,0-.48,0-.27,0-.37h.33c0,.1,0,.23,0,.37s0,.32,0,.49,0,.35,0,.51,0,.31,0,.44h0A2.78,2.78,0,0,1,30.13,4.7Z"/><path class="cls-1" d="M37.42,9.54A1.85,1.85,0,0,1,36.76,11a2.09,2.09,0,0,1-.72.39,2.74,2.74,0,0,1-.87.14,3.25,3.25,0,0,1-1.38-.29,2.55,2.55,0,0,1-1-.87l.27-.17a2.51,2.51,0,0,0,2.16,1,2.27,2.27,0,0,0,.67-.1,1.79,1.79,0,0,0,.61-.32,1.5,1.5,0,0,0,.45-.52,1.42,1.42,0,0,0,.17-.72,1.33,1.33,0,0,0-.21-.78,1.69,1.69,0,0,0-.55-.48A3.18,3.18,0,0,0,35.6,8l-.74-.21a4.92,4.92,0,0,1-.71-.23,1.78,1.78,0,0,1-.57-.33,1.28,1.28,0,0,1-.39-.5A1.67,1.67,0,0,1,33,6a1.61,1.61,0,0,1,.18-.78,1.69,1.69,0,0,1,.48-.55,2.45,2.45,0,0,1,.69-.33,2.87,2.87,0,0,1,.77-.11,2.4,2.4,0,0,1,2.11,1L37,5.4a2.33,2.33,0,0,0-.78-.67,2.39,2.39,0,0,0-1.05-.22,2.61,2.61,0,0,0-.6.08,1.76,1.76,0,0,0-.58.25,1.33,1.33,0,0,0-.43.45,1.26,1.26,0,0,0-.17.69,1.56,1.56,0,0,0,.14.73,1.15,1.15,0,0,0,.39.43,2.75,2.75,0,0,0,.62.28l.79.21c.27.08.54.16.79.25a3.1,3.1,0,0,1,.68.35,1.66,1.66,0,0,1,.46.53A1.55,1.55,0,0,1,37.42,9.54Z"/><path class="cls-1" d="M39.49,7.81a4.46,4.46,0,0,0,.19,1.25,3.49,3.49,0,0,0,.57,1.1,2.89,2.89,0,0,0,1,.79,3,3,0,0,0,1.38.3A3.18,3.18,0,0,0,44,10.93,3.24,3.24,0,0,0,45.13,10l.24.21a3.46,3.46,0,0,1-1.19,1,3.57,3.57,0,0,1-1.58.34,3.37,3.37,0,0,1-1.4-.28,3.09,3.09,0,0,1-1.08-.77,3.46,3.46,0,0,1-.71-1.19,4.54,4.54,0,0,1-.25-1.5,3.87,3.87,0,0,1,.26-1.43,3.62,3.62,0,0,1,.7-1.15,3.23,3.23,0,0,1,1-.74,3.32,3.32,0,0,1,1.3-.26,3.41,3.41,0,0,1,1.41.28,3.32,3.32,0,0,1,1,.75,3.07,3.07,0,0,1,.59,1.06,3.88,3.88,0,0,1,.2,1.21v.28Zm5.84-.28A3.69,3.69,0,0,0,45.1,6.3a3,3,0,0,0-.6-1,2.59,2.59,0,0,0-.9-.62,3.13,3.13,0,0,0-1.17-.22,2.55,2.55,0,0,0-1.33.33,3,3,0,0,0-.91.79,3.63,3.63,0,0,0-.52,1,3.06,3.06,0,0,0-.16.91Z"/><path class="cls-1" d="M56.59,9.78c0,.26,0,.54,0,.83s0,.54.08.73H56.4a2.78,2.78,0,0,1,0-.37q0-.21,0-.45a3.55,3.55,0,0,1,0-.46c0-.14,0-.27,0-.37h-.05a2.42,2.42,0,0,1-1,1.4,2.9,2.9,0,0,1-1.58.46,3,3,0,0,1-.83-.12,2.42,2.42,0,0,1-.74-.36,1.74,1.74,0,0,1-.53-.61,1.8,1.8,0,0,1-.21-.89,1.78,1.78,0,0,1,.39-1.19,2.46,2.46,0,0,1,.95-.69,4.49,4.49,0,0,1,1.22-.33,10.46,10.46,0,0,1,1.19-.07h1.2V6.73a2.09,2.09,0,0,0-.61-1.68A2.36,2.36,0,0,0,54,4.51a2.87,2.87,0,0,0-1.14.23,3.38,3.38,0,0,0-1,.6l-.18-.26a3.49,3.49,0,0,1,1.09-.63A3.42,3.42,0,0,1,54,4.23a2.68,2.68,0,0,1,1.87.61,2.41,2.41,0,0,1,.68,1.91Zm-.33-2.21H55.2c-.38,0-.78,0-1.2.07a4.58,4.58,0,0,0-1.16.28,2.22,2.22,0,0,0-.86.6,1.58,1.58,0,0,0-.34,1.05,1.51,1.51,0,0,0,.67,1.32,2.1,2.1,0,0,0,.65.28A2.84,2.84,0,0,0,54.9,11a2.41,2.41,0,0,0,.82-.73,2.81,2.81,0,0,0,.42-1,4.83,4.83,0,0,0,.12-1Z"/><path class="cls-1" d="M63.42,9.54a1.84,1.84,0,0,1-.18.83,1.75,1.75,0,0,1-.49.62,2,2,0,0,1-.71.39,2.74,2.74,0,0,1-.87.14,3.32,3.32,0,0,1-1.39-.29,2.62,2.62,0,0,1-1-.87l.27-.17a2.51,2.51,0,0,0,2.16,1,2.22,2.22,0,0,0,.67-.1,1.83,1.83,0,0,0,.62-.32,1.75,1.75,0,0,0,.45-.52,1.53,1.53,0,0,0,.17-.72,1.26,1.26,0,0,0-.22-.78,1.59,1.59,0,0,0-.55-.48A3.29,3.29,0,0,0,61.6,8l-.75-.21a4.78,4.78,0,0,1-.7-.23,1.94,1.94,0,0,1-.58-.33,1.5,1.5,0,0,1-.39-.5A1.82,1.82,0,0,1,59,6a1.61,1.61,0,0,1,.18-.78,1.69,1.69,0,0,1,.48-.55,2.53,2.53,0,0,1,.68-.33,2.92,2.92,0,0,1,.77-.11,2.42,2.42,0,0,1,2.12,1L63,5.4a2.33,2.33,0,0,0-.78-.67,2.39,2.39,0,0,0-1.05-.22,2.61,2.61,0,0,0-.6.08,1.63,1.63,0,0,0-.57.25A1.27,1.27,0,0,0,59.37,6a1.69,1.69,0,0,0,.14.73,1.27,1.27,0,0,0,.4.43,2.66,2.66,0,0,0,.61.28l.8.21.79.25a3,3,0,0,1,.67.35,1.7,1.7,0,0,1,.47.53A1.67,1.67,0,0,1,63.42,9.54Z"/><path class="cls-1" d="M69.64,9.54A1.85,1.85,0,0,1,69,11a2.09,2.09,0,0,1-.72.39,2.74,2.74,0,0,1-.87.14A3.25,3.25,0,0,1,66,11.23a2.55,2.55,0,0,1-1-.87l.27-.17a2.51,2.51,0,0,0,2.16,1,2.27,2.27,0,0,0,.67-.1,1.79,1.79,0,0,0,.61-.32,1.5,1.5,0,0,0,.45-.52,1.42,1.42,0,0,0,.17-.72,1.33,1.33,0,0,0-.21-.78,1.69,1.69,0,0,0-.55-.48A3.18,3.18,0,0,0,67.82,8l-.74-.21a4.92,4.92,0,0,1-.71-.23,1.78,1.78,0,0,1-.57-.33,1.28,1.28,0,0,1-.39-.5A1.67,1.67,0,0,1,65.26,6a1.61,1.61,0,0,1,.18-.78,1.69,1.69,0,0,1,.48-.55,2.45,2.45,0,0,1,.69-.33,2.87,2.87,0,0,1,.77-.11,2.4,2.4,0,0,1,2.11,1l-.28.17a2.33,2.33,0,0,0-.78-.67,2.39,2.39,0,0,0-1.05-.22,2.61,2.61,0,0,0-.6.08,1.76,1.76,0,0,0-.58.25,1.33,1.33,0,0,0-.43.45,1.27,1.27,0,0,0-.18.69,1.55,1.55,0,0,0,.15.73,1.15,1.15,0,0,0,.39.43,2.75,2.75,0,0,0,.62.28l.79.21c.27.08.54.16.79.25a3.1,3.1,0,0,1,.68.35,1.66,1.66,0,0,1,.46.53A1.55,1.55,0,0,1,69.64,9.54Z"/><path class="cls-1" d="M72.15,1.84a.33.33,0,0,1-.24-.1.39.39,0,0,1-.11-.28.34.34,0,0,1,.11-.27.34.34,0,0,1,.58.27.36.36,0,0,1-.11.28A.32.32,0,0,1,72.15,1.84ZM72,11.34V4.44h.33v6.9Z"/><path class="cls-1" d="M81.37,9.48h0a2.92,2.92,0,0,1-.53.89,3.44,3.44,0,0,1-.73.65,3.7,3.7,0,0,1-.88.4,3.91,3.91,0,0,1-1,.13,3.42,3.42,0,0,1-2.48-1A3.58,3.58,0,0,1,75,9.35a4.17,4.17,0,0,1,0-2.9,3.63,3.63,0,0,1,.71-1.17,3.17,3.17,0,0,1,1.1-.77,3.31,3.31,0,0,1,1.38-.28,3.28,3.28,0,0,1,3.11,2.08h0V4.44h.33V11a6.69,6.69,0,0,1-.17,1.57A3.58,3.58,0,0,1,81,13.84a2.74,2.74,0,0,1-1,.91,3.4,3.4,0,0,1-1.61.34,4.19,4.19,0,0,1-1.74-.34,3.65,3.65,0,0,1-1.31-.95l.23-.23a3.36,3.36,0,0,0,1.3.94,3.92,3.92,0,0,0,1.52.29,3.08,3.08,0,0,0,1.5-.33,2.55,2.55,0,0,0,.94-.87,3.53,3.53,0,0,0,.49-1.23,6.92,6.92,0,0,0,.14-1.45ZM75.1,7.9a3.93,3.93,0,0,0,.22,1.29,3.39,3.39,0,0,0,.62,1.08,2.93,2.93,0,0,0,1,.74,3.17,3.17,0,0,0,2.56,0,3.07,3.07,0,0,0,1-.74,3.56,3.56,0,0,0,.9-2.38,3.62,3.62,0,0,0-.24-1.31,3.44,3.44,0,0,0-.66-1.07,3.19,3.19,0,0,0-1-.73,3,3,0,0,0-1.27-.27,3,3,0,0,0-1.29.28,3.21,3.21,0,0,0-1,.74,3.5,3.5,0,0,0-.62,1.08A4,4,0,0,0,75.1,7.9Z"/><path class="cls-1" d="M85.59,5.4a3.23,3.23,0,0,1,.64-.64,3.2,3.2,0,0,1,.78-.4,2.82,2.82,0,0,1,.87-.13,2.54,2.54,0,0,1,1.2.25,2.12,2.12,0,0,1,.77.68,2.73,2.73,0,0,1,.4.94,4.88,4.88,0,0,1,.12,1.07v4.17H90V7.2A4.9,4.9,0,0,0,90,6.3a2.54,2.54,0,0,0-.33-.87A2.08,2.08,0,0,0,89,4.78a2,2,0,0,0-1.07-.27,2.46,2.46,0,0,0-1.07.24,2.43,2.43,0,0,0-.87.67,3.32,3.32,0,0,0-.58,1,4.19,4.19,0,0,0-.22,1.42v3.45h-.33V6.18c0-.11,0-.24,0-.41s0-.32,0-.48l0-.48c0-.14,0-.27,0-.37h.33c0,.1,0,.23,0,.37s0,.32,0,.49,0,.35,0,.51v.44h0A2.86,2.86,0,0,1,85.59,5.4Z"/><path class="cls-1" d="M98.62,6.34a2.94,2.94,0,0,1,1-1.56,2.62,2.62,0,0,1,1.64-.55,2.4,2.4,0,0,1,1.16.25,2,2,0,0,1,.75.68,2.73,2.73,0,0,1,.4.94,4.88,4.88,0,0,1,.12,1.07v4.17h-.33V7.2a4.2,4.2,0,0,0-.1-.9,2.55,2.55,0,0,0-.34-.87,2,2,0,0,0-.64-.65,1.8,1.8,0,0,0-1-.27,2.18,2.18,0,0,0-1,.24,2.3,2.3,0,0,0-.83.67,3.49,3.49,0,0,0-.56,1,4.46,4.46,0,0,0-.21,1.42v3.45h-.33V7.2a5.88,5.88,0,0,0-.08-.9A2.73,2.73,0,0,0,98,5.43a1.92,1.92,0,0,0-.62-.65,1.8,1.8,0,0,0-1-.27,2.21,2.21,0,0,0-1,.24,2.27,2.27,0,0,0-.82.67,3.28,3.28,0,0,0-.56,1,4.77,4.77,0,0,0-.2,1.42v3.45h-.33V6.18c0-.11,0-.24,0-.41s0-.32,0-.48l0-.48c0-.14,0-.27,0-.37h.33c0,.1,0,.23,0,.37s0,.32,0,.49,0,.35,0,.51v.44h0a3.07,3.07,0,0,1,.42-.85,3.39,3.39,0,0,1,.61-.64,2.94,2.94,0,0,1,.74-.4,2.45,2.45,0,0,1,.81-.13,2.43,2.43,0,0,1,.94.17,1.74,1.74,0,0,1,.67.44,2.48,2.48,0,0,1,.43.67,3.63,3.63,0,0,1,.24.83Z"/><path class="cls-1" d="M106.41,7.81a4.12,4.12,0,0,0,.19,1.25,3.12,3.12,0,0,0,.57,1.1,2.76,2.76,0,0,0,1,.79,3,3,0,0,0,1.38.3,3.18,3.18,0,0,0,1.44-.32,3.27,3.27,0,0,0,1.1-.94l.24.21a3.55,3.55,0,0,1-1.19,1,3.65,3.65,0,0,1-1.59.34,3.32,3.32,0,0,1-1.39-.28A3.23,3.23,0,0,1,107,10.5a3.44,3.44,0,0,1-.7-1.19,4.29,4.29,0,0,1-.25-1.5,3.87,3.87,0,0,1,.25-1.43,3.81,3.81,0,0,1,.7-1.15,3.39,3.39,0,0,1,1-.74,3.27,3.27,0,0,1,1.29-.26,3.41,3.41,0,0,1,1.41.28,3,3,0,0,1,1.6,1.81,3.87,3.87,0,0,1,.19,1.21v.28Zm5.83-.28A3.45,3.45,0,0,0,112,6.3a2.78,2.78,0,0,0-.59-1,2.59,2.59,0,0,0-.9-.62,3.13,3.13,0,0,0-1.17-.22,2.59,2.59,0,0,0-1.34.33,2.88,2.88,0,0,0-.9.79,3.37,3.37,0,0,0-.52,1,3.11,3.11,0,0,0-.17.91Z"/><path class="cls-1" d="M115.84,5.4a3.28,3.28,0,0,1,.65-.64,3.2,3.2,0,0,1,.78-.4,2.82,2.82,0,0,1,.87-.13,2.54,2.54,0,0,1,1.2.25,2.09,2.09,0,0,1,.76.68,2.75,2.75,0,0,1,.41.94,4.88,4.88,0,0,1,.12,1.07v4.17h-.33V7.2a4.9,4.9,0,0,0-.09-.9,2.36,2.36,0,0,0-.34-.87,2,2,0,0,0-.67-.65,1.92,1.92,0,0,0-1.06-.27,2.43,2.43,0,0,0-1.07.24,2.27,2.27,0,0,0-.87.67,3.34,3.34,0,0,0-.59,1,4.45,4.45,0,0,0-.22,1.42v3.45h-.33V5.77c0-.15,0-.32,0-.48s0-.33,0-.48,0-.27,0-.37h.33c0,.1,0,.23,0,.37s0,.32,0,.49,0,.35,0,.51,0,.31,0,.44h0A2.84,2.84,0,0,1,115.84,5.4Z"/><path class="cls-1" d="M125.83,11.47a2.49,2.49,0,0,1-.46,0,1.35,1.35,0,0,1-1.16-.46,1.82,1.82,0,0,1-.34-1.14V4.72h-1.5V4.44h1.48v-2h.33v2h2v.28h-2v5.2a1.31,1.31,0,0,0,.35,1,1.33,1.33,0,0,0,.91.3,2.11,2.11,0,0,0,.77-.13l0,.25A2.1,2.1,0,0,1,125.83,11.47Z"/><path class="cls-1" d="M134.58,11.52a2.57,2.57,0,0,1-1.67-.52,3.45,3.45,0,0,1-1-1.31,6.4,6.4,0,0,1-.5-1.77,13.8,13.8,0,0,1,0-3.78,6.4,6.4,0,0,1,.5-1.77,3.45,3.45,0,0,1,1-1.31,2.57,2.57,0,0,1,1.67-.52,2.54,2.54,0,0,1,1.66.52,3.47,3.47,0,0,1,1,1.31,6.39,6.39,0,0,1,.49,1.77A13.8,13.8,0,0,1,137.88,6a13.8,13.8,0,0,1-.14,1.89,6.39,6.39,0,0,1-.49,1.77,3.47,3.47,0,0,1-1,1.31A2.54,2.54,0,0,1,134.58,11.52Zm0-10.68a2.24,2.24,0,0,0-1.16.28,2.47,2.47,0,0,0-.82.72,3.67,3.67,0,0,0-.53,1,8,8,0,0,0-.3,1.14,9.17,9.17,0,0,0-.13,1.12q0,.54,0,.93c0,.27,0,.58,0,.94a9.25,9.25,0,0,0,.13,1.11,8,8,0,0,0,.3,1.14,3.67,3.67,0,0,0,.53,1,2.47,2.47,0,0,0,.82.72,2.54,2.54,0,0,0,2.32,0,2.47,2.47,0,0,0,.82-.72,3.65,3.65,0,0,0,.52-1,8,8,0,0,0,.3-1.14A9.35,9.35,0,0,0,137.52,7c0-.36,0-.67,0-.94s0-.57,0-.93A9.26,9.26,0,0,0,137.38,4a8,8,0,0,0-.3-1.14,3.65,3.65,0,0,0-.52-1,2.47,2.47,0,0,0-.82-.72A2.24,2.24,0,0,0,134.58.84Z"/><path class="cls-1" d="M145.92,8.11a3.59,3.59,0,0,1-.28,1.48,3.17,3.17,0,0,1-.73,1.07,3.11,3.11,0,0,1-1,.64,3.21,3.21,0,0,1-1.18.22,3.32,3.32,0,0,1-2.88-1.41l.27-.21a3.17,3.17,0,0,0,1.06,1,3.23,3.23,0,0,0,1.55.35,3,3,0,0,0,1.05-.2,2.69,2.69,0,0,0,.93-.58,3,3,0,0,0,.66-1,3.33,3.33,0,0,0,.26-1.36,3.4,3.4,0,0,0-.21-1.2,2.88,2.88,0,0,0-.6-1,2.7,2.7,0,0,0-1-.64,3.36,3.36,0,0,0-1.31-.24,3.2,3.2,0,0,0-1,.16,4.62,4.62,0,0,0-.94.38l.08-4.87h4.85V1H141l-.09,4.13a3.08,3.08,0,0,1,.9-.3,5.64,5.64,0,0,1,.88-.08A3.44,3.44,0,0,1,144,5a3.09,3.09,0,0,1,1,.7,3,3,0,0,1,.65,1.06A3.83,3.83,0,0,1,145.92,8.11Z"/><path class="cls-1" d="M151.83,7.68v-.3h2.7v.3Z"/><path class="cls-1" d="M168.24,11.34V6H161.1v5.34h-.33V.72h.33v5h7.14v-5h.33V11.34Z"/><path class="cls-1" d="M174.37,1V11.34H174V1h-3.61V.72H178V1Z"/><path class="cls-1" d="M189.93,11.34V1.09h-.06l-4.7,10.25h-.27L180.22,1.09h0V11.34h-.33V.72h.58l4.62,10.14L189.67.72h.59V11.34Z"/><path class="cls-1" d="M193.44,11.34V.72h.33V11h5.28v.3Z"/><path class="cls-1" d="M209,9.78a8.07,8.07,0,0,0,0,.83c0,.3,0,.54.08.73h-.32a3,3,0,0,1,0-.37c0-.14,0-.29,0-.45l0-.46c0-.14,0-.27,0-.37h0a2.44,2.44,0,0,1-1,1.4,2.87,2.87,0,0,1-1.57.46,2.92,2.92,0,0,1-.83-.12,2.37,2.37,0,0,1-.75-.36,1.84,1.84,0,0,1-.53-.61,1.92,1.92,0,0,1-.2-.89,1.83,1.83,0,0,1,.38-1.19,2.53,2.53,0,0,1,.95-.69,4.46,4.46,0,0,1,1.23-.33,10.33,10.33,0,0,1,1.19-.07h1.2V6.73A2.1,2.1,0,0,0,208,5.05a2.33,2.33,0,0,0-1.6-.54,3,3,0,0,0-1.15.23,3.47,3.47,0,0,0-.95.6l-.18-.26a3.64,3.64,0,0,1,2.28-.85,2.7,2.7,0,0,1,1.87.61A2.44,2.44,0,0,1,209,6.75Zm-.33-2.21h-1.07c-.38,0-.78,0-1.2.07a4.51,4.51,0,0,0-1.15.28,2.15,2.15,0,0,0-.86.6A1.53,1.53,0,0,0,204,9.57a1.51,1.51,0,0,0,.19.8,1.42,1.42,0,0,0,.48.52,2,2,0,0,0,.64.28,2.75,2.75,0,0,0,.67.09,2.57,2.57,0,0,0,1.27-.28,2.32,2.32,0,0,0,.82-.73,2.65,2.65,0,0,0,.43-1,4.83,4.83,0,0,0,.12-1Z"/><path class="cls-1" d="M212.74,5.4a3.28,3.28,0,0,1,.65-.64,3.2,3.2,0,0,1,.78-.4,2.82,2.82,0,0,1,.87-.13,2.54,2.54,0,0,1,1.2.25,2.09,2.09,0,0,1,.76.68,2.75,2.75,0,0,1,.41.94,4.88,4.88,0,0,1,.12,1.07v4.17h-.33V7.2a4.9,4.9,0,0,0-.09-.9,2.36,2.36,0,0,0-.34-.87,2.08,2.08,0,0,0-.67-.65A1.92,1.92,0,0,0,215,4.51a2.43,2.43,0,0,0-1.07.24,2.27,2.27,0,0,0-.87.67,3.34,3.34,0,0,0-.59,1,4.45,4.45,0,0,0-.22,1.42v3.45H212V5.77c0-.15,0-.32,0-.48s0-.33,0-.48,0-.27,0-.37h.33c0,.1,0,.23,0,.37s0,.32,0,.49,0,.35,0,.51,0,.31,0,.44h0A2.84,2.84,0,0,1,212.74,5.4Z"/><path class="cls-1" d="M226.5,0h.33V11.34h-.33V9.48h-.05A3.33,3.33,0,0,1,225.17,11a3.25,3.25,0,0,1-1.82.53,3.39,3.39,0,0,1-1.39-.28,3.24,3.24,0,0,1-1.09-.76,3.44,3.44,0,0,1-.72-1.16,4,4,0,0,1-.25-1.45,4.05,4.05,0,0,1,.25-1.45,3.49,3.49,0,0,1,.72-1.17A3.13,3.13,0,0,1,222,4.51a3.39,3.39,0,0,1,1.39-.28,3.28,3.28,0,0,1,3.1,2.08h.05Zm-6.27,7.9a3.68,3.68,0,0,0,.22,1.29,3.21,3.21,0,0,0,.62,1.08,3,3,0,0,0,2.28,1,3,3,0,0,0,1.27-.27,3.23,3.23,0,0,0,1-.72,3.56,3.56,0,0,0,.9-2.38,3.62,3.62,0,0,0-.24-1.31,3.44,3.44,0,0,0-.66-1.07,3.26,3.26,0,0,0-1-.73,3,3,0,0,0-1.27-.27,3.06,3.06,0,0,0-1.3.28,3.09,3.09,0,0,0-1.6,1.82A3.76,3.76,0,0,0,220.23,7.9Z"/><path class="cls-1" d="M240.69,11.24a5.62,5.62,0,0,1-2.09.4,5.55,5.55,0,0,1-2.19-.42,5.23,5.23,0,0,1-1.71-1.16,5.34,5.34,0,0,1-1.12-1.78A6.33,6.33,0,0,1,233.19,6a6.33,6.33,0,0,1,.39-2.25A5.34,5.34,0,0,1,234.7,2,5.17,5.17,0,0,1,236.42.84a5.76,5.76,0,0,1,4.11-.08,4.18,4.18,0,0,1,1.6,1l-.21.24a3.94,3.94,0,0,0-.71-.57,5.17,5.17,0,0,0-.85-.42,5.58,5.58,0,0,0-.89-.24,6.64,6.64,0,0,0-.87-.07,5.22,5.22,0,0,0-2.08.41,4.84,4.84,0,0,0-1.6,1.13,5.21,5.21,0,0,0-1,1.69A5.94,5.94,0,0,0,233.52,6a5.94,5.94,0,0,0,.36,2.08,5.12,5.12,0,0,0,1,1.68,4.9,4.9,0,0,0,1.61,1.14,5.2,5.2,0,0,0,2.09.41,5.38,5.38,0,0,0,2-.38,3.9,3.9,0,0,0,1.6-1.15l.24.22A4.05,4.05,0,0,1,240.69,11.24Z"/><path class="cls-1" d="M250.44,8.79a2.66,2.66,0,0,1-.27,1.21,2.78,2.78,0,0,1-.69.9,3,3,0,0,1-1,.55,4,4,0,0,1-1.24.19,4.64,4.64,0,0,1-1.81-.35,3.94,3.94,0,0,1-1.35-1l.25-.22a3.58,3.58,0,0,0,1.33.92,4,4,0,0,0,1.57.31,3.68,3.68,0,0,0,1.11-.17,3,3,0,0,0,.93-.5,2.35,2.35,0,0,0,.64-.79,2.53,2.53,0,0,0,.23-1.09,2,2,0,0,0-.26-1,2.65,2.65,0,0,0-.66-.72,4.26,4.26,0,0,0-.92-.5c-.35-.13-.69-.26-1-.36s-.85-.29-1.21-.45a3.43,3.43,0,0,1-1-.57,2.23,2.23,0,0,1-.61-.81,2.62,2.62,0,0,1-.22-1.15A2.58,2.58,0,0,1,244.5,2a2.55,2.55,0,0,1,.72-.87,3,3,0,0,1,1-.54,3.94,3.94,0,0,1,1.25-.19,3.85,3.85,0,0,1,1.54.31,3.09,3.09,0,0,1,1.19.87l-.25.23A2.87,2.87,0,0,0,248.91,1,3.45,3.45,0,0,0,247.5.72a3.77,3.77,0,0,0-1.06.15,2.84,2.84,0,0,0-.94.46,2.27,2.27,0,0,0-.67.77,2.22,2.22,0,0,0-.26,1.09,2.26,2.26,0,0,0,.23,1.05,2.2,2.2,0,0,0,.6.72,3.22,3.22,0,0,0,.84.5c.32.13.64.25,1,.36s.87.3,1.26.46a4.4,4.4,0,0,1,1,.56,2.51,2.51,0,0,1,.69.8A2.54,2.54,0,0,1,250.44,8.79Z"/><path class="cls-1" d="M259,8.79a2.79,2.79,0,0,1-.26,1.21,3,3,0,0,1-.7.9,2.91,2.91,0,0,1-1,.55,4,4,0,0,1-1.24.19,4.55,4.55,0,0,1-1.8-.35,3.89,3.89,0,0,1-1.36-1l.25-.22a3.58,3.58,0,0,0,1.33.92,4.07,4.07,0,0,0,1.57.31,3.68,3.68,0,0,0,1.11-.17,3,3,0,0,0,.93-.5,2.35,2.35,0,0,0,.64-.79,2.53,2.53,0,0,0,.23-1.09,2,2,0,0,0-.26-1,2.65,2.65,0,0,0-.66-.72,4,4,0,0,0-.92-.5c-.34-.13-.69-.26-1-.36s-.84-.29-1.21-.45a3.58,3.58,0,0,1-.95-.57,2.23,2.23,0,0,1-.61-.81,2.77,2.77,0,0,1-.22-1.15A2.46,2.46,0,0,1,253.06,2a2.41,2.41,0,0,1,.71-.87,3.12,3.12,0,0,1,1-.54,4,4,0,0,1,1.25-.19,3.85,3.85,0,0,1,1.54.31,3.09,3.09,0,0,1,1.19.87l-.25.23A2.87,2.87,0,0,0,257.46,1a3.45,3.45,0,0,0-1.41-.29A3.77,3.77,0,0,0,255,.87a2.94,2.94,0,0,0-.94.46,2.27,2.27,0,0,0-.67.77,2.22,2.22,0,0,0-.26,1.09,2.26,2.26,0,0,0,.23,1.05A2.2,2.2,0,0,0,254,5a3.22,3.22,0,0,0,.84.5c.32.13.64.25,1,.36s.87.3,1.26.46a4.4,4.4,0,0,1,1,.56A2.27,2.27,0,0,1,259,8.79Z"/></g></g></svg>