<svg xmlns="http://www.w3.org/2000/svg" viewBox="0 0 75.51 11.64"><defs><style>.cls-1{fill:#fff;}</style></defs><g id="Layer_2" data-name="Layer 2"><g id="Layer_2-2" data-name="Layer 2"><path class="cls-1" d="M6.39,8.79A2.79,2.79,0,0,1,6.13,10a3,3,0,0,1-.7.9,2.91,2.91,0,0,1-1,.55,3.91,3.91,0,0,1-1.23.19,4.56,4.56,0,0,1-1.81-.35,3.76,3.76,0,0,1-1.36-1l.25-.22A3.66,3.66,0,0,0,1.58,11a4.07,4.07,0,0,0,1.57.31,3.68,3.68,0,0,0,1.11-.17,3,3,0,0,0,.93-.5,2.35,2.35,0,0,0,.64-.79,2.53,2.53,0,0,0,.23-1.09,2,2,0,0,0-.26-1A2.76,2.76,0,0,0,5.15,7a4.11,4.11,0,0,0-.93-.5c-.34-.13-.69-.26-1-.36S2.34,5.88,2,5.72A3.37,3.37,0,0,1,1,5.15a2.25,2.25,0,0,1-.62-.81A2.77,2.77,0,0,1,.19,3.19,2.46,2.46,0,0,1,.46,2a2.41,2.41,0,0,1,.71-.87,3.12,3.12,0,0,1,1-.54A4,4,0,0,1,3.46.42,3.82,3.82,0,0,1,5,.73a3,3,0,0,1,1.19.87l-.25.23A2.92,2.92,0,0,0,4.87,1,3.53,3.53,0,0,0,3.45.72,3.82,3.82,0,0,0,2.39.87a2.79,2.79,0,0,0-.93.46,2.19,2.19,0,0,0-.68.77A2.22,2.22,0,0,0,.52,3.19,2.26,2.26,0,0,0,.75,4.24a2.31,2.31,0,0,0,.6.72,3.12,3.12,0,0,0,.85.5c.31.13.63.25,1,.36s.87.3,1.25.46a4.21,4.21,0,0,1,1,.56,2.29,2.29,0,0,1,.69.8A2.41,2.41,0,0,1,6.39,8.79Z"/><path class="cls-1" d="M13.66,10.39A2.94,2.94,0,0,1,13,11a2.88,2.88,0,0,1-.78.4,3.16,3.16,0,0,1-.87.13,2.54,2.54,0,0,1-1.2-.26,2.09,2.09,0,0,1-.77-.67A2.78,2.78,0,0,1,9,9.67a4.66,4.66,0,0,1-.12-1.06V4.44h.33V8.58a4.92,4.92,0,0,0,.09.91,2.38,2.38,0,0,0,.34.86,2,2,0,0,0,.66.65,1.91,1.91,0,0,0,1.07.26A2.42,2.42,0,0,0,12.44,11a2.27,2.27,0,0,0,.87-.67,3.23,3.23,0,0,0,.59-1,4.46,4.46,0,0,0,.21-1.42V4.44h.33V9.6c0,.11,0,.24,0,.4s0,.33,0,.49,0,.33,0,.47,0,.28,0,.38h-.33a3.79,3.79,0,0,1,0-.38c0-.14,0-.31,0-.48s0-.35,0-.51,0-.31,0-.45h0A3.55,3.55,0,0,1,13.66,10.39Z"/><path class="cls-1" d="M21.46,9.54a1.84,1.84,0,0,1-.18.83,1.76,1.76,0,0,1-.48.63,2.26,2.26,0,0,1-.72.38,2.74,2.74,0,0,1-.87.14,3.25,3.25,0,0,1-1.38-.29,2.55,2.55,0,0,1-1-.87l.27-.18a2.5,2.5,0,0,0,2.16,1.06,2.29,2.29,0,0,0,.67-.11,2,2,0,0,0,.61-.31,1.63,1.63,0,0,0,.45-.53,1.42,1.42,0,0,0,.17-.72,1.33,1.33,0,0,0-.21-.78,1.69,1.69,0,0,0-.55-.48A3.18,3.18,0,0,0,19.64,8l-.74-.2a6.56,6.56,0,0,1-.71-.24,1.78,1.78,0,0,1-.57-.33,1.28,1.28,0,0,1-.39-.5A1.67,1.67,0,0,1,17.08,6a1.73,1.73,0,0,1,.18-.78,1.69,1.69,0,0,1,.48-.55,2.45,2.45,0,0,1,.69-.33,2.87,2.87,0,0,1,.77-.11,2.41,2.41,0,0,1,2.11,1L21,5.4a2.33,2.33,0,0,0-.78-.67,2.39,2.39,0,0,0-1.05-.22,2.61,2.61,0,0,0-.6.08,1.76,1.76,0,0,0-.58.25,1.33,1.33,0,0,0-.43.45,1.3,1.3,0,0,0-.17.7,1.54,1.54,0,0,0,.14.72,1.15,1.15,0,0,0,.39.43,2.75,2.75,0,0,0,.62.28c.24.07.5.15.79.21s.54.16.79.25a2.74,2.74,0,0,1,.68.36,1.53,1.53,0,0,1,.46.52A1.55,1.55,0,0,1,21.46,9.54Z"/><path class="cls-1" d="M24.16,6.25a3,3,0,0,1,.43-.85,3.23,3.23,0,0,1,.64-.64,3.2,3.2,0,0,1,.78-.4,2.82,2.82,0,0,1,.87-.13,2.54,2.54,0,0,1,1.2.26,2.06,2.06,0,0,1,.76.67,2.75,2.75,0,0,1,.41.94,4.88,4.88,0,0,1,.12,1.07v4.17H29V7.2A4.9,4.9,0,0,0,29,6.3a2.36,2.36,0,0,0-.34-.87,2,2,0,0,0-.67-.65,1.92,1.92,0,0,0-1.06-.27,2.43,2.43,0,0,0-1.07.24,2.27,2.27,0,0,0-.87.67,3.34,3.34,0,0,0-.59,1,4.45,4.45,0,0,0-.22,1.42v3.45H23.8V0h.33V6.25Z"/><path class="cls-1" d="M32.5,1.84a.33.33,0,0,1-.24-.1.37.37,0,0,1-.1-.28.37.37,0,0,1,.1-.28.34.34,0,0,1,.48,0,.38.38,0,0,1,.11.28.38.38,0,0,1-.11.28A.36.36,0,0,1,32.5,1.84Zm-.16,9.5V4.44h.33v6.9Z"/><path class="cls-1" d="M49.62,11.34V1.09h-.06l-4.7,10.25h-.27L39.91,1.09h0V11.34h-.33V.72h.58l4.62,10.14L49.36.72H50V11.34Z"/><path class="cls-1" d="M52.8,7.82A4.06,4.06,0,0,0,53,9.06a3.12,3.12,0,0,0,.57,1.1,2.76,2.76,0,0,0,1,.79,3,3,0,0,0,1.38.3,3.18,3.18,0,0,0,1.44-.32,3.27,3.27,0,0,0,1.1-.94l.24.21a3.55,3.55,0,0,1-1.19,1,3.65,3.65,0,0,1-1.59.34,3.32,3.32,0,0,1-1.39-.28,3.23,3.23,0,0,1-1.09-.77,3.49,3.49,0,0,1-.7-1.18,4.37,4.37,0,0,1-.25-1.5,3.92,3.92,0,0,1,.25-1.44,3.71,3.71,0,0,1,.7-1.14,3.12,3.12,0,0,1,2.34-1,3.41,3.41,0,0,1,1.41.28,3.09,3.09,0,0,1,1,.75,3.19,3.19,0,0,1,.6,1.06A3.87,3.87,0,0,1,59,7.53v.29Zm5.83-.29A3.45,3.45,0,0,0,58.4,6.3a2.78,2.78,0,0,0-.59-1,2.59,2.59,0,0,0-.9-.62,3.13,3.13,0,0,0-1.17-.22,2.59,2.59,0,0,0-1.34.33,2.88,2.88,0,0,0-.9.79,3.37,3.37,0,0,0-.52,1,3.11,3.11,0,0,0-.17.91Z"/><path class="cls-1" d="M62.23,5.4a3.28,3.28,0,0,1,.65-.64,3.2,3.2,0,0,1,.78-.4,2.82,2.82,0,0,1,.87-.13,2.54,2.54,0,0,1,1.2.26,2.06,2.06,0,0,1,.76.67,2.75,2.75,0,0,1,.41.94A4.88,4.88,0,0,1,67,7.17v4.17h-.33V7.2a4.9,4.9,0,0,0-.09-.9,2.36,2.36,0,0,0-.34-.87,2,2,0,0,0-.67-.65,1.92,1.92,0,0,0-1.06-.27,2.43,2.43,0,0,0-1.07.24,2.27,2.27,0,0,0-.87.67,3.34,3.34,0,0,0-.59,1,4.45,4.45,0,0,0-.22,1.42v3.45h-.33V5.77c0-.15,0-.32,0-.48s0-.33,0-.47,0-.28,0-.38h.33a3.79,3.79,0,0,1,0,.38c0,.14,0,.31,0,.48s0,.35,0,.51,0,.31,0,.44h0A2.72,2.72,0,0,1,62.23,5.4Z"/><path class="cls-1" d="M74.65,10.39A2.94,2.94,0,0,1,74,11a2.88,2.88,0,0,1-.78.4,3.16,3.16,0,0,1-.87.13,2.54,2.54,0,0,1-1.2-.26,2.09,2.09,0,0,1-.77-.67,2.78,2.78,0,0,1-.4-.95,4.66,4.66,0,0,1-.12-1.06V4.44h.33V8.58a4.92,4.92,0,0,0,.09.91,2.38,2.38,0,0,0,.34.86,2,2,0,0,0,.66.65,1.91,1.91,0,0,0,1.07.26A2.42,2.42,0,0,0,73.43,11a2.27,2.27,0,0,0,.87-.67,3.23,3.23,0,0,0,.59-1,4.46,4.46,0,0,0,.21-1.42V4.44h.33V9.6c0,.11,0,.24,0,.4s0,.33,0,.49,0,.33,0,.47,0,.28,0,.38h-.33a3.79,3.79,0,0,1,0-.38c0-.14,0-.31,0-.48s0-.35,0-.51,0-.31,0-.45h0A3.55,3.55,0,0,1,74.65,10.39Z"/></g></g></svg>