<svg xmlns="http://www.w3.org/2000/svg" viewBox="0 0 96.35 28.27"><defs><style>.cls-1{fill:none;stroke:#bf5fff;stroke-miterlimit:10;}.cls-2{fill:#fff;}</style></defs><g id="Layer_2" data-name="Layer 2"><g id="Layer_2-2" data-name="Layer 2"><rect class="cls-1" x="0.5" y="0.5" width="95.35" height="27.27"/><path class="cls-2" d="M12,20H11.4L6.61,7.22H7L11.68,19.6h0L16.44,7.22h.43Z"/><path class="cls-2" d="M18.9,8.57a.43.43,0,0,1-.29-.13.47.47,0,0,1-.12-.34.48.48,0,0,1,.12-.33.42.42,0,0,1,.29-.12.4.4,0,0,1,.29.12.49.49,0,0,1,.13.33.44.44,0,0,1-.14.34A.43.43,0,0,1,18.9,8.57ZM18.7,20V11.68h.4V20Z"/><path class="cls-2" d="M22.45,15.73a5.07,5.07,0,0,0,.22,1.49,3.92,3.92,0,0,0,.69,1.33,3.36,3.36,0,0,0,1.16.94,3.58,3.58,0,0,0,1.65.36,3.83,3.83,0,0,0,1.73-.38,3.93,3.93,0,0,0,1.32-1.13l.28.25a4.12,4.12,0,0,1-1.43,1.21,4.22,4.22,0,0,1-1.9.41,4.11,4.11,0,0,1-1.67-.33A3.92,3.92,0,0,1,23.19,19a4.18,4.18,0,0,1-.84-1.42,5.23,5.23,0,0,1-.3-1.8A4.67,4.67,0,0,1,22.36,14a4.15,4.15,0,0,1,.84-1.37,3.71,3.71,0,0,1,1.25-.89A3.83,3.83,0,0,1,26,11.43a3.91,3.91,0,0,1,1.7.34,3.56,3.56,0,0,1,1.91,2.17,4.5,4.5,0,0,1,.24,1.45v.34Zm7-.34a4.38,4.38,0,0,0-.28-1.48,3.49,3.49,0,0,0-.71-1.14A3.15,3.15,0,0,0,27.38,12a3.71,3.71,0,0,0-1.4-.26,3.15,3.15,0,0,0-1.61.39,3.56,3.56,0,0,0-1.08.95,4.15,4.15,0,0,0-.63,1.19,3.68,3.68,0,0,0-.19,1.09Z"/><path class="cls-2" d="M40.47,20h-.54l-2.7-7.85h0L34.51,20H34l-2.41-8.28H32l2.27,7.88h0l2.67-7.88h.56l2.68,7.88h0l2.27-7.88h.42Z"/><path class="cls-2" d="M56.18,14a3.51,3.51,0,0,1,1.22-1.88,3.16,3.16,0,0,1,2-.66,2.94,2.94,0,0,1,1.39.3,2.53,2.53,0,0,1,.9.81,3.63,3.63,0,0,1,.48,1.14A6,6,0,0,1,62.28,15v5h-.39V15a5.4,5.4,0,0,0-.12-1.08,3.06,3.06,0,0,0-.41-1,2.49,2.49,0,0,0-.77-.78,2.19,2.19,0,0,0-1.22-.32,2.67,2.67,0,0,0-1.22.28,2.92,2.92,0,0,0-1,.8,3.93,3.93,0,0,0-.67,1.27,5.23,5.23,0,0,0-.26,1.7V20h-.39V15a7.23,7.23,0,0,0-.1-1.08,3.22,3.22,0,0,0-.37-1,2.32,2.32,0,0,0-.75-.78,2.16,2.16,0,0,0-1.21-.32,2.7,2.7,0,0,0-1.22.28,3.12,3.12,0,0,0-1,.8,3.91,3.91,0,0,0-.66,1.27,5.53,5.53,0,0,0-.25,1.7V20H49.9V13.77c0-.13,0-.3,0-.49s0-.38,0-.58,0-.39,0-.57,0-.33,0-.45h.39c0,.12,0,.27,0,.45s0,.38,0,.59,0,.41,0,.61,0,.37,0,.53h0a3.42,3.42,0,0,1,.51-1,3.48,3.48,0,0,1,.72-.76,3.21,3.21,0,0,1,.89-.48,3.16,3.16,0,0,1,2.1,0,2.18,2.18,0,0,1,.8.54,2.66,2.66,0,0,1,.53.8,4.31,4.31,0,0,1,.28,1Z"/><path class="cls-2" d="M73.78,15.8a5,5,0,0,1-.31,1.79,4,4,0,0,1-2.27,2.3,4.95,4.95,0,0,1-3.5,0,4,4,0,0,1-2.26-2.3,5,5,0,0,1-.31-1.79A4.77,4.77,0,0,1,65.44,14a4.15,4.15,0,0,1,.89-1.38,4.29,4.29,0,0,1,1.37-.9,4.95,4.95,0,0,1,3.5,0,4.34,4.34,0,0,1,1.38.9A4.15,4.15,0,0,1,73.47,14,4.77,4.77,0,0,1,73.78,15.8Zm-.39,0a4.49,4.49,0,0,0-.27-1.56A3.84,3.84,0,0,0,72.34,13a3.67,3.67,0,0,0-1.25-.86,4.36,4.36,0,0,0-3.28,0,3.59,3.59,0,0,0-1.23.86,3.71,3.71,0,0,0-.79,1.29,4.49,4.49,0,0,0-.27,1.56,4.62,4.62,0,0,0,.27,1.59,3.58,3.58,0,0,0,.79,1.28,3.78,3.78,0,0,0,1.23.88,4.36,4.36,0,0,0,3.28,0,3.87,3.87,0,0,0,1.25-.88,3.7,3.7,0,0,0,.78-1.28A4.62,4.62,0,0,0,73.39,15.8Z"/><path class="cls-2" d="M78.36,12a2.84,2.84,0,0,1,1.71-.57h.16a.47.47,0,0,1,.16,0v.34l-.14,0h-.09a2.51,2.51,0,0,0-1.35.35,2.89,2.89,0,0,0-.92.92,4.16,4.16,0,0,0-.53,1.26,5.43,5.43,0,0,0-.17,1.38V20h-.4V13.77c0-.13,0-.3,0-.49s0-.38,0-.58,0-.39,0-.57,0-.33,0-.45h.4c0,.12,0,.27,0,.45s0,.38,0,.59,0,.41,0,.61,0,.37,0,.53h0A3.24,3.24,0,0,1,78.36,12Z"/><path class="cls-2" d="M81.79,15.73A5.09,5.09,0,0,0,82,17.22a4.08,4.08,0,0,0,.68,1.33,3.45,3.45,0,0,0,2.82,1.3,3.57,3.57,0,0,0,3-1.51l.29.25a4.31,4.31,0,0,1-1.43,1.21,4.25,4.25,0,0,1-1.9.41,4.11,4.11,0,0,1-1.67-.33A3.82,3.82,0,0,1,82.54,19a4,4,0,0,1-.85-1.42,5.48,5.48,0,0,1-.29-1.8A4.87,4.87,0,0,1,81.7,14a4.51,4.51,0,0,1,.84-1.37,4,4,0,0,1,4.5-.86,3.58,3.58,0,0,1,1.21.9A4,4,0,0,1,89,13.94a4.78,4.78,0,0,1,.23,1.45v.34Zm7-.34a4.63,4.63,0,0,0-.28-1.48,3.67,3.67,0,0,0-.71-1.14A3.15,3.15,0,0,0,86.73,12a3.73,3.73,0,0,0-1.41-.26,3.11,3.11,0,0,0-1.6.39,3.6,3.6,0,0,0-1.09.95A4.11,4.11,0,0,0,82,14.3a3.72,3.72,0,0,0-.2,1.09Z"/></g></g></svg>