<svg xmlns="http://www.w3.org/2000/svg" viewBox="0 0 105.36 15.09"><defs><style>.cls-1{fill:#fff;}</style></defs><g id="Layer_2" data-name="Layer 2"><g id="Layer_1-2" data-name="Layer 1"><path class="cls-1" d="M6.68,8.5a2.7,2.7,0,0,1-.33,1.41,2.51,2.51,0,0,1-.82.86,3.35,3.35,0,0,1-1.11.44,5.42,5.42,0,0,1-1.16.13H0V.72H2.9A6.08,6.08,0,0,1,4.09.84a3.39,3.39,0,0,1,1.06.41A2.18,2.18,0,0,1,5.9,2a2.46,2.46,0,0,1,.28,1.21,2.43,2.43,0,0,1-.18,1,2.09,2.09,0,0,1-.49.73,2.49,2.49,0,0,1-.7.48A3.24,3.24,0,0,1,4,5.7v0A3.47,3.47,0,0,1,4.89,6a2.77,2.77,0,0,1,.86.5,2.52,2.52,0,0,1,.66.84A2.57,2.57,0,0,1,6.68,8.5ZM5.85,3.27A2.11,2.11,0,0,0,5.6,2.19a2,2,0,0,0-.68-.69,3.11,3.11,0,0,0-1-.37A6,6,0,0,0,2.81,1H.33V5.59H2.88A4.29,4.29,0,0,0,4,5.46a3.31,3.31,0,0,0,1-.41,2.34,2.34,0,0,0,.68-.72A2.11,2.11,0,0,0,5.85,3.27Zm.5,5.28a2.39,2.39,0,0,0-.3-1.23,2.44,2.44,0,0,0-.74-.82,3,3,0,0,0-1-.46A3.89,3.89,0,0,0,3.27,5.9H.33V11H3.1a6,6,0,0,0,1.3-.14,3.06,3.06,0,0,0,1-.44,2.22,2.22,0,0,0,.68-.78A2.45,2.45,0,0,0,6.35,8.55Z"/><path class="cls-1" d="M9.29,1.84a.33.33,0,0,1-.24-.1.38.38,0,0,1-.11-.28.34.34,0,0,1,.11-.27.34.34,0,0,1,.58.27.38.38,0,0,1-.11.28A.34.34,0,0,1,9.29,1.84Zm-.17,9.5V4.44h.33v6.9Z"/><path class="cls-1" d="M12.85,7.62l3.57-3.18h.47L13.25,7.63l4.06,3.71h-.5l-4-3.64h0v3.64h-.33V0h.33V7.62Z"/><path class="cls-1" d="M19.35,1.84a.33.33,0,0,1-.24-.1A.38.38,0,0,1,19,1.46a.34.34,0,0,1,.11-.27.34.34,0,0,1,.58.27.34.34,0,0,1-.11.28A.32.32,0,0,1,19.35,1.84Zm-.17,9.5V4.44h.33v6.9Z"/><path class="cls-1" d="M23.4,5.4A3.23,3.23,0,0,1,24,4.76a3,3,0,0,1,.78-.39,2.88,2.88,0,0,1,.87-.14,2.61,2.61,0,0,1,1.21.26,2.14,2.14,0,0,1,.76.67,2.7,2.7,0,0,1,.4,1,4.22,4.22,0,0,1,.13,1.06v4.17h-.34V7.2a5.88,5.88,0,0,0-.08-.9,2.55,2.55,0,0,0-.34-.87,2.08,2.08,0,0,0-.67-.65,2,2,0,0,0-1.07-.27,2.46,2.46,0,0,0-1.07.24,2.43,2.43,0,0,0-.87.67,3.32,3.32,0,0,0-.58,1A4.19,4.19,0,0,0,23,7.89v3.45h-.33V6.18c0-.11,0-.24,0-.4s0-.33,0-.49,0-.33,0-.47,0-.28,0-.38h.34c0,.1,0,.23,0,.38s0,.31,0,.48,0,.35,0,.51,0,.31,0,.44h0A2.86,2.86,0,0,1,23.4,5.4Z"/><path class="cls-1" d="M37.15,9.48h0a2.92,2.92,0,0,1-.53.89,3.44,3.44,0,0,1-.73.65,3.35,3.35,0,0,1-.88.4,3.91,3.91,0,0,1-1,.13,3.42,3.42,0,0,1-2.48-1,3.58,3.58,0,0,1-.71-1.16,4,4,0,0,1-.25-1.44,4.07,4.07,0,0,1,.25-1.46,3.63,3.63,0,0,1,.71-1.17,3.17,3.17,0,0,1,1.1-.77A3.31,3.31,0,0,1,34,4.23a3.45,3.45,0,0,1,1.83.52,3.42,3.42,0,0,1,1.28,1.57h0V4.44h.33V11a6.77,6.77,0,0,1-.17,1.58,3.53,3.53,0,0,1-.57,1.31,2.74,2.74,0,0,1-1.05.91,3.4,3.4,0,0,1-1.61.34,4.19,4.19,0,0,1-1.74-.34A3.62,3.62,0,0,1,31,13.8l.22-.22a3.44,3.44,0,0,0,1.3.93,3.92,3.92,0,0,0,1.52.29,3,3,0,0,0,1.5-.33,2.61,2.61,0,0,0,.94-.86A3.58,3.58,0,0,0,37,12.37a6.92,6.92,0,0,0,.14-1.45ZM30.88,7.91A4,4,0,0,0,31.1,9.2a3.52,3.52,0,0,0,.63,1.08,3,3,0,0,0,2.27,1A3,3,0,0,0,35.27,11a3.19,3.19,0,0,0,1-.73,3.65,3.65,0,0,0,.66-3.7,3.44,3.44,0,0,0-.66-1.07,3,3,0,0,0-1-.72,3.07,3.07,0,0,0-2.56,0,3,3,0,0,0-1,.75,3.3,3.3,0,0,0-.63,1.08A4,4,0,0,0,30.88,7.91Z"/><path class="cls-1" d="M44.46,1.84a.33.33,0,0,1-.24-.1.38.38,0,0,1-.11-.28.34.34,0,0,1,.11-.27.34.34,0,0,1,.58.27.34.34,0,0,1-.11.28A.32.32,0,0,1,44.46,1.84Zm-.17,9.5V4.44h.33v6.9Z"/><path class="cls-1" d="M48.51,5.4a3.23,3.23,0,0,1,.64-.64,3,3,0,0,1,.78-.39,2.83,2.83,0,0,1,.87-.14,2.54,2.54,0,0,1,1.2.26,2.09,2.09,0,0,1,.77.67,2.7,2.7,0,0,1,.4,1,4.72,4.72,0,0,1,.12,1.06v4.17H53V7.2a5.88,5.88,0,0,0-.08-.9,2.77,2.77,0,0,0-.34-.87,2.08,2.08,0,0,0-.67-.65,2,2,0,0,0-1.07-.27,2.46,2.46,0,0,0-1.07.24,2.43,2.43,0,0,0-.87.67,3.32,3.32,0,0,0-.58,1,4.19,4.19,0,0,0-.22,1.42v3.45h-.33V6.18c0-.11,0-.24,0-.4s0-.33,0-.49,0-.33,0-.47,0-.28,0-.38H48c0,.1,0,.23,0,.38s0,.31,0,.48,0,.35,0,.51v.44h0A2.86,2.86,0,0,1,48.51,5.4Z"/><path class="cls-1" d="M66.75,8.5a2.8,2.8,0,0,1-.32,1.41,2.53,2.53,0,0,1-.83.86,3.19,3.19,0,0,1-1.11.44,5.29,5.29,0,0,1-1.16.13H60.07V.72H63a5.93,5.93,0,0,1,1.19.12,3.21,3.21,0,0,1,1.06.41A2.18,2.18,0,0,1,66,2a2.36,2.36,0,0,1,.28,1.21,2.43,2.43,0,0,1-.18,1,2.21,2.21,0,0,1-.48.73,2.81,2.81,0,0,1-.7.48,3.46,3.46,0,0,1-.8.28v0A3.47,3.47,0,0,1,65,6a2.93,2.93,0,0,1,.87.5,2.8,2.8,0,0,1,.66.84A2.7,2.7,0,0,1,66.75,8.5Zm-.83-5.23a2.11,2.11,0,0,0-.25-1.08A2,2,0,0,0,65,1.5a3.15,3.15,0,0,0-1-.37A6.15,6.15,0,0,0,62.88,1H60.4V5.59H63A4.43,4.43,0,0,0,64,5.46a3.25,3.25,0,0,0,1-.41,2.23,2.23,0,0,0,.68-.72A2,2,0,0,0,65.92,3.27Zm.5,5.28a2.49,2.49,0,0,0-.29-1.23,2.58,2.58,0,0,0-.75-.82,3,3,0,0,0-1-.46,3.89,3.89,0,0,0-1-.14H60.4V11h2.78a5.86,5.86,0,0,0,1.29-.14,3.11,3.11,0,0,0,1-.44,2.2,2.2,0,0,0,.67-.78A2.33,2.33,0,0,0,66.42,8.55Z"/><path class="cls-1" d="M68.92,7.82a4.39,4.39,0,0,0,.19,1.24,3.49,3.49,0,0,0,.57,1.1,2.89,2.89,0,0,0,1,.79,3,3,0,0,0,1.38.3,3.18,3.18,0,0,0,1.44-.32A3.24,3.24,0,0,0,74.56,10l.24.21a3.46,3.46,0,0,1-1.19,1,3.57,3.57,0,0,1-1.58.34,3.37,3.37,0,0,1-1.4-.28,3.09,3.09,0,0,1-1.08-.77,3.41,3.41,0,0,1-.71-1.18,4.54,4.54,0,0,1-.25-1.5,3.93,3.93,0,0,1,.26-1.44,3.47,3.47,0,0,1,.7-1.14,3.11,3.11,0,0,1,1-.75,3.35,3.35,0,0,1,1.3-.26,3.41,3.41,0,0,1,1.41.28,3.32,3.32,0,0,1,1,.75,3.17,3.17,0,0,1,.59,1.06,3.88,3.88,0,0,1,.2,1.21v.29Zm5.84-.29a3.69,3.69,0,0,0-.23-1.23,3,3,0,0,0-.6-1,2.59,2.59,0,0,0-.9-.62,3.13,3.13,0,0,0-1.17-.22,2.55,2.55,0,0,0-1.33.33,3,3,0,0,0-.91.79,3.63,3.63,0,0,0-.52,1,3.06,3.06,0,0,0-.16.91Z"/><path class="cls-1" d="M78.88,4.7a2.45,2.45,0,0,1,1.43-.47h.13l.14,0v.28l-.11,0h-.09a2,2,0,0,0-1.12.3,2.43,2.43,0,0,0-.77.76,3.76,3.76,0,0,0-.44,1,5.09,5.09,0,0,0-.14,1.15v3.57h-.33V6.18c0-.11,0-.24,0-.4s0-.33,0-.49,0-.33,0-.47,0-.28,0-.38h.33c0,.1,0,.23,0,.38s0,.31,0,.48,0,.35,0,.51v.44h0A2.77,2.77,0,0,1,78.88,4.7Z"/><path class="cls-1" d="M88,9.48h0a2.9,2.9,0,0,1-.52.89,3.49,3.49,0,0,1-.74.65,3.44,3.44,0,0,1-.87.4,4,4,0,0,1-1,.13,3.39,3.39,0,0,1-1.39-.28,3.24,3.24,0,0,1-1.09-.76,3.44,3.44,0,0,1-.72-1.16,4,4,0,0,1-.25-1.44,4.07,4.07,0,0,1,.25-1.46,3.49,3.49,0,0,1,.72-1.17,3.13,3.13,0,0,1,1.09-.77A3.34,3.34,0,0,1,88,6.32h0V4.44h.33V11a7.36,7.36,0,0,1-.17,1.58,3.89,3.89,0,0,1-.57,1.31,2.89,2.89,0,0,1-1,.91,3.47,3.47,0,0,1-1.62.34,4.19,4.19,0,0,1-1.74-.34,3.62,3.62,0,0,1-1.3-.95l.22-.22a3.52,3.52,0,0,0,1.3.93,4,4,0,0,0,1.52.29,3,3,0,0,0,1.5-.33,2.64,2.64,0,0,0,1-.86,3.79,3.79,0,0,0,.49-1.24A7.67,7.67,0,0,0,88,10.92ZM81.75,7.91A3.72,3.72,0,0,0,82,9.2a3.31,3.31,0,0,0,.62,1.08,3.1,3.1,0,0,0,1,.73,3.05,3.05,0,0,0,1.3.27A3,3,0,0,0,86.14,11a3.26,3.26,0,0,0,1-.73,3.65,3.65,0,0,0,.66-3.7,3.44,3.44,0,0,0-.66-1.07,3.08,3.08,0,0,0-1-.72,3,3,0,0,0-1.27-.28,3.06,3.06,0,0,0-1.3.28,3.16,3.16,0,0,0-1,.75A3.12,3.12,0,0,0,82,6.62,3.72,3.72,0,0,0,81.75,7.91Z"/><path class="cls-1" d="M91.14,7.82a4.06,4.06,0,0,0,.19,1.24,3.12,3.12,0,0,0,.57,1.1,2.76,2.76,0,0,0,1,.79,3,3,0,0,0,1.38.3,3.18,3.18,0,0,0,1.44-.32,3.27,3.27,0,0,0,1.1-.94l.24.21a3.55,3.55,0,0,1-1.19,1,3.65,3.65,0,0,1-1.59.34,3.32,3.32,0,0,1-1.39-.28,3.23,3.23,0,0,1-1.09-.77,3.39,3.39,0,0,1-.7-1.18,4.29,4.29,0,0,1-.25-1.5,3.92,3.92,0,0,1,.25-1.44,3.84,3.84,0,0,1,.7-1.14,3.12,3.12,0,0,1,2.34-1,3.49,3.49,0,0,1,1.42.28,3.32,3.32,0,0,1,1,.75,3.35,3.35,0,0,1,.59,1.06,3.87,3.87,0,0,1,.19,1.21v.29ZM97,7.53a3.45,3.45,0,0,0-.23-1.23,2.78,2.78,0,0,0-.59-1,2.59,2.59,0,0,0-.9-.62,3.13,3.13,0,0,0-1.17-.22,2.59,2.59,0,0,0-1.34.33,2.88,2.88,0,0,0-.9.79,3.37,3.37,0,0,0-.52,1,3.11,3.11,0,0,0-.17.91Z"/><path class="cls-1" d="M100.57,5.4a3.28,3.28,0,0,1,.65-.64,2.89,2.89,0,0,1,1.65-.53,2.54,2.54,0,0,1,1.2.26,2.06,2.06,0,0,1,.76.67,2.71,2.71,0,0,1,.41,1,4.72,4.72,0,0,1,.12,1.06v4.17H105V7.2a4.9,4.9,0,0,0-.09-.9,2.36,2.36,0,0,0-.34-.87,2,2,0,0,0-.67-.65,1.92,1.92,0,0,0-1.06-.27,2.43,2.43,0,0,0-1.07.24,2.27,2.27,0,0,0-.87.67,3.34,3.34,0,0,0-.59,1,4.45,4.45,0,0,0-.22,1.42v3.45h-.33V5.78c0-.16,0-.33,0-.49s0-.33,0-.47,0-.28,0-.38h.33a3.79,3.79,0,0,1,0,.38c0,.14,0,.31,0,.48s0,.35,0,.51,0,.31,0,.44h0A2.84,2.84,0,0,1,100.57,5.4Z"/></g></g></svg>