<svg xmlns="http://www.w3.org/2000/svg" viewBox="0 0 285.58 15.27"><defs><style>.cls-1{fill:#fff;}</style></defs><g id="Layer_2" data-name="Layer 2"><g id="Layer_1-2" data-name="Layer 1"><path class="cls-1" d="M7.51,11.42a5.7,5.7,0,0,1-2.09.4,5.48,5.48,0,0,1-2.19-.42,5.13,5.13,0,0,1-1.71-1.16A5.18,5.18,0,0,1,.4,8.46,6.12,6.12,0,0,1,0,6.21,6.12,6.12,0,0,1,.4,4,5.18,5.18,0,0,1,1.52,2.18,5.23,5.23,0,0,1,3.23,1,5.59,5.59,0,0,1,5.42.6,5.51,5.51,0,0,1,7.34.94a4.11,4.11,0,0,1,1.6,1l-.21.25A3.6,3.6,0,0,0,8,1.63a5.49,5.49,0,0,0-.84-.42A5.08,5.08,0,0,0,6.29,1,5.52,5.52,0,0,0,5.42.9a5.15,5.15,0,0,0-2.08.41A4.88,4.88,0,0,0,1.73,2.44a5.19,5.19,0,0,0-1,1.69A5.73,5.73,0,0,0,.33,6.21,5.94,5.94,0,0,0,.69,8.29a5,5,0,0,0,1,1.69,4.84,4.84,0,0,0,1.6,1.13,5.24,5.24,0,0,0,2.1.41,5.37,5.37,0,0,0,2-.38A3.9,3.9,0,0,0,9,10l.24.22A4.08,4.08,0,0,1,7.51,11.42Z"/><path class="cls-1" d="M17.75,8.06a3.94,3.94,0,0,1-.27,1.48,3.31,3.31,0,0,1-1.89,1.92,3.83,3.83,0,0,1-1.46.27,3.78,3.78,0,0,1-1.45-.27,3.13,3.13,0,0,1-1.14-.76,3.27,3.27,0,0,1-.75-1.16,4.34,4.34,0,0,1,0-3,3.35,3.35,0,0,1,1.89-1.9,3.78,3.78,0,0,1,1.45-.27,3.83,3.83,0,0,1,1.46.27,3.37,3.37,0,0,1,1.15.75,3.21,3.21,0,0,1,.74,1.15A3.9,3.9,0,0,1,17.75,8.06Zm-.33,0a3.8,3.8,0,0,0-.23-1.31,3.14,3.14,0,0,0-.65-1.07,2.94,2.94,0,0,0-1-.72,3.32,3.32,0,0,0-1.37-.27A3.27,3.27,0,0,0,12.77,5a2.9,2.9,0,0,0-1,.72,3,3,0,0,0-.66,1.07,4,4,0,0,0,0,2.63,3.1,3.1,0,0,0,.66,1.07,3,3,0,0,0,1,.72,3.27,3.27,0,0,0,1.36.27,3.32,3.32,0,0,0,1.37-.27,3.08,3.08,0,0,0,1-.72,3.24,3.24,0,0,0,.65-1.07A3.81,3.81,0,0,0,17.42,8.06Z"/><path class="cls-1" d="M24.86,10.57a2.78,2.78,0,0,1-.64.64,3.16,3.16,0,0,1-.78.39,2.78,2.78,0,0,1-.87.13,2.47,2.47,0,0,1-1.19-.25,2,2,0,0,1-.77-.68,2.71,2.71,0,0,1-.41-1,4.72,4.72,0,0,1-.12-1.06V4.62h.34V8.76a4.87,4.87,0,0,0,.08.91,2.58,2.58,0,0,0,.34.86,2.16,2.16,0,0,0,.66.65,1.93,1.93,0,0,0,1.07.26,2.5,2.5,0,0,0,1.08-.23,2.55,2.55,0,0,0,.87-.67,3.32,3.32,0,0,0,.58-1,4.19,4.19,0,0,0,.22-1.42V4.62h.33V9.78c0,.11,0,.25,0,.41s0,.32,0,.48,0,.33,0,.48,0,.27,0,.37H25.4a3.46,3.46,0,0,1,0-.37c0-.15,0-.32,0-.49s0-.35,0-.51,0-.32,0-.44h0A3.17,3.17,0,0,1,24.86,10.57Z"/><path class="cls-1" d="M30.13,4.88a2.45,2.45,0,0,1,1.43-.47h.27v.29l-.11,0h-.09a2,2,0,0,0-1.12.3,2.3,2.3,0,0,0-.76.76,3.51,3.51,0,0,0-.45,1A5.09,5.09,0,0,0,29.16,8v3.57h-.33V6.36c0-.11,0-.24,0-.4s0-.33,0-.49,0-.32,0-.47,0-.28,0-.38h.33c0,.1,0,.23,0,.38s0,.31,0,.48,0,.35,0,.51,0,.32,0,.45h0A2.78,2.78,0,0,1,30.13,4.88Z"/><path class="cls-1" d="M37.42,9.72a1.85,1.85,0,0,1-.66,1.45,1.94,1.94,0,0,1-.72.39,2.74,2.74,0,0,1-.87.14,3.25,3.25,0,0,1-1.38-.29,2.55,2.55,0,0,1-1-.87l.27-.17a2.52,2.52,0,0,0,2.16,1.05,2.29,2.29,0,0,0,.67-.11,2,2,0,0,0,.61-.31,1.63,1.63,0,0,0,.45-.53,1.42,1.42,0,0,0,.17-.72A1.33,1.33,0,0,0,36.88,9a1.69,1.69,0,0,0-.55-.48,3.18,3.18,0,0,0-.73-.29L34.86,8a6.56,6.56,0,0,1-.71-.24,1.78,1.78,0,0,1-.57-.33,1.28,1.28,0,0,1-.39-.5A1.67,1.67,0,0,1,33,6.18a1.61,1.61,0,0,1,.18-.78,1.69,1.69,0,0,1,.48-.55,2.45,2.45,0,0,1,.69-.33,2.87,2.87,0,0,1,.77-.11,2.41,2.41,0,0,1,2.11,1L37,5.58a2.33,2.33,0,0,0-.78-.67,2.39,2.39,0,0,0-1.05-.22,2.61,2.61,0,0,0-.6.08A1.76,1.76,0,0,0,34,5a1.36,1.36,0,0,0-.43.46,1.26,1.26,0,0,0-.17.69,1.52,1.52,0,0,0,.14.72,1.15,1.15,0,0,0,.39.43,2.75,2.75,0,0,0,.62.28c.24.07.5.15.79.21s.54.16.79.25a2.74,2.74,0,0,1,.68.36,1.53,1.53,0,0,1,.46.52A1.55,1.55,0,0,1,37.42,9.72Z"/><path class="cls-1" d="M39.49,8a4.39,4.39,0,0,0,.19,1.24,3.49,3.49,0,0,0,.57,1.1,2.89,2.89,0,0,0,1,.79,3,3,0,0,0,1.38.3A3.18,3.18,0,0,0,44,11.11a3.24,3.24,0,0,0,1.09-.94l.24.21a3.46,3.46,0,0,1-1.19,1,3.57,3.57,0,0,1-1.58.34,3.37,3.37,0,0,1-1.4-.28,3.09,3.09,0,0,1-1.08-.77,3.41,3.41,0,0,1-.71-1.18A4.54,4.54,0,0,1,39.16,8a4,4,0,0,1,.26-1.44,3.47,3.47,0,0,1,.7-1.14,3.11,3.11,0,0,1,1-.75,3.32,3.32,0,0,1,1.3-.26,3.41,3.41,0,0,1,1.41.28,3.32,3.32,0,0,1,1,.75,3.07,3.07,0,0,1,.59,1.06,3.88,3.88,0,0,1,.2,1.21V8Zm5.84-.29a3.69,3.69,0,0,0-.23-1.23,3,3,0,0,0-.6-1,2.59,2.59,0,0,0-.9-.62,3.13,3.13,0,0,0-1.17-.22A2.55,2.55,0,0,0,41.1,5a3,3,0,0,0-.91.79,3.63,3.63,0,0,0-.52,1,3.06,3.06,0,0,0-.16.91Z"/><path class="cls-1" d="M56.59,10c0,.26,0,.54,0,.83s0,.54.08.73H56.4a2.78,2.78,0,0,1,0-.37q0-.21,0-.45a3.4,3.4,0,0,1,0-.45c0-.15,0-.28,0-.38h-.05a2.42,2.42,0,0,1-1,1.4,2.9,2.9,0,0,1-1.58.46,3,3,0,0,1-.83-.12,2.42,2.42,0,0,1-.74-.36,1.74,1.74,0,0,1-.53-.61,1.8,1.8,0,0,1-.21-.89,1.78,1.78,0,0,1,.39-1.19,2.56,2.56,0,0,1,.95-.69,4.49,4.49,0,0,1,1.22-.33c.44,0,.83-.07,1.19-.07h1.2V6.92a2.12,2.12,0,0,0-.61-1.69A2.36,2.36,0,0,0,54,4.69a2.87,2.87,0,0,0-1.14.23,3.38,3.38,0,0,0-1,.6l-.18-.25a3.33,3.33,0,0,1,1.09-.64A3.42,3.42,0,0,1,54,4.41,2.68,2.68,0,0,1,55.91,5a2.41,2.41,0,0,1,.68,1.91Zm-.33-2.21H55.2c-.38,0-.78,0-1.2.07a4.58,4.58,0,0,0-1.16.28,2.22,2.22,0,0,0-.86.6,1.58,1.58,0,0,0-.34,1.05,1.51,1.51,0,0,0,.67,1.32,2.1,2.1,0,0,0,.65.28,2.23,2.23,0,0,0,.66.09,2.61,2.61,0,0,0,1.28-.28,2.41,2.41,0,0,0,.82-.73,2.81,2.81,0,0,0,.42-1,4.82,4.82,0,0,0,.12-1Z"/><path class="cls-1" d="M63.42,9.72a1.84,1.84,0,0,1-.18.83,1.75,1.75,0,0,1-.49.62,1.83,1.83,0,0,1-.71.39,2.74,2.74,0,0,1-.87.14,3.32,3.32,0,0,1-1.39-.29,2.62,2.62,0,0,1-1-.87l.27-.17a2.52,2.52,0,0,0,2.16,1.05,2.24,2.24,0,0,0,.67-.11,2,2,0,0,0,.62-.31,1.92,1.92,0,0,0,.45-.53,1.53,1.53,0,0,0,.17-.72A1.26,1.26,0,0,0,62.87,9a1.59,1.59,0,0,0-.55-.48,3.29,3.29,0,0,0-.72-.29L60.85,8a6.37,6.37,0,0,1-.7-.24,1.94,1.94,0,0,1-.58-.33,1.5,1.5,0,0,1-.39-.5A1.82,1.82,0,0,1,59,6.18a1.61,1.61,0,0,1,.18-.78,1.69,1.69,0,0,1,.48-.55,2.53,2.53,0,0,1,.68-.33,2.92,2.92,0,0,1,.77-.11,2.43,2.43,0,0,1,2.12,1L63,5.58a2.33,2.33,0,0,0-.78-.67,2.39,2.39,0,0,0-1.05-.22,2.61,2.61,0,0,0-.6.08A1.63,1.63,0,0,0,60,5a1.39,1.39,0,0,0-.44.46,1.36,1.36,0,0,0-.17.69,1.65,1.65,0,0,0,.14.72,1.27,1.27,0,0,0,.4.43,2.66,2.66,0,0,0,.61.28c.24.07.51.15.8.21l.79.25a2.67,2.67,0,0,1,.67.36,1.56,1.56,0,0,1,.47.52A1.67,1.67,0,0,1,63.42,9.72Z"/><path class="cls-1" d="M69.64,9.72A1.85,1.85,0,0,1,69,11.17a1.94,1.94,0,0,1-.72.39,2.74,2.74,0,0,1-.87.14A3.25,3.25,0,0,1,66,11.41a2.55,2.55,0,0,1-1-.87l.27-.17a2.52,2.52,0,0,0,2.16,1.05,2.29,2.29,0,0,0,.67-.11,2,2,0,0,0,.61-.31,1.63,1.63,0,0,0,.45-.53,1.42,1.42,0,0,0,.17-.72A1.33,1.33,0,0,0,69.1,9a1.69,1.69,0,0,0-.55-.48,3.18,3.18,0,0,0-.73-.29L67.08,8a6.56,6.56,0,0,1-.71-.24,1.78,1.78,0,0,1-.57-.33,1.28,1.28,0,0,1-.39-.5,1.67,1.67,0,0,1-.15-.75,1.61,1.61,0,0,1,.18-.78,1.69,1.69,0,0,1,.48-.55,2.45,2.45,0,0,1,.69-.33,2.87,2.87,0,0,1,.77-.11,2.41,2.41,0,0,1,2.11,1l-.28.16a2.33,2.33,0,0,0-.78-.67,2.39,2.39,0,0,0-1.05-.22,2.61,2.61,0,0,0-.6.08A1.76,1.76,0,0,0,66.2,5a1.36,1.36,0,0,0-.43.46,1.27,1.27,0,0,0-.18.69,1.51,1.51,0,0,0,.15.72,1.15,1.15,0,0,0,.39.43,2.75,2.75,0,0,0,.62.28c.24.07.5.15.79.21s.54.16.79.25a2.74,2.74,0,0,1,.68.36,1.53,1.53,0,0,1,.46.52A1.55,1.55,0,0,1,69.64,9.72Z"/><path class="cls-1" d="M72.15,2a.33.33,0,0,1-.24-.1.39.39,0,0,1-.11-.28.35.35,0,0,1,.11-.27.32.32,0,0,1,.48,0,.35.35,0,0,1,.1.27.36.36,0,0,1-.11.28A.32.32,0,0,1,72.15,2ZM72,11.52V4.62h.33v6.9Z"/><path class="cls-1" d="M81.37,9.66h0a2.92,2.92,0,0,1-.53.89,3.44,3.44,0,0,1-.73.65,3.7,3.7,0,0,1-.88.4,3.49,3.49,0,0,1-1,.13,3.42,3.42,0,0,1-2.48-1A3.58,3.58,0,0,1,75,9.53a4.17,4.17,0,0,1,0-2.9,3.63,3.63,0,0,1,.71-1.17,3.17,3.17,0,0,1,1.1-.77,3.47,3.47,0,0,1,3.21.25A3.39,3.39,0,0,1,81.33,6.5h0V4.62h.33v6.51a6.77,6.77,0,0,1-.17,1.58A3.46,3.46,0,0,1,81,14a2.74,2.74,0,0,1-1,.91,3.4,3.4,0,0,1-1.61.34,4.19,4.19,0,0,1-1.74-.34A3.65,3.65,0,0,1,75.25,14l.23-.23a3.26,3.26,0,0,0,1.3.94A3.92,3.92,0,0,0,78.3,15a3,3,0,0,0,1.5-.33,2.44,2.44,0,0,0,.94-.86,3.66,3.66,0,0,0,.49-1.24,6.92,6.92,0,0,0,.14-1.45ZM75.1,8.08a4,4,0,0,0,.22,1.3,3.39,3.39,0,0,0,.62,1.08,2.9,2.9,0,0,0,1,.73,3.17,3.17,0,0,0,2.56,0,3,3,0,0,0,1-.73,3.48,3.48,0,0,0,.66-1.08,3.58,3.58,0,0,0,.24-1.31,3.53,3.53,0,0,0-.24-1.3A3.22,3.22,0,0,0,79.49,5a3.1,3.1,0,0,0-1.27-.27A3,3,0,0,0,76.93,5a3.21,3.21,0,0,0-1,.74,3.5,3.5,0,0,0-.62,1.08A4.06,4.06,0,0,0,75.1,8.08Z"/><path class="cls-1" d="M85.59,5.58a3.23,3.23,0,0,1,.64-.64,3.2,3.2,0,0,1,.78-.4,3.16,3.16,0,0,1,.87-.13,2.54,2.54,0,0,1,1.2.26,2,2,0,0,1,.77.67,2.78,2.78,0,0,1,.4,1,4.72,4.72,0,0,1,.12,1.06v4.17H90V7.38a4.9,4.9,0,0,0-.09-.9,2.54,2.54,0,0,0-.33-.87A2.08,2.08,0,0,0,89,5a2,2,0,0,0-1.07-.27,2.46,2.46,0,0,0-1.07.24,2.55,2.55,0,0,0-.87.67,3.32,3.32,0,0,0-.58,1.05,4.19,4.19,0,0,0-.22,1.42v3.45h-.33V6.36c0-.11,0-.24,0-.4s0-.33,0-.49,0-.32,0-.47,0-.28,0-.38h.33c0,.1,0,.23,0,.38s0,.31,0,.48,0,.35,0,.51v.45h0A2.8,2.8,0,0,1,85.59,5.58Z"/><path class="cls-1" d="M98.62,6.52a2.94,2.94,0,0,1,1-1.56,2.62,2.62,0,0,1,1.64-.55,2.4,2.4,0,0,1,1.16.26,1.88,1.88,0,0,1,.75.67,2.78,2.78,0,0,1,.4,1,4.72,4.72,0,0,1,.12,1.06v4.17h-.33V7.38a4.2,4.2,0,0,0-.1-.9,2.55,2.55,0,0,0-.34-.87A2,2,0,0,0,102.3,5a1.8,1.8,0,0,0-1-.27,2.18,2.18,0,0,0-1,.24,2.41,2.41,0,0,0-.83.67,3.49,3.49,0,0,0-.56,1.05,4.46,4.46,0,0,0-.21,1.42v3.45h-.33V7.38a5.88,5.88,0,0,0-.08-.9A2.73,2.73,0,0,0,98,5.61,1.92,1.92,0,0,0,97.33,5a1.8,1.8,0,0,0-1-.27,2.21,2.21,0,0,0-1,.24,2.38,2.38,0,0,0-.82.67,3.28,3.28,0,0,0-.56,1.05,4.77,4.77,0,0,0-.2,1.42v3.45h-.33V6.36c0-.11,0-.24,0-.4s0-.33,0-.49,0-.32,0-.47,0-.28,0-.38h.33c0,.1,0,.23,0,.38s0,.31,0,.48,0,.35,0,.51v.45h0a3,3,0,0,1,.42-.86,3.39,3.39,0,0,1,.61-.64,2.94,2.94,0,0,1,.74-.4,2.75,2.75,0,0,1,.81-.13,2.43,2.43,0,0,1,.94.17,1.86,1.86,0,0,1,.67.44,2.48,2.48,0,0,1,.43.67,3.78,3.78,0,0,1,.24.83Z"/><path class="cls-1" d="M106.41,8a4.06,4.06,0,0,0,.19,1.24,3.12,3.12,0,0,0,.57,1.1,2.76,2.76,0,0,0,1,.79,3,3,0,0,0,1.38.3,3.18,3.18,0,0,0,1.44-.32,3.27,3.27,0,0,0,1.1-.94l.24.21a3.55,3.55,0,0,1-1.19,1,3.65,3.65,0,0,1-1.59.34,3.32,3.32,0,0,1-1.39-.28,3.23,3.23,0,0,1-1.09-.77,3.39,3.39,0,0,1-.7-1.18,4.29,4.29,0,0,1-.25-1.5,4,4,0,0,1,.25-1.44,3.64,3.64,0,0,1,.7-1.14,3.12,3.12,0,0,1,2.34-1,3.41,3.41,0,0,1,1.41.28,3,3,0,0,1,1.6,1.81,3.87,3.87,0,0,1,.19,1.21V8Zm5.83-.29A3.45,3.45,0,0,0,112,6.48a2.78,2.78,0,0,0-.59-1,2.59,2.59,0,0,0-.9-.62,3.13,3.13,0,0,0-1.17-.22A2.59,2.59,0,0,0,108,5a2.88,2.88,0,0,0-.9.79,3.37,3.37,0,0,0-.52,1,3.11,3.11,0,0,0-.17.91Z"/><path class="cls-1" d="M115.84,5.58a3.28,3.28,0,0,1,.65-.64,3.2,3.2,0,0,1,.78-.4,3.16,3.16,0,0,1,.87-.13,2.54,2.54,0,0,1,1.2.26,2,2,0,0,1,.76.67,2.8,2.8,0,0,1,.41,1,4.72,4.72,0,0,1,.12,1.06v4.17h-.33V7.38a4.9,4.9,0,0,0-.09-.9,2.36,2.36,0,0,0-.34-.87A2,2,0,0,0,119.2,5a1.92,1.92,0,0,0-1.06-.27,2.43,2.43,0,0,0-1.07.24,2.37,2.37,0,0,0-.87.67,3.34,3.34,0,0,0-.59,1.05,4.45,4.45,0,0,0-.22,1.42v3.45h-.33V6c0-.16,0-.33,0-.49s0-.32,0-.47,0-.28,0-.38h.33a3.79,3.79,0,0,1,0,.38c0,.15,0,.31,0,.48s0,.35,0,.51,0,.32,0,.45h0A2.78,2.78,0,0,1,115.84,5.58Z"/><path class="cls-1" d="M125.83,11.65a1.85,1.85,0,0,1-.46,0,1.35,1.35,0,0,1-1.16-.46,1.82,1.82,0,0,1-.34-1.14V4.9h-1.5V4.62h1.48v-2h.33v2h2V4.9h-2v5.2a1.31,1.31,0,0,0,.35,1,1.34,1.34,0,0,0,.91.31,2.11,2.11,0,0,0,.77-.14l0,.26A3.16,3.16,0,0,1,125.83,11.65Z"/><path class="cls-1" d="M134.58,11.7a2.57,2.57,0,0,1-1.67-.52,3.45,3.45,0,0,1-1-1.31,6.4,6.4,0,0,1-.5-1.77,13.8,13.8,0,0,1,0-3.78,6.4,6.4,0,0,1,.5-1.77,3.45,3.45,0,0,1,1-1.31,2.57,2.57,0,0,1,1.67-.52,2.54,2.54,0,0,1,1.66.52,3.47,3.47,0,0,1,1,1.31,6.39,6.39,0,0,1,.49,1.77,13.8,13.8,0,0,1,.14,1.89,13.8,13.8,0,0,1-.14,1.89,6.39,6.39,0,0,1-.49,1.77,3.47,3.47,0,0,1-1,1.31A2.54,2.54,0,0,1,134.58,11.7Zm0-10.68a2.24,2.24,0,0,0-1.16.28,2.47,2.47,0,0,0-.82.72,3.67,3.67,0,0,0-.53,1,8,8,0,0,0-.3,1.14,9.17,9.17,0,0,0-.13,1.12q0,.54,0,.93c0,.27,0,.58,0,.94a9.25,9.25,0,0,0,.13,1.11,8,8,0,0,0,.3,1.14,3.67,3.67,0,0,0,.53,1,2.47,2.47,0,0,0,.82.72,2.54,2.54,0,0,0,2.32,0,2.47,2.47,0,0,0,.82-.72,3.65,3.65,0,0,0,.52-1,8,8,0,0,0,.3-1.14,9.35,9.35,0,0,0,.14-1.11c0-.36,0-.67,0-.94s0-.57,0-.93a9.26,9.26,0,0,0-.14-1.12,8,8,0,0,0-.3-1.14,3.65,3.65,0,0,0-.52-1,2.47,2.47,0,0,0-.82-.72A2.24,2.24,0,0,0,134.58,1Z"/><path class="cls-1" d="M145.66,1.31l-4.42,10.21h-.36l4.5-10.32h-5.46V.9h5.74Z"/><path class="cls-1" d="M151.83,7.86v-.3h2.7v.3Z"/><path class="cls-1" d="M160.77,11.52V.9h.33V11.52Z"/><path class="cls-1" d="M165,5.58a3.28,3.28,0,0,1,.65-.64,3.2,3.2,0,0,1,.78-.4,3.16,3.16,0,0,1,.87-.13,2.54,2.54,0,0,1,1.2.26,2,2,0,0,1,.76.67,2.8,2.8,0,0,1,.41,1,4.72,4.72,0,0,1,.12,1.06v4.17h-.33V7.38a4.9,4.9,0,0,0-.09-.9,2.36,2.36,0,0,0-.34-.87A2,2,0,0,0,168.4,5a1.92,1.92,0,0,0-1.06-.27,2.43,2.43,0,0,0-1.07.24,2.37,2.37,0,0,0-.87.67,3.34,3.34,0,0,0-.59,1.05,4.45,4.45,0,0,0-.22,1.42v3.45h-.33V6c0-.16,0-.33,0-.49s0-.32,0-.47,0-.28,0-.38h.33a3.79,3.79,0,0,1,0,.38c0,.15,0,.31,0,.48s0,.35,0,.51,0,.32,0,.45h0A2.78,2.78,0,0,1,165,5.58Z"/><path class="cls-1" d="M175.48.35l-.3-.06-.31,0a1.36,1.36,0,0,0-.69.17,1.43,1.43,0,0,0-.46.42,2,2,0,0,0-.25.6,3,3,0,0,0-.07.67V4.62h1.87V4.9H173.4v6.62h-.32V4.9h-1.45V4.62h1.44V2.15a2.9,2.9,0,0,1,.16-1,1.51,1.51,0,0,1,.42-.66,1.4,1.4,0,0,1,.57-.34,2,2,0,0,1,.63-.1,2.4,2.4,0,0,1,.69.09Z"/><path class="cls-1" d="M183.64,8.06a3.94,3.94,0,0,1-.26,1.48,3.31,3.31,0,0,1-1.89,1.92,4.08,4.08,0,0,1-2.92,0,3.31,3.31,0,0,1-1.14-.76,3.39,3.39,0,0,1-.74-1.16,4.34,4.34,0,0,1,0-3,3.35,3.35,0,0,1,.74-1.15,3.43,3.43,0,0,1,1.14-.75,4.08,4.08,0,0,1,2.92,0,3.37,3.37,0,0,1,1.15.75,3.21,3.21,0,0,1,.74,1.15A3.9,3.9,0,0,1,183.64,8.06Zm-.33,0a3.79,3.79,0,0,0-.22-1.31,3.14,3.14,0,0,0-.65-1.07,2.94,2.94,0,0,0-1-.72,3.61,3.61,0,0,0-2.74,0,2.86,2.86,0,0,0-1,.72A3,3,0,0,0,177,6.75a4,4,0,0,0,0,2.63,3.1,3.1,0,0,0,.66,1.07,3,3,0,0,0,1,.72,3.61,3.61,0,0,0,2.74,0,3.08,3.08,0,0,0,1-.72,3.24,3.24,0,0,0,.65-1.07A3.81,3.81,0,0,0,183.31,8.06Z"/><path class="cls-1" d="M187.45,4.88a2.45,2.45,0,0,1,1.43-.47h.27v.29l-.11,0H189a2,2,0,0,0-1.12.3,2.43,2.43,0,0,0-.77.76,3.76,3.76,0,0,0-.44,1A4.58,4.58,0,0,0,186.48,8v3.57h-.33V6.36c0-.11,0-.24,0-.4s0-.33,0-.49,0-.32,0-.47,0-.28,0-.38h.33c0,.1,0,.23,0,.38s0,.31,0,.48,0,.35,0,.51v.45h0A2.73,2.73,0,0,1,187.45,4.88Z"/><path class="cls-1" d="M196.14,6.52a2.94,2.94,0,0,1,1-1.56,2.59,2.59,0,0,1,1.63-.55,2.47,2.47,0,0,1,1.17.26,2,2,0,0,1,.75.67,3,3,0,0,1,.39,1,4.72,4.72,0,0,1,.12,1.06v4.17h-.33V7.38a4.2,4.2,0,0,0-.1-.9,2.54,2.54,0,0,0-.33-.87,2,2,0,0,0-.65-.65,1.8,1.8,0,0,0-1-.27,2.21,2.21,0,0,0-1,.24,2.38,2.38,0,0,0-.82.67,3.3,3.3,0,0,0-.57,1.05,4.46,4.46,0,0,0-.21,1.42v3.45h-.33V7.38a4.84,4.84,0,0,0-.08-.9,2.73,2.73,0,0,0-.31-.87,1.92,1.92,0,0,0-.62-.65,1.75,1.75,0,0,0-1-.27,2.25,2.25,0,0,0-1,.24,2.47,2.47,0,0,0-.82.67,3.08,3.08,0,0,0-.55,1.05,4.46,4.46,0,0,0-.21,1.42v3.45h-.33V6c0-.16,0-.33,0-.49s0-.32,0-.47,0-.28,0-.38h.33c0,.1,0,.23,0,.38s0,.31,0,.48,0,.35,0,.51,0,.32,0,.45h0a3,3,0,0,1,.42-.86,3.34,3.34,0,0,1,.6-.64,3.12,3.12,0,0,1,.74-.4,2.81,2.81,0,0,1,.82-.13,2.46,2.46,0,0,1,.94.17,1.91,1.91,0,0,1,.66.44,2.51,2.51,0,0,1,.44.67,3.78,3.78,0,0,1,.24.83Z"/><path class="cls-1" d="M208.93,10a8.07,8.07,0,0,0,0,.83c0,.3.05.54.08.73h-.31a2.78,2.78,0,0,1-.05-.37q0-.21,0-.45c0-.15,0-.3,0-.45V9.87h-.05a2.42,2.42,0,0,1-1,1.4,2.94,2.94,0,0,1-2.41.34,2.32,2.32,0,0,1-.74-.36,1.87,1.87,0,0,1-.54-.61,1.92,1.92,0,0,1-.2-.89A1.78,1.78,0,0,1,204,8.56a2.56,2.56,0,0,1,1-.69,4.39,4.39,0,0,1,1.22-.33c.44,0,.83-.07,1.19-.07h1.2V6.92A2.12,2.12,0,0,0,208,5.23a2.36,2.36,0,0,0-1.61-.54,3,3,0,0,0-1.15.23,3.47,3.47,0,0,0-.95.6l-.18-.25a3.33,3.33,0,0,1,1.09-.64,3.42,3.42,0,0,1,1.19-.22,2.7,2.7,0,0,1,1.87.61,2.41,2.41,0,0,1,.68,1.91Zm-.33-2.21h-1.06c-.38,0-.78,0-1.2.07a4.58,4.58,0,0,0-1.16.28,2.15,2.15,0,0,0-.86.6A1.58,1.58,0,0,0,204,9.75a1.51,1.51,0,0,0,.67,1.32,2.15,2.15,0,0,0,.64.28,2.34,2.34,0,0,0,.67.09,2.61,2.61,0,0,0,1.28-.28,2.41,2.41,0,0,0,.82-.73,2.81,2.81,0,0,0,.42-1,4.82,4.82,0,0,0,.12-1Z"/><path class="cls-1" d="M214,11.65a1.93,1.93,0,0,1-.47,0,1.33,1.33,0,0,1-1.15-.46A1.82,1.82,0,0,1,212,10.1V4.9h-1.5V4.62H212v-2h.33v2h2V4.9h-2v5.2a1.31,1.31,0,0,0,.34,1,1.36,1.36,0,0,0,.92.31,2.06,2.06,0,0,0,.76-.14l0,.26A3.16,3.16,0,0,1,214,11.65Z"/><path class="cls-1" d="M216.45,2a.33.33,0,0,1-.24-.1.39.39,0,0,1-.11-.28.35.35,0,0,1,.11-.27.32.32,0,0,1,.48,0,.35.35,0,0,1,.1.27.39.39,0,0,1-.11.28A.34.34,0,0,1,216.45,2Zm-.17,9.5V4.62h.33v6.9Z"/><path class="cls-1" d="M226.29,8.06A3.94,3.94,0,0,1,226,9.54a3.31,3.31,0,0,1-1.89,1.92,3.83,3.83,0,0,1-1.46.27,3.78,3.78,0,0,1-1.45-.27,3.31,3.31,0,0,1-1.14-.76,3.41,3.41,0,0,1-.75-1.16,4.34,4.34,0,0,1,0-3,3.37,3.37,0,0,1,.75-1.15,3.43,3.43,0,0,1,1.14-.75,3.78,3.78,0,0,1,1.45-.27,3.83,3.83,0,0,1,1.46.27,3.37,3.37,0,0,1,1.15.75A3.21,3.21,0,0,1,226,6.58,3.9,3.9,0,0,1,226.29,8.06Zm-.33,0a3.8,3.8,0,0,0-.23-1.31,3.14,3.14,0,0,0-.65-1.07A2.94,2.94,0,0,0,224,5a3.32,3.32,0,0,0-1.37-.27,3.27,3.27,0,0,0-1.36.27,2.9,2.9,0,0,0-1,.72,3,3,0,0,0-.65,1.07,3.87,3.87,0,0,0,0,2.63,3.08,3.08,0,0,0,.65,1.07,3,3,0,0,0,1,.72,3.27,3.27,0,0,0,1.36.27,3.32,3.32,0,0,0,1.37-.27,3.08,3.08,0,0,0,1-.72,3.24,3.24,0,0,0,.65-1.07A3.81,3.81,0,0,0,226,8.06Z"/><path class="cls-1" d="M229.57,5.58a3.28,3.28,0,0,1,.65-.64,3.2,3.2,0,0,1,.78-.4,3.16,3.16,0,0,1,.87-.13,2.54,2.54,0,0,1,1.2.26,2,2,0,0,1,.76.67,2.8,2.8,0,0,1,.41,1,4.72,4.72,0,0,1,.12,1.06v4.17H234V7.38a4.9,4.9,0,0,0-.09-.9,2.55,2.55,0,0,0-.34-.87,2.08,2.08,0,0,0-.67-.65,1.92,1.92,0,0,0-1.06-.27,2.51,2.51,0,0,0-1.08.24,2.55,2.55,0,0,0-.87.67,3.32,3.32,0,0,0-.58,1.05,4.19,4.19,0,0,0-.22,1.42v3.45h-.33V6.36c0-.11,0-.24,0-.4s0-.33,0-.49,0-.32,0-.47,0-.28,0-.38h.33c0,.1,0,.23,0,.38s0,.31,0,.48,0,.35,0,.51,0,.32,0,.45h0A2.78,2.78,0,0,1,229.57,5.58Z"/><path class="cls-1" d="M250,6.21a5.78,5.78,0,0,1-.45,2.38,4.55,4.55,0,0,1-1.24,1.65,5.32,5.32,0,0,1-1.86,1,8.14,8.14,0,0,1-2.3.31h-3V.9h3a8.14,8.14,0,0,1,2.3.31,5,5,0,0,1,1.86,1,4.42,4.42,0,0,1,1.24,1.66A5.78,5.78,0,0,1,250,6.21Zm-8.53-5v10h2.6a8.24,8.24,0,0,0,2.2-.29,5.15,5.15,0,0,0,1.78-.9,4.38,4.38,0,0,0,1.19-1.55,5.41,5.41,0,0,0,.43-2.27,5.41,5.41,0,0,0-.43-2.27,4.16,4.16,0,0,0-1.19-1.56,5,5,0,0,0-1.78-.9,8.66,8.66,0,0,0-2.2-.28Z"/><path class="cls-1" d="M252.36,8a4.38,4.38,0,0,0,.18,1.24,3.49,3.49,0,0,0,.57,1.1,2.89,2.89,0,0,0,1,.79,3,3,0,0,0,1.38.3,3.18,3.18,0,0,0,1.44-.32,3.27,3.27,0,0,0,1.1-.94l.24.21a3.49,3.49,0,0,1-1.2,1,3.57,3.57,0,0,1-1.58.34,3.32,3.32,0,0,1-1.39-.28,3.13,3.13,0,0,1-1.09-.77,3.41,3.41,0,0,1-.71-1.18A4.54,4.54,0,0,1,252,8a4,4,0,0,1,.25-1.44,3.64,3.64,0,0,1,.7-1.14,3.12,3.12,0,0,1,2.34-1,3.41,3.41,0,0,1,1.41.28,3.2,3.2,0,0,1,1,.75,3.1,3.1,0,0,1,.6,1.06,3.87,3.87,0,0,1,.19,1.21V8Zm5.83-.29A3.69,3.69,0,0,0,258,6.48a2.94,2.94,0,0,0-.59-1,2.59,2.59,0,0,0-.9-.62,3.13,3.13,0,0,0-1.17-.22A2.59,2.59,0,0,0,254,5a3,3,0,0,0-.91.79,3.59,3.59,0,0,0-.51,1,3.11,3.11,0,0,0-.17.91Z"/><path class="cls-1" d="M264.85,9.72a1.84,1.84,0,0,1-.18.83,1.75,1.75,0,0,1-.49.62,1.83,1.83,0,0,1-.71.39,2.74,2.74,0,0,1-.87.14,3.32,3.32,0,0,1-1.39-.29,2.59,2.59,0,0,1-1-.87l.27-.17a2.52,2.52,0,0,0,2.16,1.05,2.17,2.17,0,0,0,.66-.11,2,2,0,0,0,.62-.31,1.92,1.92,0,0,0,.45-.53,1.53,1.53,0,0,0,.17-.72A1.26,1.26,0,0,0,264.3,9a1.56,1.56,0,0,0-.54-.48A3.37,3.37,0,0,0,263,8.2l-.74-.2a6.56,6.56,0,0,1-.71-.24,1.94,1.94,0,0,1-.58-.33,1.5,1.5,0,0,1-.39-.5,1.82,1.82,0,0,1-.14-.75,1.61,1.61,0,0,1,.18-.78,1.69,1.69,0,0,1,.48-.55,2.53,2.53,0,0,1,.68-.33,3,3,0,0,1,.78-.11,2.41,2.41,0,0,1,2.11,1l-.28.16a2.33,2.33,0,0,0-.78-.67,2.39,2.39,0,0,0-1.05-.22,2.61,2.61,0,0,0-.6.08,1.67,1.67,0,0,0-.58.25,1.39,1.39,0,0,0-.44.46,1.36,1.36,0,0,0-.17.69,1.65,1.65,0,0,0,.14.72,1.27,1.27,0,0,0,.4.43,2.75,2.75,0,0,0,.62.28c.24.07.5.15.79.21l.79.25a2.67,2.67,0,0,1,.67.36,1.56,1.56,0,0,1,.47.52A1.67,1.67,0,0,1,264.85,9.72Z"/><path class="cls-1" d="M267.36,2a.33.33,0,0,1-.24-.1.39.39,0,0,1-.11-.28.35.35,0,0,1,.11-.27.32.32,0,0,1,.48,0,.35.35,0,0,1,.1.27.39.39,0,0,1-.11.28A.34.34,0,0,1,267.36,2Zm-.17,9.5V4.62h.33v6.9Z"/><path class="cls-1" d="M276.58,9.66h0a2.92,2.92,0,0,1-.53.89,3.44,3.44,0,0,1-.73.65,3.89,3.89,0,0,1-.88.4,3.54,3.54,0,0,1-1,.13,3.39,3.39,0,0,1-1.39-.28,3.24,3.24,0,0,1-1.09-.76,3.42,3.42,0,0,1-.71-1.16,4.17,4.17,0,0,1,0-2.9A3.46,3.46,0,0,1,271,5.46,3.13,3.13,0,0,1,272,4.69a3.39,3.39,0,0,1,1.39-.28,3.25,3.25,0,0,1,1.82.53,3.35,3.35,0,0,1,1.29,1.56h0V4.62h.33v6.51a7.36,7.36,0,0,1-.17,1.58,3.8,3.8,0,0,1-.57,1.31,2.89,2.89,0,0,1-1.05.91,3.42,3.42,0,0,1-1.61.34,4.19,4.19,0,0,1-1.74-.34,3.65,3.65,0,0,1-1.31-.95l.23-.23a3.3,3.3,0,0,0,1.29.94,4,4,0,0,0,1.53.29,3,3,0,0,0,1.5-.33,2.44,2.44,0,0,0,.94-.86,3.88,3.88,0,0,0,.49-1.24,7.67,7.67,0,0,0,.14-1.45Zm-6.27-1.58a3.74,3.74,0,0,0,.22,1.3,3.21,3.21,0,0,0,.62,1.08,3,3,0,0,0,1,.73,3.05,3.05,0,0,0,1.3.27,3,3,0,0,0,1.27-.27,3.15,3.15,0,0,0,1-.73,3.48,3.48,0,0,0,.66-1.08,3.58,3.58,0,0,0,.24-1.31,3.53,3.53,0,0,0-.24-1.3,3.37,3.37,0,0,0-.66-1.08,3.48,3.48,0,0,0-1-.73,3.14,3.14,0,0,0-1.27-.27,3.06,3.06,0,0,0-1.3.28,3.09,3.09,0,0,0-1.6,1.82A3.8,3.8,0,0,0,270.31,8.08Z"/><path class="cls-1" d="M280.8,5.58a3.23,3.23,0,0,1,.64-.64,3.2,3.2,0,0,1,.78-.4,3.16,3.16,0,0,1,.87-.13,2.54,2.54,0,0,1,1.2.26,2,2,0,0,1,.77.67,2.78,2.78,0,0,1,.4,1,4.72,4.72,0,0,1,.12,1.06v4.17h-.33V7.38a4.9,4.9,0,0,0-.09-.9,2.36,2.36,0,0,0-.34-.87,1.94,1.94,0,0,0-1.73-.92,2.43,2.43,0,0,0-1.07.24,2.37,2.37,0,0,0-.87.67,3.34,3.34,0,0,0-.59,1.05,4.46,4.46,0,0,0-.21,1.42v3.45H280V6.36c0-.11,0-.24,0-.4s0-.33,0-.49,0-.32,0-.47,0-.28,0-.38h.33a3.79,3.79,0,0,1,0,.38c0,.15,0,.31,0,.48s0,.35,0,.51,0,.32,0,.45h0A2.8,2.8,0,0,1,280.8,5.58Z"/></g></g></svg>