<svg xmlns="http://www.w3.org/2000/svg" viewBox="0 0 75.78 98.52"><defs><style>.cls-1{fill:#fff;}</style></defs><g id="Layer_2" data-name="Layer 2"><g id="Layer_2-2" data-name="Layer 2"><path class="cls-1" d="M8.76,29.33a13.12,13.12,0,0,1,2-3.94,13.61,13.61,0,0,1,2.94-2.93,12.49,12.49,0,0,1,3.6-1.83,12.9,12.9,0,0,1,4-.62,11.8,11.8,0,0,1,5.54,1.17,9.69,9.69,0,0,1,3.53,3.11,12.87,12.87,0,0,1,1.87,4.35,21.78,21.78,0,0,1,.55,4.9V52.73H31.26v-19a22.37,22.37,0,0,0-.42-4.15,11,11,0,0,0-1.56-4,9.41,9.41,0,0,0-3.08-3,9.09,9.09,0,0,0-4.91-1.21,11.68,11.68,0,0,0-4.95,1.07,11.55,11.55,0,0,0-4,3.07,15.34,15.34,0,0,0-2.7,4.87,19.63,19.63,0,0,0-1,6.52V52.73H7.1V.54H8.62V29.33Z"/><path class="cls-1" d="M7.09,0H75.73V1.15H7.09Z"/><path class="cls-1" d="M1.15,0V69.78H0V0Z"/><path class="cls-1" d="M75.78.26v69.5H74.63V.26Z"/><path class="cls-1" d="M53,68.68a14.26,14.26,0,0,0,6.92-1.52,11.9,11.9,0,0,0,4.37-4,16.75,16.75,0,0,0,2.25-5.7,33.73,33.73,0,0,0,.65-6.66V44.17h-.2a13.88,13.88,0,0,1-2.43,4.11,15.86,15.86,0,0,1-3.39,3,15.44,15.44,0,0,1-4,1.83,16.35,16.35,0,0,1-4.47.62,15.94,15.94,0,0,1-6.4-1.28,15,15,0,0,1-5.05-3.52,16,16,0,0,1-3.29-5.32,18.29,18.29,0,0,1-1.18-6.66,18.7,18.7,0,0,1,1.18-6.7,16.23,16.23,0,0,1,3.29-5.38,14.92,14.92,0,0,1,5.05-3.56A15.93,15.93,0,0,1,52.6,20,15.22,15.22,0,0,1,66.94,29.6h.2V21h1.53v30a32.28,32.28,0,0,1-.8,7.25,17.27,17.27,0,0,1-2.63,6.07,13.16,13.16,0,0,1-4.85,4.18A14.34,14.34,0,0,1,53,69.81M38.2,36.92a17.65,17.65,0,0,0,1,5.94,15.3,15.3,0,0,0,2.87,5,13.53,13.53,0,0,0,4.54,3.38,13.94,13.94,0,0,0,6,1.25,13.61,13.61,0,0,0,5.85-1.25,14.22,14.22,0,0,0,4.61-3.38,15.9,15.9,0,0,0,3-5,16.8,16.8,0,0,0,0-12,15.42,15.42,0,0,0-3-4.94,14.59,14.59,0,0,0-4.61-3.35,14.51,14.51,0,0,0-11.83,0A14,14,0,0,0,42.08,26a15.41,15.41,0,0,0-2.87,5A17.65,17.65,0,0,0,38.2,36.92Z"/><path class="cls-1" d="M0,68.68h54v1.15H0Z"/><path class="cls-1" d="M11.64,72h.58V91.93h-.58V88.66h-.08A6,6,0,0,1,9.3,91.37a5.9,5.9,0,0,1-3.22.93,6.15,6.15,0,0,1-2.44-.49,5.89,5.89,0,0,1-1.93-1.35,6,6,0,0,1-1.26-2A7,7,0,0,1,0,85.89a7.18,7.18,0,0,1,.45-2.56,6.2,6.2,0,0,1,1.26-2,5.63,5.63,0,0,1,1.93-1.36,6,6,0,0,1,2.44-.49,6,6,0,0,1,3.22.92,6,6,0,0,1,2.26,2.74h.08ZM.58,85.89A6.65,6.65,0,0,0,1,88.16,5.42,5.42,0,0,0,2.07,90,5.17,5.17,0,0,0,3.8,91.32a5.29,5.29,0,0,0,2.28.47,5.2,5.2,0,0,0,2.24-.47A5.62,5.62,0,0,0,10.08,90a5.89,5.89,0,0,0,1.16-1.88,6.48,6.48,0,0,0,0-4.59,6.05,6.05,0,0,0-1.16-1.89,5.59,5.59,0,0,0-1.76-1.27,5.2,5.2,0,0,0-2.24-.48,5.15,5.15,0,0,0-2.28.49,5.22,5.22,0,0,0-1.73,1.3A5.71,5.71,0,0,0,1,83.62,6.65,6.65,0,0,0,.58,85.89Z"/><path class="cls-1" d="M17.13,85.73a7.46,7.46,0,0,0,.33,2.19,5.89,5.89,0,0,0,1,1.94,5.12,5.12,0,0,0,1.7,1.38,5.32,5.32,0,0,0,2.44.53,5.45,5.45,0,0,0,2.53-.57,5.6,5.6,0,0,0,1.93-1.65l.43.37a6.07,6.07,0,0,1-2.1,1.77,6.22,6.22,0,0,1-2.79.61,6.14,6.14,0,0,1-2.46-.49,5.83,5.83,0,0,1-1.92-1.36A5.94,5.94,0,0,1,17,88.37a7.78,7.78,0,0,1-.44-2.64A6.94,6.94,0,0,1,17,83.2a6.23,6.23,0,0,1,1.23-2,5.48,5.48,0,0,1,1.85-1.31,5.56,5.56,0,0,1,2.28-.46,5.85,5.85,0,0,1,2.49.5,5.2,5.2,0,0,1,1.76,1.32,5.34,5.34,0,0,1,1.05,1.86A7,7,0,0,1,28,85.23v.5Zm10.29-.5A6.43,6.43,0,0,0,27,83.07,5.32,5.32,0,0,0,26,81.39a4.73,4.73,0,0,0-1.58-1.08,5.47,5.47,0,0,0-2.06-.38A4.61,4.61,0,0,0,20,80.5a5.3,5.3,0,0,0-1.6,1.4,5.81,5.81,0,0,0-.91,1.74,5.38,5.38,0,0,0-.29,1.59Z"/><path class="cls-1" d="M39.16,88.76A3.22,3.22,0,0,1,38,91.32a3.84,3.84,0,0,1-1.26.69,5,5,0,0,1-1.53.23,5.7,5.7,0,0,1-2.44-.51,4.54,4.54,0,0,1-1.82-1.52l.48-.31a4.39,4.39,0,0,0,3.81,1.84,4,4,0,0,0,1.17-.18A3.63,3.63,0,0,0,37.48,91a2.82,2.82,0,0,0,.79-.92,2.61,2.61,0,0,0,.3-1.26,2.28,2.28,0,0,0-.38-1.38,2.88,2.88,0,0,0-1-.84,6.19,6.19,0,0,0-1.29-.51l-1.3-.36a12.22,12.22,0,0,1-1.25-.41,3.76,3.76,0,0,1-1-.58,2.37,2.37,0,0,1-.68-.88,3,3,0,0,1-.25-1.32,2.83,2.83,0,0,1,.31-1.37,2.92,2.92,0,0,1,.85-1,3.72,3.72,0,0,1,1.2-.58,4.92,4.92,0,0,1,1.36-.2,4.26,4.26,0,0,1,3.73,1.77l-.5.29A4,4,0,0,0,37,80.31a4.15,4.15,0,0,0-1.85-.38,4.43,4.43,0,0,0-1,.13,3.32,3.32,0,0,0-1,.44,2.46,2.46,0,0,0-.77.8,2.34,2.34,0,0,0-.3,1.21,2.71,2.71,0,0,0,.25,1.27,2,2,0,0,0,.7.76,4.15,4.15,0,0,0,1.08.49c.43.13.89.26,1.4.38s.94.27,1.39.44a5,5,0,0,1,1.19.62,2.68,2.68,0,0,1,.82.92A2.86,2.86,0,0,1,39.16,88.76Z"/><path class="cls-1" d="M43.57,75.24a.55.55,0,0,1-.42-.19.65.65,0,0,1-.19-.5.61.61,0,0,1,.19-.47.56.56,0,0,1,.84,0,.61.61,0,0,1,.19.47.65.65,0,0,1-.2.5A.58.58,0,0,1,43.57,75.24Zm-.29,16.69V79.8h.58V91.93Z"/><path class="cls-1" d="M59.83,88.66h-.08a5.22,5.22,0,0,1-.93,1.57,6,6,0,0,1-1.29,1.13,5.72,5.72,0,0,1-1.55.7,6.07,6.07,0,0,1-1.7.24,6.19,6.19,0,0,1-2.45-.49,5.89,5.89,0,0,1-1.93-1.35,6,6,0,0,1-1.25-2,7,7,0,0,1-.45-2.54,7.18,7.18,0,0,1,.45-2.56,6.17,6.17,0,0,1,1.25-2,5.63,5.63,0,0,1,1.93-1.36,6,6,0,0,1,2.45-.49,5.81,5.81,0,0,1,5.47,3.66h.08V79.8h.58V91.24a12.44,12.44,0,0,1-.3,2.77,6.68,6.68,0,0,1-1,2.32,4.86,4.86,0,0,1-1.85,1.59,6.06,6.06,0,0,1-2.84.6,7.47,7.47,0,0,1-3.07-.6A6.49,6.49,0,0,1,49,96.25l.4-.39a6,6,0,0,0,2.29,1.64,7,7,0,0,0,2.68.52,5.49,5.49,0,0,0,2.64-.58,4.57,4.57,0,0,0,1.67-1.53,6.5,6.5,0,0,0,.86-2.18,12.36,12.36,0,0,0,.25-2.54Zm-11-2.77a6.89,6.89,0,0,0,.38,2.27,5.73,5.73,0,0,0,1.1,1.89A5.19,5.19,0,0,0,52,91.35a5.45,5.45,0,0,0,2.29.47,5.3,5.3,0,0,0,2.23-.47,5.41,5.41,0,0,0,1.76-1.3,6.05,6.05,0,0,0,1.16-1.89,6.34,6.34,0,0,0,0-4.59,6.05,6.05,0,0,0-1.16-1.89,5.48,5.48,0,0,0-1.76-1.27,5.51,5.51,0,0,0-4.52,0,5.33,5.33,0,0,0-1.73,1.3,5.88,5.88,0,0,0-1.1,1.9A6.89,6.89,0,0,0,48.78,85.89Z"/><path class="cls-1" d="M67.26,81.49a5.21,5.21,0,0,1,1.13-1.12,5,5,0,0,1,1.38-.7,4.9,4.9,0,0,1,1.53-.24,4.5,4.5,0,0,1,2.12.45,3.78,3.78,0,0,1,1.35,1.18,5,5,0,0,1,.71,1.67,8.31,8.31,0,0,1,.21,1.87v7.33h-.58V84.65A8.22,8.22,0,0,0,75,83.07a4.24,4.24,0,0,0-.59-1.53,3.71,3.71,0,0,0-1.18-1.15,3.47,3.47,0,0,0-1.88-.46,4.49,4.49,0,0,0-1.89.41,4.35,4.35,0,0,0-1.53,1.17,5.75,5.75,0,0,0-1,1.86,7.39,7.39,0,0,0-.39,2.49v6.07h-.58V82.86c0-.2,0-.43,0-.71l0-.86c0-.29,0-.57,0-.83s0-.49,0-.66h.58c0,.17,0,.39,0,.66s0,.55,0,.86l0,.89c0,.29,0,.55,0,.78h0A4.84,4.84,0,0,1,67.26,81.49Z"/></g></g></svg>