<svg xmlns="http://www.w3.org/2000/svg" viewBox="0 0 422.32 58.24"><defs><style>.cls-1{fill:#fff;}</style></defs><g id="Layer_2" data-name="Layer 2"><g id="Layer_2-2" data-name="Layer 2"><path class="cls-1" d="M32,15.26a14.26,14.26,0,0,1-1.28,6.19,13,13,0,0,1-3.47,4.48,15.22,15.22,0,0,1-5.1,2.72,20,20,0,0,1-6.19.94H1.71V56.68H0V1.56H15a28.27,28.27,0,0,1,6,.66,16.71,16.71,0,0,1,5.48,2.22,12.15,12.15,0,0,1,4,4.2A12.87,12.87,0,0,1,32,15.26Zm-1.71,0A11.76,11.76,0,0,0,29,9.42a10.94,10.94,0,0,0-3.43-3.74,14.63,14.63,0,0,0-4.71-2A22,22,0,0,0,15.65,3H1.71V28.11H16a19.76,19.76,0,0,0,5.14-.7,13.14,13.14,0,0,0,4.59-2.26,11.64,11.64,0,0,0,3.27-4A12.86,12.86,0,0,0,30.29,15.26Z"/><path class="cls-1" d="M98.57,29.12a31.14,31.14,0,0,1-2.14,11.72A27.79,27.79,0,0,1,90.51,50a26.83,26.83,0,0,1-9,6,30.32,30.32,0,0,1-22.58,0,26.94,26.94,0,0,1-9-6A27.79,27.79,0,0,1,44,40.84a31.14,31.14,0,0,1-2.14-11.72A31.14,31.14,0,0,1,44,17.4,27.79,27.79,0,0,1,50,8.21a27.07,27.07,0,0,1,8.95-6,30.53,30.53,0,0,1,22.66,0,27,27,0,0,1,9,6,27.79,27.79,0,0,1,5.92,9.19A31.14,31.14,0,0,1,98.57,29.12Zm-1.71,0a29.48,29.48,0,0,0-2-10.78,26.36,26.36,0,0,0-5.48-8.76A25.78,25.78,0,0,0,81,3.7a28,28,0,0,0-21.49,0A25.67,25.67,0,0,0,51,9.58a26.54,26.54,0,0,0-5.49,8.76A29.48,29.48,0,0,0,43.6,29.12,30.11,30.11,0,0,0,45.51,39.9a26.35,26.35,0,0,0,5.41,8.76,25,25,0,0,0,8.41,5.88,26.91,26.91,0,0,0,10.9,2.14,26.91,26.91,0,0,0,10.9-2.14,24.92,24.92,0,0,0,8.41-5.88A26.19,26.19,0,0,0,95,39.9,30.11,30.11,0,0,0,96.86,29.12Z"/><path class="cls-1" d="M143.73,56.68,127.07,28.89H114.15V56.68h-1.72V1.56h15.26a36,36,0,0,1,6.16.54,15.52,15.52,0,0,1,5.56,2.07,11.86,11.86,0,0,1,4,4.16A13.38,13.38,0,0,1,145,15.18a12.8,12.8,0,0,1-1.48,6.47,12.53,12.53,0,0,1-3.82,4.16,15.68,15.68,0,0,1-5.17,2.3,23.1,23.1,0,0,1-5.57.7l16.74,27.87Zm-.46-41.5a11.59,11.59,0,0,0-1.4-5.95,10.44,10.44,0,0,0-3.7-3.74,16,16,0,0,0-5.3-1.91A34.37,34.37,0,0,0,126.76,3H114.15V27.41h13.47q7.62,0,11.64-3.19A10.9,10.9,0,0,0,143.27,15.18Z"/><path class="cls-1" d="M171.37,3.11V56.68h-1.71V3.11H150.9V1.56h39.24V3.11Z"/><path class="cls-1" d="M201.51,3.11V27.33h27.64v1.56H201.51V56.68h-1.72V1.56h31.46V3.11Z"/><path class="cls-1" d="M297.43,29.12a31.14,31.14,0,0,1-2.14,11.72A27.79,27.79,0,0,1,289.37,50a26.83,26.83,0,0,1-9,6,30.32,30.32,0,0,1-22.58,0,26.94,26.94,0,0,1-9-6,27.79,27.79,0,0,1-5.92-9.19,31.14,31.14,0,0,1-2.14-11.72,31.14,31.14,0,0,1,2.14-11.72,27.79,27.79,0,0,1,5.92-9.19,27.07,27.07,0,0,1,8.95-6,30.53,30.53,0,0,1,22.66,0,27,27,0,0,1,8.95,6,27.79,27.79,0,0,1,5.92,9.19A31.14,31.14,0,0,1,297.43,29.12Zm-1.71,0a29.48,29.48,0,0,0-2-10.78,26.22,26.22,0,0,0-5.49-8.76,25.63,25.63,0,0,0-8.44-5.88,28,28,0,0,0-21.49,0,25.67,25.67,0,0,0-8.45,5.88,26.54,26.54,0,0,0-5.49,8.76,29.48,29.48,0,0,0-1.95,10.78,30.11,30.11,0,0,0,1.91,10.78,26.35,26.35,0,0,0,5.41,8.76,25,25,0,0,0,8.41,5.88,28.83,28.83,0,0,0,21.8,0,24.92,24.92,0,0,0,8.41-5.88,26.19,26.19,0,0,0,5.41-8.76A30.11,30.11,0,0,0,295.72,29.12Z"/><path class="cls-1" d="M311.29,56.68V1.56H313V55.13h27.4v1.55Z"/><path class="cls-1" d="M350.07,56.68V1.56h1.71V56.68Z"/><path class="cls-1" d="M422.32,29.12a31.14,31.14,0,0,1-2.14,11.72A27.79,27.79,0,0,1,414.26,50a26.83,26.83,0,0,1-9,6,30.32,30.32,0,0,1-22.58,0,26.94,26.94,0,0,1-9-6,27.79,27.79,0,0,1-5.92-9.19,31.14,31.14,0,0,1-2.14-11.72,31.14,31.14,0,0,1,2.14-11.72,27.79,27.79,0,0,1,5.92-9.19,27.07,27.07,0,0,1,8.95-6,30.53,30.53,0,0,1,22.66,0,27,27,0,0,1,8.95,6,27.79,27.79,0,0,1,5.92,9.19A31.14,31.14,0,0,1,422.32,29.12Zm-1.71,0a29.48,29.48,0,0,0-1.95-10.78,26.22,26.22,0,0,0-5.49-8.76,25.63,25.63,0,0,0-8.44-5.88,28,28,0,0,0-21.49,0,25.67,25.67,0,0,0-8.45,5.88,26.54,26.54,0,0,0-5.49,8.76,29.48,29.48,0,0,0-1.95,10.78,30.11,30.11,0,0,0,1.91,10.78,26.35,26.35,0,0,0,5.41,8.76,25,25,0,0,0,8.41,5.88,28.83,28.83,0,0,0,21.8,0,24.92,24.92,0,0,0,8.41-5.88,26.19,26.19,0,0,0,5.41-8.76A30.11,30.11,0,0,0,420.61,29.12Z"/></g></g></svg>