<svg xmlns="http://www.w3.org/2000/svg" viewBox="0 0 82.87 11.98"><defs><style>.cls-1{fill:#fff;}</style></defs><g id="Layer_2" data-name="Layer 2"><g id="Layer_2-2" data-name="Layer 2"><path class="cls-1" d="M8.26,9.07H7.85L5.39.83h0L3,9.07H2.54L0,.58H.28L2.72,8.83h0L5.17.58h.41L8,8.83h0L10.52.58h.28Z"/><path class="cls-1" d="M11.71,6.25a3.41,3.41,0,0,0,.15,1,2.55,2.55,0,0,0,.46.88,2.27,2.27,0,0,0,.77.63A2.39,2.39,0,0,0,14.2,9a2.53,2.53,0,0,0,1.15-.26A2.48,2.48,0,0,0,16.22,8l.2.17a2.8,2.8,0,0,1-1,.8,2.66,2.66,0,0,1-1.26.28A2.73,2.73,0,0,1,13.08,9a2.6,2.6,0,0,1-.87-.62,2.72,2.72,0,0,1-.56-1,3.36,3.36,0,0,1-.2-1.2,3.31,3.31,0,0,1,.2-1.15,3,3,0,0,1,.56-.91,2.49,2.49,0,0,1,.84-.6,2.53,2.53,0,0,1,1-.21,2.62,2.62,0,0,1,1.13.23,2.31,2.31,0,0,1,.8.6,2.46,2.46,0,0,1,.48.85,3.15,3.15,0,0,1,.15,1v.23ZM16.38,6a2.8,2.8,0,0,0-.19-1,2.17,2.17,0,0,0-.47-.76A2,2,0,0,0,15,3.79a2.35,2.35,0,0,0-.94-.18A2.08,2.08,0,0,0,13,3.87a2.27,2.27,0,0,0-.73.64,2.39,2.39,0,0,0-.41.79,2.39,2.39,0,0,0-.14.72Z"/><path class="cls-1" d="M18.6,9.07V0h.26V9.07Z"/><path class="cls-1" d="M25.25,4.3a2.19,2.19,0,0,0-.73-.51,2.23,2.23,0,0,0-.88-.18,2.61,2.61,0,0,0-1.06.22,2.47,2.47,0,0,0-.79.6,2.65,2.65,0,0,0-.51.86,3,3,0,0,0-.18,1,3,3,0,0,0,.18,1,2.6,2.6,0,0,0,.51.85,2.44,2.44,0,0,0,.79.59A2.61,2.61,0,0,0,23.64,9a2.73,2.73,0,0,0,.89-.15,2.16,2.16,0,0,0,.77-.47l.18.17a2.2,2.2,0,0,1-.85.52,3,3,0,0,1-1,.16A2.73,2.73,0,0,1,22.52,9a2.59,2.59,0,0,1-.89-.6A2.65,2.65,0,0,1,21,7.5a3.22,3.22,0,0,1-.21-1.18A3.2,3.2,0,0,1,21,5.15a2.79,2.79,0,0,1,.59-.93,2.62,2.62,0,0,1,.89-.61,2.73,2.73,0,0,1,1.12-.23,2.59,2.59,0,0,1,1,.2,2.06,2.06,0,0,1,.81.54Z"/><path class="cls-1" d="M32.36,6.3a3.27,3.27,0,0,1-.21,1.19A2.59,2.59,0,0,1,30.64,9a3.19,3.19,0,0,1-2.33,0,2.58,2.58,0,0,1-.91-.6,2.66,2.66,0,0,1-.6-.93,3.27,3.27,0,0,1-.21-1.19,3.18,3.18,0,0,1,.21-1.18,2.62,2.62,0,0,1,.6-.92,2.58,2.58,0,0,1,.91-.6,3.19,3.19,0,0,1,2.33,0,2.61,2.61,0,0,1,1.51,1.52A3.18,3.18,0,0,1,32.36,6.3Zm-.26,0a3,3,0,0,0-.18-1,2.44,2.44,0,0,0-1.35-1.44,2.73,2.73,0,0,0-1.1-.21,2.68,2.68,0,0,0-1.09.21A2.46,2.46,0,0,0,27,5.26a3,3,0,0,0-.18,1A3.06,3.06,0,0,0,27,7.36a2.47,2.47,0,0,0,.52.85,2.57,2.57,0,0,0,.82.59A2.68,2.68,0,0,0,29.47,9a2.73,2.73,0,0,0,1.1-.21,2.61,2.61,0,0,0,.83-.59,2.47,2.47,0,0,0,.52-.85A3.06,3.06,0,0,0,32.1,6.3Z"/><path class="cls-1" d="M38.56,5.08a2.35,2.35,0,0,1,.81-1.26,2.13,2.13,0,0,1,1.31-.44,1.88,1.88,0,0,1,.93.21,1.56,1.56,0,0,1,.6.54,2.3,2.3,0,0,1,.32.75,4.12,4.12,0,0,1,.09.86V9.07h-.26V5.76A3.86,3.86,0,0,0,42.28,5a2,2,0,0,0-.27-.7,1.8,1.8,0,0,0-.51-.52,1.49,1.49,0,0,0-.82-.21,1.73,1.73,0,0,0-.81.19,2,2,0,0,0-.66.53,2.64,2.64,0,0,0-.45.85,3.58,3.58,0,0,0-.17,1.13V9.07h-.26V5.76A3.8,3.8,0,0,0,38.26,5a2,2,0,0,0-.24-.7,1.65,1.65,0,0,0-.5-.52,1.43,1.43,0,0,0-.81-.21,1.73,1.73,0,0,0-.81.19,2,2,0,0,0-.66.53,2.64,2.64,0,0,0-.45.85,3.9,3.9,0,0,0-.16,1.13V9.07h-.26V4.94c0-.08,0-.19,0-.32s0-.26,0-.39,0-.26,0-.38,0-.22,0-.3h.26a2.36,2.36,0,0,1,0,.3c0,.12,0,.25,0,.39s0,.28,0,.41,0,.25,0,.35h0A2.55,2.55,0,0,1,35,4.32a2.38,2.38,0,0,1,.49-.51,1.94,1.94,0,0,1,.58-.32,2.12,2.12,0,0,1,.66-.11,1.89,1.89,0,0,1,.75.14,1.32,1.32,0,0,1,.53.36,1.75,1.75,0,0,1,.35.53,2.75,2.75,0,0,1,.19.67Z"/><path class="cls-1" d="M44.78,6.25a3.41,3.41,0,0,0,.15,1,2.74,2.74,0,0,0,.46.88,2.27,2.27,0,0,0,.77.63A2.42,2.42,0,0,0,47.27,9a2.44,2.44,0,0,0,2-1l.19.17a2.71,2.71,0,0,1-1,.8,2.66,2.66,0,0,1-1.26.28A2.73,2.73,0,0,1,46.15,9a2.82,2.82,0,0,1-.87-.62,2.72,2.72,0,0,1-.56-1,3.6,3.6,0,0,1-.2-1.2,3.31,3.31,0,0,1,.2-1.15,3,3,0,0,1,.56-.91,2.49,2.49,0,0,1,.84-.6,2.56,2.56,0,0,1,1-.21,2.62,2.62,0,0,1,1.13.23,2.41,2.41,0,0,1,1.28,1.45,3.17,3.17,0,0,1,.16,1v.23ZM49.45,6a3,3,0,0,0-.18-1,2.35,2.35,0,0,0-.48-.76,2,2,0,0,0-.72-.49,2.34,2.34,0,0,0-.93-.18,2.09,2.09,0,0,0-1.07.26,2.27,2.27,0,0,0-.73.64,2.59,2.59,0,0,0-.41.79A2.34,2.34,0,0,0,44.8,6Z"/><path class="cls-1" d="M56.46,9.18a2.46,2.46,0,0,1-.37,0,1.12,1.12,0,0,1-.93-.37,1.5,1.5,0,0,1-.27-.92V3.78h-1.2V3.55h1.19V1.93h.26V3.55h1.62v.23H55.14V7.93a.93.93,0,0,0,1,1.06,1.7,1.7,0,0,0,.61-.11l0,.2A1.52,1.52,0,0,1,56.46,9.18Z"/><path class="cls-1" d="M63.61,6.3a3.27,3.27,0,0,1-.21,1.19,2.79,2.79,0,0,1-.59.93,2.62,2.62,0,0,1-.92.6,3,3,0,0,1-1.17.22A2.92,2.92,0,0,1,59.56,9a2.62,2.62,0,0,1-.92-.6,2.79,2.79,0,0,1-.59-.93,3.27,3.27,0,0,1-.21-1.19,3.18,3.18,0,0,1,.21-1.18,2.74,2.74,0,0,1,.59-.92,2.62,2.62,0,0,1,.92-.6,3.11,3.11,0,0,1,1.16-.22,3.2,3.2,0,0,1,1.17.22,2.62,2.62,0,0,1,.92.6,2.74,2.74,0,0,1,.59.92A3.18,3.18,0,0,1,63.61,6.3Zm-.26,0a3,3,0,0,0-.18-1,2.57,2.57,0,0,0-.52-.86,2.44,2.44,0,0,0-.83-.58,2.77,2.77,0,0,0-1.1-.21,2.68,2.68,0,0,0-1.09.21,2.31,2.31,0,0,0-.82.58,2.44,2.44,0,0,0-.53.86,3,3,0,0,0-.18,1,3.06,3.06,0,0,0,.18,1.06,2.49,2.49,0,0,0,.53.85,2.46,2.46,0,0,0,.82.59A2.68,2.68,0,0,0,60.72,9a2.77,2.77,0,0,0,1.1-.21,2.51,2.51,0,0,0,1.35-1.44A3.06,3.06,0,0,0,63.35,6.3Z"/><path class="cls-1" d="M72.8,5.08a2.37,2.37,0,0,1,.82-1.26,2.11,2.11,0,0,1,1.31-.44,1.88,1.88,0,0,1,.93.21,1.56,1.56,0,0,1,.6.54,2.3,2.3,0,0,1,.32.75,4.12,4.12,0,0,1,.09.86V9.07h-.26V5.76A3.86,3.86,0,0,0,76.53,5a2,2,0,0,0-.27-.7,1.72,1.72,0,0,0-.52-.52,1.43,1.43,0,0,0-.81-.21,1.73,1.73,0,0,0-.81.19,2,2,0,0,0-.66.53,2.64,2.64,0,0,0-.45.85,3.58,3.58,0,0,0-.17,1.13V9.07h-.26V5.76A4.85,4.85,0,0,0,72.51,5a2,2,0,0,0-.25-.7,1.62,1.62,0,0,0-.49-.52A1.48,1.48,0,0,0,71,3.61a1.73,1.73,0,0,0-.81.19,1.78,1.78,0,0,0-.66.53,2.64,2.64,0,0,0-.45.85,3.59,3.59,0,0,0-.16,1.13V9.07h-.26V4.94c0-.08,0-.19,0-.32s0-.26,0-.39,0-.26,0-.38,0-.22,0-.3h.26c0,.08,0,.18,0,.3s0,.25,0,.39,0,.28,0,.41,0,.25,0,.35h0a2.28,2.28,0,0,1,.34-.68,2.34,2.34,0,0,1,.48-.51,2,2,0,0,1,.59-.32A2.08,2.08,0,0,1,71,3.38a2,2,0,0,1,.75.14,1.32,1.32,0,0,1,.53.36,2,2,0,0,1,.35.53,2.75,2.75,0,0,1,.19.67Z"/><path class="cls-1" d="M80.14,10.9a1.93,1.93,0,0,1-.51.79,1.22,1.22,0,0,1-.83.29l-.25,0a.84.84,0,0,1-.24-.06l.07-.23.2.05.25,0a1,1,0,0,0,.44-.1,1,1,0,0,0,.31-.25,1.36,1.36,0,0,0,.23-.34c.06-.13.11-.25.16-.38l.53-1.44L78.31,3.55h.29l2,5.38,2-5.38h.29Z"/></g></g></svg>