<svg xmlns="http://www.w3.org/2000/svg" viewBox="0 0 111.57 15.27"><defs><style>.cls-1{fill:#fff;}</style></defs><g id="Layer_2" data-name="Layer 2"><g id="Layer_1-2" data-name="Layer 1"><path class="cls-1" d="M8.87,6.21a5.78,5.78,0,0,1-.45,2.38,4.58,4.58,0,0,1-1.25,1.65,5.3,5.3,0,0,1-1.86,1,8.14,8.14,0,0,1-2.3.32H0V.9H3a8.14,8.14,0,0,1,2.3.31,5,5,0,0,1,1.86,1A4.41,4.41,0,0,1,8.42,3.82,5.82,5.82,0,0,1,8.87,6.21ZM.33,1.2v10h2.6a8.18,8.18,0,0,0,2.2-.29A5.06,5.06,0,0,0,6.91,10,4.33,4.33,0,0,0,8.1,8.47a5.36,5.36,0,0,0,.44-2.26A5.41,5.41,0,0,0,8.1,3.94,4.16,4.16,0,0,0,6.91,2.38a4.75,4.75,0,0,0-1.78-.9,8.18,8.18,0,0,0-2.2-.28Z"/><path class="cls-1" d="M18.1,8.05a4,4,0,0,1-.26,1.49A3.31,3.31,0,0,1,16,11.46a3.83,3.83,0,0,1-1.46.27A3.78,3.78,0,0,1,13,11.46a3.13,3.13,0,0,1-1.14-.76,3.27,3.27,0,0,1-.75-1.16,4.2,4.2,0,0,1-.26-1.49,4,4,0,0,1,.26-1.47A3.35,3.35,0,0,1,13,4.68a3.78,3.78,0,0,1,1.45-.27A3.83,3.83,0,0,1,16,4.68a3.37,3.37,0,0,1,1.15.75,3.21,3.21,0,0,1,.74,1.15A3.85,3.85,0,0,1,18.1,8.05Zm-.33,0a3.74,3.74,0,0,0-.22-1.3,3.14,3.14,0,0,0-.65-1.07,2.94,2.94,0,0,0-1-.72,3.61,3.61,0,0,0-2.74,0,3,3,0,0,0-1,.72,3,3,0,0,0-.66,1.07,3.74,3.74,0,0,0-.22,1.3,3.91,3.91,0,0,0,.22,1.33,3.1,3.1,0,0,0,.66,1.07,3.25,3.25,0,0,0,1,.72,3.61,3.61,0,0,0,2.74,0,3,3,0,0,0,1.69-1.79A3.91,3.91,0,0,0,17.77,8.05Z"/><path class="cls-1" d="M26.56,9.66h0a3.11,3.11,0,0,1-.52.89,3.75,3.75,0,0,1-.74.65,3.32,3.32,0,0,1-.88.39,3.43,3.43,0,0,1-1,.14A3.35,3.35,0,0,1,22,11.45a3.28,3.28,0,0,1-1.1-.76,3.58,3.58,0,0,1-.71-1.16A4,4,0,0,1,20,8.08a4.05,4.05,0,0,1,.25-1.45,3.63,3.63,0,0,1,.71-1.17A3.17,3.17,0,0,1,22,4.69a3.51,3.51,0,0,1,3.21.24,3.44,3.44,0,0,1,1.28,1.56h0V4.62h.34v6.51a6.69,6.69,0,0,1-.18,1.57A3.58,3.58,0,0,1,26.15,14a2.74,2.74,0,0,1-1,.91,3.4,3.4,0,0,1-1.61.34,4.19,4.19,0,0,1-1.74-.34,3.62,3.62,0,0,1-1.3-.95l.22-.23a3.36,3.36,0,0,0,1.3.94,3.92,3.92,0,0,0,1.52.29,3.08,3.08,0,0,0,1.5-.33,2.58,2.58,0,0,0,1-.87,3.51,3.51,0,0,0,.48-1.23,6.92,6.92,0,0,0,.14-1.45ZM20.29,8.08a4.08,4.08,0,0,0,.22,1.3,3.36,3.36,0,0,0,.63,1.07,2.89,2.89,0,0,0,1,.74,3,3,0,0,0,1.3.27,2.91,2.91,0,0,0,1.26-.27,3.07,3.07,0,0,0,1-.74,3.44,3.44,0,0,0,.66-1.07,3.62,3.62,0,0,0,.24-1.31,3.58,3.58,0,0,0-.24-1.31,3.44,3.44,0,0,0-.66-1.07,3.19,3.19,0,0,0-1-.73,2.91,2.91,0,0,0-1.26-.27,3,3,0,0,0-2.28,1,3.41,3.41,0,0,0-.63,1.08A4,4,0,0,0,20.29,8.08Z"/><path class="cls-1" d="M36.39.34l-.3-.05-.32,0a1.35,1.35,0,0,0-.69.16,1.33,1.33,0,0,0-.45.43,1.72,1.72,0,0,0-.25.59,3.08,3.08,0,0,0-.08.68V4.62h1.88V4.9H34.3v6.62H34V4.9H32.53V4.62H34V2.14a3.18,3.18,0,0,1,.16-1,1.79,1.79,0,0,1,.42-.66A1.48,1.48,0,0,1,35.13.1a2,2,0,0,1,.63-.1,2.4,2.4,0,0,1,.69.09Z"/><path class="cls-1" d="M44.55,8.05a4.2,4.2,0,0,1-.26,1.49,3.41,3.41,0,0,1-.75,1.16,3.31,3.31,0,0,1-1.14.76,3.92,3.92,0,0,1-1.47.27,3.78,3.78,0,0,1-1.45-.27,3.31,3.31,0,0,1-1.14-.76,3.25,3.25,0,0,1-.74-1.16,4,4,0,0,1-.27-1.49,3.85,3.85,0,0,1,.27-1.47,3.21,3.21,0,0,1,.74-1.15,3.43,3.43,0,0,1,1.14-.75,3.78,3.78,0,0,1,1.45-.27,3.92,3.92,0,0,1,1.47.27,3.43,3.43,0,0,1,1.14.75,3.37,3.37,0,0,1,.75,1.15A4,4,0,0,1,44.55,8.05Zm-.33,0A3.52,3.52,0,0,0,44,6.75a3,3,0,0,0-.65-1.07,2.9,2.9,0,0,0-1-.72,3.4,3.4,0,0,0-1.38-.27A3.27,3.27,0,0,0,39.57,5a3,3,0,0,0-1,.72,3.14,3.14,0,0,0-.65,1.07,3.74,3.74,0,0,0-.23,1.3,3.91,3.91,0,0,0,.23,1.33,3.24,3.24,0,0,0,.65,1.07,3.21,3.21,0,0,0,2.39,1,3.4,3.4,0,0,0,1.38-.27,3.18,3.18,0,0,0,1-.72A3.08,3.08,0,0,0,44,9.38,3.68,3.68,0,0,0,44.22,8.05Z"/><path class="cls-1" d="M53.62,8.05a4,4,0,0,1-.26,1.49,3.31,3.31,0,0,1-1.89,1.92,4.08,4.08,0,0,1-2.92,0,3.31,3.31,0,0,1-1.14-.76,3.39,3.39,0,0,1-.74-1.16,4.2,4.2,0,0,1-.26-1.49,4,4,0,0,1,.26-1.47,3.35,3.35,0,0,1,.74-1.15,3.43,3.43,0,0,1,1.14-.75,4.08,4.08,0,0,1,2.92,0,3.37,3.37,0,0,1,1.15.75,3.21,3.21,0,0,1,.74,1.15A3.85,3.85,0,0,1,53.62,8.05Zm-.33,0a3.74,3.74,0,0,0-.22-1.3,3.14,3.14,0,0,0-.65-1.07,2.94,2.94,0,0,0-1-.72,3.61,3.61,0,0,0-2.74,0,2.86,2.86,0,0,0-1,.72A3,3,0,0,0,47,6.75a3.74,3.74,0,0,0-.22,1.3A3.91,3.91,0,0,0,47,9.38a3.1,3.1,0,0,0,.66,1.07,3.14,3.14,0,0,0,1,.72,3.61,3.61,0,0,0,2.74,0,3,3,0,0,0,1.69-1.79A3.91,3.91,0,0,0,53.29,8.05Z"/><path class="cls-1" d="M62.08.18h.33V11.52h-.33V9.66h0a3.33,3.33,0,0,1-3.11,2.07,3.42,3.42,0,0,1-2.48-1,3.58,3.58,0,0,1-.71-1.16,4.17,4.17,0,0,1,0-2.9,3.63,3.63,0,0,1,.71-1.17,3.17,3.17,0,0,1,1.1-.77,3.31,3.31,0,0,1,1.38-.28,3.38,3.38,0,0,1,1.83.52A3.44,3.44,0,0,1,62,6.49h0Zm-6.27,7.9A4.08,4.08,0,0,0,56,9.38a3.34,3.34,0,0,0,.62,1.07,3,3,0,0,0,1,.72,3.17,3.17,0,0,0,2.56,0,3.16,3.16,0,0,0,1-.72,3.44,3.44,0,0,0,.66-1.07,3.62,3.62,0,0,0,.24-1.31,3.58,3.58,0,0,0-.24-1.31,3.44,3.44,0,0,0-.66-1.07,3.19,3.19,0,0,0-1-.73,3,3,0,0,0-1.27-.27A3,3,0,0,0,57.64,5a3.06,3.06,0,0,0-1,.74A3.39,3.39,0,0,0,56,6.79,4,4,0,0,0,55.81,8.08Z"/><path class="cls-1" d="M75.22.18h.33V11.52h-.33V9.66h0a3.33,3.33,0,0,1-3.11,2.07,3.42,3.42,0,0,1-2.48-1,3.58,3.58,0,0,1-.71-1.16,4.17,4.17,0,0,1,0-2.9,3.63,3.63,0,0,1,.71-1.17,3.17,3.17,0,0,1,1.1-.77,3.31,3.31,0,0,1,1.38-.28,3.38,3.38,0,0,1,1.83.52,3.44,3.44,0,0,1,1.28,1.56h0ZM69,8.08a4.08,4.08,0,0,0,.22,1.3,3.34,3.34,0,0,0,.62,1.07,3,3,0,0,0,1,.72,3.17,3.17,0,0,0,2.56,0,3.16,3.16,0,0,0,1-.72A3.44,3.44,0,0,0,75,9.38a3.62,3.62,0,0,0,.24-1.31A3.58,3.58,0,0,0,75,6.76a3.44,3.44,0,0,0-.66-1.07,3.19,3.19,0,0,0-1-.73,3,3,0,0,0-1.27-.27A3,3,0,0,0,70.78,5a3.06,3.06,0,0,0-1,.74,3.39,3.39,0,0,0-.62,1.08A4,4,0,0,0,69,8.08Z"/><path class="cls-1" d="M78.34,8a4.46,4.46,0,0,0,.19,1.25,3.49,3.49,0,0,0,.57,1.1,2.89,2.89,0,0,0,1,.79,3,3,0,0,0,1.38.3,3.18,3.18,0,0,0,1.44-.32A3.24,3.24,0,0,0,84,10.17l.24.21a3.33,3.33,0,0,1-2.77,1.35,3.37,3.37,0,0,1-1.4-.28A3.09,3.09,0,0,1,79,10.68a3.37,3.37,0,0,1-.71-1.19A4.49,4.49,0,0,1,78,8a4,4,0,0,1,.26-1.44A3.47,3.47,0,0,1,79,5.41a3.09,3.09,0,0,1,1-.74,3.35,3.35,0,0,1,1.3-.26,3.26,3.26,0,0,1,1.41.28,3,3,0,0,1,1,.75,3.07,3.07,0,0,1,.59,1.06,3.88,3.88,0,0,1,.2,1.21V8Zm5.84-.28A3.69,3.69,0,0,0,84,6.48a3,3,0,0,0-.6-1,2.59,2.59,0,0,0-.9-.62,3.13,3.13,0,0,0-1.17-.22A2.55,2.55,0,0,0,80,5a3,3,0,0,0-.91.79,3.63,3.63,0,0,0-.52,1,3.06,3.06,0,0,0-.16.91Z"/><path class="cls-1" d="M90.84,9.72a1.84,1.84,0,0,1-.18.83,1.75,1.75,0,0,1-.49.62,2.13,2.13,0,0,1-.71.39,2.74,2.74,0,0,1-.87.14,3.32,3.32,0,0,1-1.39-.29,2.7,2.7,0,0,1-1-.87l.27-.18a2.49,2.49,0,0,0,2.16,1.05,2.22,2.22,0,0,0,.67-.1,2,2,0,0,0,.62-.32,1.75,1.75,0,0,0,.45-.52,1.53,1.53,0,0,0,.17-.72A1.26,1.26,0,0,0,90.29,9a1.59,1.59,0,0,0-.55-.48A3.29,3.29,0,0,0,89,8.2L88.27,8a6.38,6.38,0,0,1-.7-.23A1.94,1.94,0,0,1,87,7.43a1.5,1.5,0,0,1-.39-.5,1.82,1.82,0,0,1-.14-.75,1.61,1.61,0,0,1,.18-.78,1.69,1.69,0,0,1,.48-.55,2.53,2.53,0,0,1,.68-.33,2.92,2.92,0,0,1,.77-.11,2.44,2.44,0,0,1,2.12,1l-.29.17a2.33,2.33,0,0,0-.78-.67,2.39,2.39,0,0,0-1.05-.22,2.61,2.61,0,0,0-.6.08A1.63,1.63,0,0,0,87.4,5a1.45,1.45,0,0,0-.44.45,1.38,1.38,0,0,0-.17.69,1.62,1.62,0,0,0,.14.72,1.21,1.21,0,0,0,.4.44,2.66,2.66,0,0,0,.61.28c.24.07.51.15.8.21s.53.16.79.25a3,3,0,0,1,.67.35,1.59,1.59,0,0,1,.47.53A1.67,1.67,0,0,1,90.84,9.72Z"/><path class="cls-1" d="M93.34,2a.33.33,0,0,1-.24-.1.39.39,0,0,1-.1-.29.36.36,0,0,1,.1-.27.34.34,0,0,1,.48,0,.37.37,0,0,1,.11.27.4.4,0,0,1-.11.29A.36.36,0,0,1,93.34,2Zm-.16,9.5V4.62h.33v6.9Z"/><path class="cls-1" d="M102.57,9.66h0a2.9,2.9,0,0,1-.52.89,3.49,3.49,0,0,1-.74.65,3.41,3.41,0,0,1-.87.39,3.55,3.55,0,0,1-1,.14A3.39,3.39,0,0,1,98,11.45a3.24,3.24,0,0,1-1.09-.76,3.44,3.44,0,0,1-.72-1.16A4,4,0,0,1,96,8.08a4.05,4.05,0,0,1,.25-1.45,3.49,3.49,0,0,1,.72-1.17A3.13,3.13,0,0,1,98,4.69a3.39,3.39,0,0,1,1.39-.28,3.33,3.33,0,0,1,1.82.52,3.38,3.38,0,0,1,1.28,1.56h0V4.62h.33v6.51a7.26,7.26,0,0,1-.17,1.57,3.94,3.94,0,0,1-.57,1.32,2.89,2.89,0,0,1-1,.91,3.47,3.47,0,0,1-1.62.34,4.19,4.19,0,0,1-1.74-.34,3.62,3.62,0,0,1-1.3-.95l.22-.23a3.43,3.43,0,0,0,1.3.94,4,4,0,0,0,1.52.29,3.08,3.08,0,0,0,1.5-.33,2.58,2.58,0,0,0,1-.87,3.73,3.73,0,0,0,.49-1.23,7.67,7.67,0,0,0,.14-1.45ZM96.3,8.08a3.82,3.82,0,0,0,.22,1.3,3.16,3.16,0,0,0,.62,1.07,3,3,0,0,0,1,.74,3.05,3.05,0,0,0,1.3.27,3,3,0,0,0,1.27-.27,3.14,3.14,0,0,0,1-.74,3.44,3.44,0,0,0,.66-1.07,3.62,3.62,0,0,0,.24-1.31,3.58,3.58,0,0,0-.24-1.31,3.44,3.44,0,0,0-.66-1.07,3.26,3.26,0,0,0-1-.73,3,3,0,0,0-1.27-.27,3.06,3.06,0,0,0-1.3.28,3.13,3.13,0,0,0-1,.74,3.21,3.21,0,0,0-.62,1.08A3.76,3.76,0,0,0,96.3,8.08Z"/><path class="cls-1" d="M106.78,5.58a3.28,3.28,0,0,1,.65-.64,2.88,2.88,0,0,1,.78-.4,2.82,2.82,0,0,1,.87-.13,2.54,2.54,0,0,1,1.2.25,2.09,2.09,0,0,1,.76.68,2.75,2.75,0,0,1,.41.94,4.81,4.81,0,0,1,.12,1.07v4.17h-.33V7.38a4.9,4.9,0,0,0-.09-.9,2.36,2.36,0,0,0-.34-.87,2,2,0,0,0-.67-.65,1.92,1.92,0,0,0-1.06-.27,2.43,2.43,0,0,0-1.07.24,2.34,2.34,0,0,0-.87.66,3.39,3.39,0,0,0-.59,1.06,4.45,4.45,0,0,0-.22,1.42v3.45H106V6c0-.16,0-.32,0-.48s0-.33,0-.48,0-.27,0-.37h.33a3.57,3.57,0,0,1,0,.37c0,.15,0,.32,0,.49s0,.35,0,.51,0,.31,0,.44h0A2.72,2.72,0,0,1,106.78,5.58Z"/></g></g></svg>