<svg xmlns="http://www.w3.org/2000/svg" viewBox="0 0 228.01 15.12"><defs><style>.cls-1{fill:#fff;}</style></defs><g id="Layer_2" data-name="Layer 2"><g id="Layer_1-2" data-name="Layer 1"><path class="cls-1" d="M5.25,9.69h0L8.82.9h1.65V11.52H9.39V2.29h0L5.52,11.52H5L1.11,2.29h0v9.23H0V.9H1.65Z"/><path class="cls-1" d="M20.21,8a3.93,3.93,0,0,1-.28,1.47,3.61,3.61,0,0,1-.77,1.17,3.44,3.44,0,0,1-1.19.77,3.94,3.94,0,0,1-1.51.28,3.89,3.89,0,0,1-1.5-.28,3.42,3.42,0,0,1-2-1.94A3.74,3.74,0,0,1,12.72,8,3.74,3.74,0,0,1,13,6.54,3.42,3.42,0,0,1,15,4.6a3.89,3.89,0,0,1,1.5-.28A3.94,3.94,0,0,1,18,4.6a3.44,3.44,0,0,1,1.19.77,3.61,3.61,0,0,1,.77,1.17A3.93,3.93,0,0,1,20.21,8ZM19.12,8a3.3,3.3,0,0,0-.18-1.1,2.86,2.86,0,0,0-.53-.9,2.72,2.72,0,0,0-3.06-.61A2.58,2.58,0,0,0,14,6.91a3.28,3.28,0,0,0,0,2.2,2.52,2.52,0,0,0,.53.9,2.36,2.36,0,0,0,.83.6,2.62,2.62,0,0,0,1.11.22,2.57,2.57,0,0,0,1.1-.22,2.43,2.43,0,0,0,.85-.6,2.86,2.86,0,0,0,.53-.9A3.3,3.3,0,0,0,19.12,8Z"/><path class="cls-1" d="M27.45,6.1a1.91,1.91,0,0,0-.74-.66,2.17,2.17,0,0,0-1.06-.27,2.82,2.82,0,0,0-1.11.22,2.73,2.73,0,0,0-.85.6,2.92,2.92,0,0,0-.54.9A3.42,3.42,0,0,0,23,8a3.31,3.31,0,0,0,.19,1.11,2.92,2.92,0,0,0,.53.89,2.43,2.43,0,0,0,.85.6,2.57,2.57,0,0,0,1.1.22,2.24,2.24,0,0,0,1.91-.92l.76.57a3.3,3.3,0,0,1-1.1.89,3.41,3.41,0,0,1-1.57.33,4,4,0,0,1-1.54-.28,3.34,3.34,0,0,1-1.93-1.94A3.74,3.74,0,0,1,21.88,8a3.74,3.74,0,0,1,.28-1.47A3.34,3.34,0,0,1,24.09,4.6a4,4,0,0,1,1.54-.28,3.63,3.63,0,0,1,1.44.31,2.73,2.73,0,0,1,1.18.91Z"/><path class="cls-1" d="M31,7.66h0L34.23,4.5H35.7L32.16,7.71l3.9,3.81h-1.5L31,7.83h0v3.69h-1V.18h1Z"/><path class="cls-1" d="M42.46,11.52c0-.19,0-.4,0-.63s0-.42,0-.57h0a2.41,2.41,0,0,1-1,1A2.92,2.92,0,0,1,40,11.7a2.47,2.47,0,0,1-2-.8,3.17,3.17,0,0,1-.67-2.1V4.5h1V8.38a4.49,4.49,0,0,0,.1,1,2,2,0,0,0,.3.77,1.44,1.44,0,0,0,.59.5,1.94,1.94,0,0,0,.92.18,2,2,0,0,0,.79-.16,2,2,0,0,0,.68-.5,2.54,2.54,0,0,0,.48-.86,3.69,3.69,0,0,0,.18-1.22V4.5h1V10c0,.19,0,.44,0,.74s0,.57,0,.81Z"/><path class="cls-1" d="M47.1,15.12h-1V4.5h1V5.71h0a2.8,2.8,0,0,1,1.17-1,3.37,3.37,0,0,1,1.47-.35,3.82,3.82,0,0,1,1.5.28,3.37,3.37,0,0,1,1.87,2A3.9,3.9,0,0,1,53.41,8a3.85,3.85,0,0,1-.26,1.45,3.37,3.37,0,0,1-1.87,1.95,3.82,3.82,0,0,1-1.5.29,3.37,3.37,0,0,1-1.47-.35,2.83,2.83,0,0,1-1.17-1h0ZM52.33,8a3.3,3.3,0,0,0-.18-1.1,2.64,2.64,0,0,0-.51-.9,2.46,2.46,0,0,0-.84-.61,2.67,2.67,0,0,0-1.12-.23,2.74,2.74,0,0,0-1.08.22,2.77,2.77,0,0,0-.86.6,3,3,0,0,0-.56.9,3.24,3.24,0,0,0,0,2.24,2.8,2.8,0,0,0,.56.89,2.7,2.7,0,0,0,1.94.81,2.67,2.67,0,0,0,1.12-.22,2.31,2.31,0,0,0,.84-.6,2.64,2.64,0,0,0,.51-.9A3.3,3.3,0,0,0,52.33,8Z"/><path class="cls-1" d="M65.13,10.33a2.81,2.81,0,0,1-1.17,1,3.43,3.43,0,0,1-1.49.35A3.77,3.77,0,0,1,61,11.41a3.37,3.37,0,0,1-1.87-1.95A3.86,3.86,0,0,1,58.84,8a3.91,3.91,0,0,1,.27-1.46A3.37,3.37,0,0,1,61,4.6a3.77,3.77,0,0,1,1.49-.28A3.43,3.43,0,0,1,64,4.67a2.93,2.93,0,0,1,1.17,1h0V.18h1V11.52h-1V10.33ZM59.92,8a3.3,3.3,0,0,0,.18,1.1,2.66,2.66,0,0,0,.52.9,2.27,2.27,0,0,0,.83.6,2.71,2.71,0,0,0,1.13.22,2.58,2.58,0,0,0,1.08-.22,2.55,2.55,0,0,0,.85-.59,2.83,2.83,0,0,0,.57-.89,3.24,3.24,0,0,0,0-2.24,3,3,0,0,0-.57-.9,2.75,2.75,0,0,0-3.06-.59,2.42,2.42,0,0,0-.83.61,2.66,2.66,0,0,0-.52.9A3.3,3.3,0,0,0,59.92,8Z"/><path class="cls-1" d="M75.88,8a3.92,3.92,0,0,1-.27,1.47,3.48,3.48,0,0,1-.78,1.17,3.4,3.4,0,0,1-1.18.77,4,4,0,0,1-1.52.28,3.89,3.89,0,0,1-1.5-.28,3.4,3.4,0,0,1-1.18-.77,3.45,3.45,0,0,1-.77-1.17A3.74,3.74,0,0,1,68.4,8a3.74,3.74,0,0,1,.28-1.47,3.45,3.45,0,0,1,.77-1.17,3.4,3.4,0,0,1,1.18-.77,3.89,3.89,0,0,1,1.5-.28,4,4,0,0,1,1.52.28,3.4,3.4,0,0,1,1.18.77,3.48,3.48,0,0,1,.78,1.17A3.92,3.92,0,0,1,75.88,8ZM74.8,8a3.3,3.3,0,0,0-.18-1.1,2.7,2.7,0,0,0-.54-.9,2.46,2.46,0,0,0-.84-.61A2.77,2.77,0,0,0,71,5.4a2.58,2.58,0,0,0-1.36,1.51,3.28,3.28,0,0,0,0,2.2,2.52,2.52,0,0,0,.53.9,2.36,2.36,0,0,0,.83.6,2.89,2.89,0,0,0,2.21,0,2.31,2.31,0,0,0,.84-.6,2.7,2.7,0,0,0,.54-.9A3.3,3.3,0,0,0,74.8,8Z"/><path class="cls-1" d="M78.45,12.93a3.34,3.34,0,0,0,1.15.91,3.5,3.5,0,0,0,2.81.16,2.2,2.2,0,0,0,.85-.59,2.4,2.4,0,0,0,.47-.88,3.69,3.69,0,0,0,.15-1.07V10.14h0a2.66,2.66,0,0,1-1.15,1,3.39,3.39,0,0,1-1.51.36,4,4,0,0,1-1.49-.27,3.56,3.56,0,0,1-1.14-.74,3.44,3.44,0,0,1-.73-1.13A3.79,3.79,0,0,1,77.56,8a3.69,3.69,0,0,1,.27-1.41,3.57,3.57,0,0,1,.73-1.16A3.5,3.5,0,0,1,79.7,4.6a3.77,3.77,0,0,1,1.49-.28,3.34,3.34,0,0,1,1.5.36,2.76,2.76,0,0,1,1.16,1h0V4.5h1v7a4.86,4.86,0,0,1-.16,1.21,3.07,3.07,0,0,1-.58,1.19,3.38,3.38,0,0,1-1.17.9,4.32,4.32,0,0,1-1.9.36,4.72,4.72,0,0,1-1.86-.38,4.49,4.49,0,0,1-1.52-1Zm.19-5A3.31,3.31,0,0,0,78.82,9a2.72,2.72,0,0,0,.52.87,2.37,2.37,0,0,0,.83.59,2.71,2.71,0,0,0,1.13.22,3.14,3.14,0,0,0,1.08-.19,2.62,2.62,0,0,0,.85-.56A2.69,2.69,0,0,0,83.8,9,3.1,3.1,0,0,0,84,7.92,2.71,2.71,0,0,0,83.23,6a2.73,2.73,0,0,0-.85-.6,2.58,2.58,0,0,0-1.08-.23,2.71,2.71,0,0,0-1.13.23,2.53,2.53,0,0,0-.83.6,2.72,2.72,0,0,0-.52.87A3.31,3.31,0,0,0,78.64,7.92Z"/><path class="cls-1" d="M94.27,5.35H92.62v6.17h-1V5.35H90.13V4.5H91.6V2.58A2.83,2.83,0,0,1,92.19.69,2.23,2.23,0,0,1,94,0l.42,0a2.61,2.61,0,0,1,.42.08l-.18.9L94.32.93a2.17,2.17,0,0,0-.38,0,1.29,1.29,0,0,0-.66.14.89.89,0,0,0-.41.38,1.67,1.67,0,0,0-.19.57,4,4,0,0,0-.06.71V4.5h1.65Z"/><path class="cls-1" d="M102.7,8a3.92,3.92,0,0,1-.27,1.47,3.63,3.63,0,0,1-.78,1.17,3.4,3.4,0,0,1-1.18.77A4,4,0,0,1,99,11.7a3.89,3.89,0,0,1-1.5-.28,3.4,3.4,0,0,1-1.18-.77,3.45,3.45,0,0,1-.77-1.17A3.74,3.74,0,0,1,95.22,8a3.74,3.74,0,0,1,.28-1.47,3.45,3.45,0,0,1,.77-1.17,3.4,3.4,0,0,1,1.18-.77A3.89,3.89,0,0,1,99,4.32a4,4,0,0,1,1.52.28,3.4,3.4,0,0,1,1.18.77,3.63,3.63,0,0,1,.78,1.17A3.92,3.92,0,0,1,102.7,8Zm-1.08,0a3.3,3.3,0,0,0-.18-1.1,2.7,2.7,0,0,0-.54-.9,2.46,2.46,0,0,0-.84-.61A2.65,2.65,0,0,0,99,5.17a2.61,2.61,0,0,0-1.1.23,2.58,2.58,0,0,0-1.36,1.51,3.28,3.28,0,0,0,0,2.2A2.52,2.52,0,0,0,97,10a2.36,2.36,0,0,0,.83.6,2.6,2.6,0,0,0,1.1.22,2.65,2.65,0,0,0,1.11-.22,2.31,2.31,0,0,0,.84-.6,2.7,2.7,0,0,0,.54-.9A3.3,3.3,0,0,0,101.62,8Z"/><path class="cls-1" d="M111.87,8a3.74,3.74,0,0,1-.28,1.47,3.42,3.42,0,0,1-2,1.94,4.18,4.18,0,0,1-3,0,3.44,3.44,0,0,1-1.19-.77,3.61,3.61,0,0,1-.77-1.17,4,4,0,0,1,0-2.94,3.61,3.61,0,0,1,.77-1.17,3.44,3.44,0,0,1,1.19-.77,4.18,4.18,0,0,1,3,0,3.42,3.42,0,0,1,2,1.94A3.74,3.74,0,0,1,111.87,8Zm-1.08,0a3.07,3.07,0,0,0-.19-1.1,2.52,2.52,0,0,0-.53-.9,2.46,2.46,0,0,0-.84-.61,2.65,2.65,0,0,0-1.11-.23,2.57,2.57,0,0,0-1.1.23,2.46,2.46,0,0,0-.84.61,2.68,2.68,0,0,0-.53.9,3.28,3.28,0,0,0,0,2.2,2.68,2.68,0,0,0,.53.9,2.31,2.31,0,0,0,.84.6,2.57,2.57,0,0,0,1.1.22,2.65,2.65,0,0,0,1.11-.22,2.31,2.31,0,0,0,.84-.6,2.52,2.52,0,0,0,.53-.9A3.07,3.07,0,0,0,110.79,8Z"/><path class="cls-1" d="M119.83,10.33a2.81,2.81,0,0,1-1.17,1,3.38,3.38,0,0,1-1.48.35,3.74,3.74,0,0,1-1.49-.29,3.3,3.3,0,0,1-1.14-.78,3.53,3.53,0,0,1-.74-1.17A4.06,4.06,0,0,1,113.55,8a4.11,4.11,0,0,1,.26-1.46,3.53,3.53,0,0,1,.74-1.17,3.3,3.3,0,0,1,1.14-.78,3.73,3.73,0,0,1,1.49-.28,3.38,3.38,0,0,1,1.48.35,2.93,2.93,0,0,1,1.17,1h0V.18h1V11.52h-1V10.33ZM114.63,8a3.3,3.3,0,0,0,.18,1.1,2.5,2.5,0,0,0,.52.9,2.19,2.19,0,0,0,.83.6,2.67,2.67,0,0,0,1.12.22,2.7,2.7,0,0,0,1.94-.81,2.64,2.64,0,0,0,.56-.89A3,3,0,0,0,120,8a3,3,0,0,0-.2-1.12,2.62,2.62,0,0,0-1.42-1.5,2.74,2.74,0,0,0-1.08-.22,2.67,2.67,0,0,0-1.12.23,2.33,2.33,0,0,0-.83.61,2.5,2.5,0,0,0-.52.9A3.3,3.3,0,0,0,114.63,8Z"/><path class="cls-1" d="M123.79,13.62h-.85l1-3.53H125Z"/><path class="cls-1" d="M133.78,5.35h-1.65v6.17h-1V5.35h-1.47V4.5h1.47V2.58A2.83,2.83,0,0,1,131.7.69,2.23,2.23,0,0,1,133.5,0l.42,0a2.61,2.61,0,0,1,.42.08l-.18.9-.33-.07a2.17,2.17,0,0,0-.38,0,1.29,1.29,0,0,0-.66.14.89.89,0,0,0-.41.38,1.67,1.67,0,0,0-.19.57,4,4,0,0,0-.06.71V4.5h1.65Z"/><path class="cls-1" d="M135.22,5.31c0-.3,0-.57,0-.81h1c0,.19,0,.4,0,.63s0,.42,0,.57h0a2.47,2.47,0,0,1,.9-1,2.5,2.5,0,0,1,1.35-.38h.36l.32.06-.14,1-.3-.06a3,3,0,0,0-.42,0,2.08,2.08,0,0,0-.78.15,1.75,1.75,0,0,0-.65.47,2.78,2.78,0,0,0-.45.82,3.92,3.92,0,0,0-.17,1.21v3.59h-1V6C135.24,5.85,135.23,5.61,135.22,5.31Z"/><path class="cls-1" d="M147.34,8a3.92,3.92,0,0,1-.27,1.47,3.63,3.63,0,0,1-.78,1.17,3.4,3.4,0,0,1-1.18.77,4,4,0,0,1-1.52.28,3.89,3.89,0,0,1-1.5-.28,3.4,3.4,0,0,1-1.18-.77,3.45,3.45,0,0,1-.77-1.17A3.74,3.74,0,0,1,139.86,8a3.74,3.74,0,0,1,.28-1.47,3.45,3.45,0,0,1,.77-1.17,3.4,3.4,0,0,1,1.18-.77,3.89,3.89,0,0,1,1.5-.28,4,4,0,0,1,1.52.28,3.4,3.4,0,0,1,1.18.77,3.63,3.63,0,0,1,.78,1.17A3.92,3.92,0,0,1,147.34,8Zm-1.08,0a3.3,3.3,0,0,0-.18-1.1,2.7,2.7,0,0,0-.54-.9,2.46,2.46,0,0,0-.84-.61,2.65,2.65,0,0,0-1.11-.23,2.61,2.61,0,0,0-1.1.23,2.58,2.58,0,0,0-1.36,1.51,3.28,3.28,0,0,0,0,2.2,2.52,2.52,0,0,0,.53.9,2.36,2.36,0,0,0,.83.6,2.6,2.6,0,0,0,1.1.22,2.65,2.65,0,0,0,1.11-.22,2.31,2.31,0,0,0,.84-.6,2.7,2.7,0,0,0,.54-.9A3.3,3.3,0,0,0,146.26,8Z"/><path class="cls-1" d="M150.45,4.5c0,.19,0,.4,0,.63s0,.42,0,.57h0a2.33,2.33,0,0,1,1-1,2.92,2.92,0,0,1,1.43-.38,2.43,2.43,0,0,1,2,.8,3.09,3.09,0,0,1,.67,2.09v4.31h-1V7.63a5.09,5.09,0,0,0-.09-1,2,2,0,0,0-.31-.77,1.44,1.44,0,0,0-.58-.51,2.14,2.14,0,0,0-.93-.18,1.92,1.92,0,0,0-.78.17,2,2,0,0,0-.69.5,2.54,2.54,0,0,0-.48.86,3.69,3.69,0,0,0-.18,1.22v3.6h-1V6c0-.19,0-.43,0-.73s0-.57-.05-.81Z"/><path class="cls-1" d="M161.41,5.35h-2v4.1a2.27,2.27,0,0,0,.08.64.85.85,0,0,0,.22.4.7.7,0,0,0,.33.2,1.75,1.75,0,0,0,.87,0,2.35,2.35,0,0,0,.44-.17l0,.89a3.3,3.3,0,0,1-.56.16,4.16,4.16,0,0,1-.64,0,3.26,3.26,0,0,1-.6-.07,1.67,1.67,0,0,1-.58-.29,1.5,1.5,0,0,1-.44-.57,2.14,2.14,0,0,1-.18-.95V5.35H157V4.5h1.45v-2h1v2h2Z"/><path class="cls-1" d="M171.18,7a1.77,1.77,0,0,0-.48-1.36,2,2,0,0,0-1.4-.45,3,3,0,0,0-1.17.23,2.77,2.77,0,0,0-.91.6l-.57-.68a3.48,3.48,0,0,1,1.15-.72,4.28,4.28,0,0,1,1.61-.28,3.32,3.32,0,0,1,1.06.16,2.44,2.44,0,0,1,.87.47,2.13,2.13,0,0,1,.59.79,2.81,2.81,0,0,1,.21,1.13V9.94c0,.27,0,.55,0,.85a6.05,6.05,0,0,0,.09.73h-.92c0-.17-.05-.36-.07-.56a5.78,5.78,0,0,1,0-.58h0a2.88,2.88,0,0,1-1.09,1,3.12,3.12,0,0,1-1.46.31,3.44,3.44,0,0,1-.83-.11,2.34,2.34,0,0,1-.78-.37,2.09,2.09,0,0,1-.59-.66,2.05,2.05,0,0,1-.23-1,1.89,1.89,0,0,1,.41-1.28,2.42,2.42,0,0,1,1.1-.71,6.08,6.08,0,0,1,1.59-.3c.59,0,1.21-.07,1.85-.07Zm-.3,1c-.42,0-.84,0-1.27.05a6.21,6.21,0,0,0-1.15.21,2.23,2.23,0,0,0-.85.46,1,1,0,0,0-.33.79,1.33,1.33,0,0,0,.14.63,1.28,1.28,0,0,0,.38.42,1.62,1.62,0,0,0,.54.22,2.32,2.32,0,0,0,.59.07,2.25,2.25,0,0,0,1-.19,1.89,1.89,0,0,0,.7-.51,2.2,2.2,0,0,0,.44-.74,2.62,2.62,0,0,0,.15-.88V8Z"/><path class="cls-1" d="M175.68,4.5c0,.19,0,.4,0,.63s0,.42,0,.57h0a2.33,2.33,0,0,1,1-1,2.92,2.92,0,0,1,1.43-.38,2.43,2.43,0,0,1,2,.8,3.09,3.09,0,0,1,.67,2.09v4.31h-1V7.63a5.09,5.09,0,0,0-.09-1,2,2,0,0,0-.31-.77,1.44,1.44,0,0,0-.58-.51,2.14,2.14,0,0,0-.93-.18,1.92,1.92,0,0,0-.78.17,2,2,0,0,0-.69.5,2.54,2.54,0,0,0-.48.86,3.69,3.69,0,0,0-.18,1.22v3.6h-1V6c0-.19,0-.43,0-.73s0-.57-.05-.81Z"/><path class="cls-1" d="M189.25,10.33a2.81,2.81,0,0,1-1.17,1,3.38,3.38,0,0,1-1.48.35,3.74,3.74,0,0,1-1.49-.29,3.3,3.3,0,0,1-1.14-.78,3.53,3.53,0,0,1-.74-1.17A4.06,4.06,0,0,1,183,8a4.11,4.11,0,0,1,.26-1.46A3.53,3.53,0,0,1,184,5.38a3.3,3.3,0,0,1,1.14-.78,3.73,3.73,0,0,1,1.49-.28,3.38,3.38,0,0,1,1.48.35,2.93,2.93,0,0,1,1.17,1h0V.18h1V11.52h-1V10.33ZM184.05,8a3.3,3.3,0,0,0,.18,1.1,2.5,2.5,0,0,0,.52.9,2.19,2.19,0,0,0,.83.6,2.67,2.67,0,0,0,1.12.22,2.7,2.7,0,0,0,1.94-.81,2.64,2.64,0,0,0,.56-.89,3.24,3.24,0,0,0,0-2.24,2.62,2.62,0,0,0-1.42-1.5,2.74,2.74,0,0,0-1.08-.22,2.67,2.67,0,0,0-1.12.23,2.33,2.33,0,0,0-.83.61,2.5,2.5,0,0,0-.52.9A3.3,3.3,0,0,0,184.05,8Z"/><path class="cls-1" d="M197.83,10.33v1.19h-1V.18h1V5.71h0a2.93,2.93,0,0,1,1.17-1,3.43,3.43,0,0,1,1.49-.35A3.73,3.73,0,0,1,202,4.6a3.4,3.4,0,0,1,1.14.78,3.51,3.51,0,0,1,.73,1.17A3.91,3.91,0,0,1,204.15,8a3.86,3.86,0,0,1-.27,1.45,3.51,3.51,0,0,1-.73,1.17,3.4,3.4,0,0,1-1.14.78,3.74,3.74,0,0,1-1.49.29,3.43,3.43,0,0,1-1.49-.35,2.81,2.81,0,0,1-1.17-1ZM203.07,8a3.3,3.3,0,0,0-.18-1.1,2.66,2.66,0,0,0-.52-.9,2.33,2.33,0,0,0-.83-.61,2.68,2.68,0,0,0-3.06.59,2.79,2.79,0,0,0-.56.9,3.09,3.09,0,0,0,0,2.24,2.64,2.64,0,0,0,.56.89,2.55,2.55,0,0,0,.85.59,2.58,2.58,0,0,0,1.08.22,2.71,2.71,0,0,0,1.13-.22,2.19,2.19,0,0,0,.83-.6,2.66,2.66,0,0,0,.52-.9A3.3,3.3,0,0,0,203.07,8Z"/><path class="cls-1" d="M210.76,7a1.77,1.77,0,0,0-.48-1.36,2,2,0,0,0-1.39-.45,3,3,0,0,0-1.17.23,2.82,2.82,0,0,0-.92.6l-.57-.68a3.48,3.48,0,0,1,1.15-.72A4.28,4.28,0,0,1,209,4.32a3.38,3.38,0,0,1,1.07.16,2.44,2.44,0,0,1,.87.47,2.11,2.11,0,0,1,.58.79,2.81,2.81,0,0,1,.21,1.13V9.94c0,.27,0,.55,0,.85a6.05,6.05,0,0,0,.09.73h-.91c0-.17-.06-.36-.08-.56a5.78,5.78,0,0,1,0-.58h0a2.93,2.93,0,0,1-1.08,1,3.19,3.19,0,0,1-1.47.31,3.44,3.44,0,0,1-.83-.11,2.34,2.34,0,0,1-.78-.37,2.09,2.09,0,0,1-.59-.66,2.05,2.05,0,0,1-.23-1,1.89,1.89,0,0,1,.41-1.28,2.45,2.45,0,0,1,1.11-.71,6,6,0,0,1,1.58-.3c.59,0,1.21-.07,1.85-.07Zm-.3,1c-.42,0-.84,0-1.27.05a6.21,6.21,0,0,0-1.15.21,2.23,2.23,0,0,0-.85.46,1,1,0,0,0-.33.79,1.33,1.33,0,0,0,.14.63,1.31,1.31,0,0,0,.39.42,1.56,1.56,0,0,0,.53.22,2.38,2.38,0,0,0,.59.07,2.25,2.25,0,0,0,1-.19,1.93,1.93,0,0,0,.71-.51,2.18,2.18,0,0,0,.43-.74,2.62,2.62,0,0,0,.15-.88V8Z"/><path class="cls-1" d="M219.4,6.1a1.84,1.84,0,0,0-.74-.66,2.14,2.14,0,0,0-1.06-.27,2.82,2.82,0,0,0-1.11.22,2.56,2.56,0,0,0-1.38,1.5A3.18,3.18,0,0,0,214.92,8a3.08,3.08,0,0,0,.19,1.11,2.57,2.57,0,0,0,.53.89,2.31,2.31,0,0,0,.84.6,2.65,2.65,0,0,0,1.11.22,2.34,2.34,0,0,0,1.14-.26,2.32,2.32,0,0,0,.76-.66l.77.57a3.4,3.4,0,0,1-1.1.89,3.46,3.46,0,0,1-1.57.33,4,4,0,0,1-1.55-.28,3.27,3.27,0,0,1-1.17-.77,3.43,3.43,0,0,1-.76-1.17,4.14,4.14,0,0,1,0-2.94,3.43,3.43,0,0,1,.76-1.17A3.27,3.27,0,0,1,216,4.6a4,4,0,0,1,1.55-.28,3.55,3.55,0,0,1,1.43.31,2.67,2.67,0,0,1,1.18.91Z"/><path class="cls-1" d="M222.9,7.66h0l3.24-3.16h1.47l-3.54,3.21,3.9,3.81h-1.5l-3.57-3.69h0v3.69h-1V.18h1Z"/></g></g></svg>