<svg xmlns="http://www.w3.org/2000/svg" viewBox="0 0 80.23 11.7"><defs><style>.cls-1{fill:#fff;}</style></defs><g id="Layer_2" data-name="Layer 2"><g id="Layer_1-2" data-name="Layer 1"><path class="cls-1" d="M0,.9H3a6.06,6.06,0,0,1,1.47.17A3.19,3.19,0,0,1,5.6,1.6a2.3,2.3,0,0,1,.73.88,2.88,2.88,0,0,1,.25,1.25A2.78,2.78,0,0,1,6.32,5a2.4,2.4,0,0,1-.73.88,3.16,3.16,0,0,1-1.14.53A5.72,5.72,0,0,1,3,6.58H1.08v4.94H0ZM1.08,5.67H2.91a3.18,3.18,0,0,0,1.93-.5A1.64,1.64,0,0,0,5.5,3.73a1.6,1.6,0,0,0-.68-1.44,3.35,3.35,0,0,0-1.91-.46H1.08Z"/><path class="cls-1" d="M14.54,8a3.93,3.93,0,0,1-.28,1.47,3.61,3.61,0,0,1-.77,1.17,3.44,3.44,0,0,1-1.19.77,3.94,3.94,0,0,1-1.51.28,3.89,3.89,0,0,1-1.5-.28,3.42,3.42,0,0,1-2-1.94A3.74,3.74,0,0,1,7.05,8a3.74,3.74,0,0,1,.28-1.47,3.42,3.42,0,0,1,2-1.94,3.89,3.89,0,0,1,1.5-.28,3.94,3.94,0,0,1,1.51.28,3.44,3.44,0,0,1,1.19.77,3.61,3.61,0,0,1,.77,1.17A3.93,3.93,0,0,1,14.54,8ZM13.46,8a3.3,3.3,0,0,0-.19-1.1,2.86,2.86,0,0,0-.53-.9,2.62,2.62,0,0,0-2-.84,2.65,2.65,0,0,0-1.11.23A2.58,2.58,0,0,0,8.32,6.91a3.28,3.28,0,0,0,0,2.2,2.52,2.52,0,0,0,.53.9,2.36,2.36,0,0,0,.83.6,2.65,2.65,0,0,0,1.11.22,2.57,2.57,0,0,0,1.1-.22,2.43,2.43,0,0,0,.85-.6,2.86,2.86,0,0,0,.53-.9A3.3,3.3,0,0,0,13.46,8Z"/><path class="cls-1" d="M18,1.8a.71.71,0,0,1-.22.52.73.73,0,0,1-1,0,.72.72,0,0,1,0-1,.73.73,0,0,1,1,0A.71.71,0,0,1,18,1.8Zm-.21,9.72h-1v-7h1Z"/><path class="cls-1" d="M21.39,4.5c0,.19,0,.4,0,.63s0,.42,0,.57h0a2.3,2.3,0,0,1,1-1,2.88,2.88,0,0,1,1.42-.38,2.43,2.43,0,0,1,2,.8,3.12,3.12,0,0,1,.67,2.09v4.31h-1V7.64a5.2,5.2,0,0,0-.09-1,2,2,0,0,0-.31-.77,1.51,1.51,0,0,0-.58-.51,2.11,2.11,0,0,0-.93-.18,2,2,0,0,0-.78.17,1.85,1.85,0,0,0-.68.5,2.55,2.55,0,0,0-.49.86,3.71,3.71,0,0,0-.17,1.22v3.6h-1V6c0-.19,0-.43,0-.73s0-.57,0-.81Z"/><path class="cls-1" d="M32.35,5.35h-2v4.1a2.39,2.39,0,0,0,.07.65.82.82,0,0,0,.22.39.75.75,0,0,0,.33.2,1.75,1.75,0,0,0,.87,0,3.29,3.29,0,0,0,.44-.16l0,.88a3.3,3.3,0,0,1-.56.16,4.13,4.13,0,0,1-.63,0,3.26,3.26,0,0,1-.61-.07,1.67,1.67,0,0,1-.58-.29,1.5,1.5,0,0,1-.44-.57,2.14,2.14,0,0,1-.18-.95V5.35H27.9V4.5h1.45v-2h1v2h2Z"/><path class="cls-1" d="M44.67,8a3.74,3.74,0,0,1-.28,1.47,3.42,3.42,0,0,1-2,1.94,4.18,4.18,0,0,1-3,0,3.44,3.44,0,0,1-1.19-.77,3.61,3.61,0,0,1-.77-1.17,4,4,0,0,1,0-2.94,3.61,3.61,0,0,1,.77-1.17,3.44,3.44,0,0,1,1.19-.77,4.18,4.18,0,0,1,3,0,3.42,3.42,0,0,1,2,1.94A3.74,3.74,0,0,1,44.67,8ZM43.59,8a3.07,3.07,0,0,0-.19-1.1,2.52,2.52,0,0,0-.53-.9A2.46,2.46,0,0,0,42,5.4a2.65,2.65,0,0,0-1.11-.23,2.57,2.57,0,0,0-1.1.23A2.46,2.46,0,0,0,39,6a2.68,2.68,0,0,0-.53.9,3.28,3.28,0,0,0,0,2.2A2.68,2.68,0,0,0,39,10a2.31,2.31,0,0,0,.84.6,2.57,2.57,0,0,0,1.1.22A2.65,2.65,0,0,0,42,10.61a2.31,2.31,0,0,0,.84-.6,2.52,2.52,0,0,0,.53-.9A3.07,3.07,0,0,0,43.59,8Z"/><path class="cls-1" d="M49.83,5.35H48.18v6.17h-1V5.35H45.69V4.5h1.47V2.58A2.83,2.83,0,0,1,47.74.69,2.23,2.23,0,0,1,49.54,0L50,0a2.61,2.61,0,0,1,.42.08L50.2,1,49.87.93a2.05,2.05,0,0,0-.37,0,1.36,1.36,0,0,0-.67.14.87.87,0,0,0-.4.38,1.66,1.66,0,0,0-.2.58,5.12,5.12,0,0,0,0,.7V4.5h1.65Z"/><path class="cls-1" d="M59.13,6.17a1.87,1.87,0,0,0-.68-.72,2.06,2.06,0,0,0-1.05-.28,3.31,3.31,0,0,0-.54.06,1.48,1.48,0,0,0-.48.2,1.07,1.07,0,0,0-.33.34.93.93,0,0,0-.13.5.85.85,0,0,0,.4.76,4.06,4.06,0,0,0,1.28.44,4.36,4.36,0,0,1,1.84.74A1.64,1.64,0,0,1,60,9.52a2.11,2.11,0,0,1-.23,1,2.07,2.07,0,0,1-.61.67,2.43,2.43,0,0,1-.85.38,4.33,4.33,0,0,1-1,.11,3.82,3.82,0,0,1-1.55-.33,2.81,2.81,0,0,1-1.23-1l.81-.6a2.24,2.24,0,0,0,.8.79,2.18,2.18,0,0,0,1.15.31,3.21,3.21,0,0,0,.63-.06,1.47,1.47,0,0,0,.53-.21,1.19,1.19,0,0,0,.36-.38A1.16,1.16,0,0,0,59,9.6a.87.87,0,0,0-.53-.83A6.63,6.63,0,0,0,57,8.25a6.75,6.75,0,0,1-.66-.19,2,2,0,0,1-.66-.33,1.7,1.7,0,0,1-.49-.54,1.62,1.62,0,0,1-.2-.83,1.87,1.87,0,0,1,.21-.92,1.73,1.73,0,0,1,.57-.63,2.35,2.35,0,0,1,.8-.37,3.59,3.59,0,0,1,.93-.12,3.25,3.25,0,0,1,1.42.33,2.31,2.31,0,0,1,1,.93Z"/><path class="cls-1" d="M66.48,7A1.77,1.77,0,0,0,66,5.62a2,2,0,0,0-1.4-.45,3,3,0,0,0-1.17.23,2.77,2.77,0,0,0-.91.6L62,5.33A3.34,3.34,0,0,1,63.1,4.6a4.49,4.49,0,0,1,1.61-.28,3.32,3.32,0,0,1,1.06.16,2.44,2.44,0,0,1,.87.47,2.17,2.17,0,0,1,.59.8,2.73,2.73,0,0,1,.21,1.12V9.94c0,.27,0,.56,0,.85a5.8,5.8,0,0,0,.09.73h-.92c0-.17,0-.35-.07-.56a5.63,5.63,0,0,1,0-.58h0a2.88,2.88,0,0,1-1.09,1A3.12,3.12,0,0,1,64,11.7a3.44,3.44,0,0,1-.83-.11,2.34,2.34,0,0,1-.78-.37,2.09,2.09,0,0,1-.59-.66,2.05,2.05,0,0,1-.23-1,1.89,1.89,0,0,1,.41-1.28A2.42,2.42,0,0,1,63,7.57a6.08,6.08,0,0,1,1.59-.3c.59,0,1.21-.07,1.85-.07Zm-.3,1c-.42,0-.84,0-1.27.05a6.21,6.21,0,0,0-1.15.21,2.23,2.23,0,0,0-.85.46,1,1,0,0,0-.33.79,1.33,1.33,0,0,0,.14.63,1.19,1.19,0,0,0,.38.42,1.62,1.62,0,0,0,.54.22,2.32,2.32,0,0,0,.59.07,2.25,2.25,0,0,0,1-.19,1.89,1.89,0,0,0,.7-.51,2.2,2.2,0,0,0,.44-.74,2.58,2.58,0,0,0,.15-.88V8Z"/><path class="cls-1" d="M71.11,11.52h-1V.18h1Z"/><path class="cls-1" d="M80.23,7.8V8a2.35,2.35,0,0,1,0,.26H74.4a2.74,2.74,0,0,0,.21,1,2.5,2.5,0,0,0,.54.81,2.7,2.7,0,0,0,.81.55,2.55,2.55,0,0,0,1,.2,2.5,2.5,0,0,0,1.38-.37,2.7,2.7,0,0,0,.87-.84l.77.59a3.68,3.68,0,0,1-1.39,1.14A3.88,3.88,0,0,1,77,11.7a3.59,3.59,0,0,1-1.44-.28,3.28,3.28,0,0,1-1.15-.77,3.75,3.75,0,0,1-.76-1.17,4.07,4.07,0,0,1,0-2.94,3.56,3.56,0,0,1,.75-1.17,3.51,3.51,0,0,1,2.52-1,3.52,3.52,0,0,1,1.46.28,2.88,2.88,0,0,1,1,.75A3.25,3.25,0,0,1,80,6.45,4.24,4.24,0,0,1,80.23,7.8Zm-1-.33a2.49,2.49,0,0,0-.64-1.64,2.15,2.15,0,0,0-1.69-.66,2.43,2.43,0,0,0-.94.19,2.72,2.72,0,0,0-.77.51,2.54,2.54,0,0,0-.52.74,2.34,2.34,0,0,0-.23.86Z"/></g></g></svg>