<svg xmlns="http://www.w3.org/2000/svg" viewBox="0 0 181.3 15.12"><defs><style>.cls-1{fill:#fff;}</style></defs><g id="Layer_2" data-name="Layer 2"><g id="Layer_1-2" data-name="Layer 1"><path class="cls-1" d="M0,.9H3.17A5.67,5.67,0,0,1,4.38,1a3.24,3.24,0,0,1,1.1.43,2.54,2.54,0,0,1,.8.83,2.67,2.67,0,0,1,.3,1.33,2.24,2.24,0,0,1-.51,1.46A2.44,2.44,0,0,1,4.7,5.9v0a2.81,2.81,0,0,1,1.71.81,2.47,2.47,0,0,1,.68,1.85,2.72,2.72,0,0,1-.27,1.21,2.8,2.8,0,0,1-.79.93,3.86,3.86,0,0,1-1.24.59,6,6,0,0,1-1.65.21H0ZM1.08,5.55H3.25A3.55,3.55,0,0,0,4,5.46a2.07,2.07,0,0,0,.73-.31,1.61,1.61,0,0,0,.53-.57,1.77,1.77,0,0,0,.2-.89,1.64,1.64,0,0,0-.2-.86,1.61,1.61,0,0,0-.55-.58A2.28,2.28,0,0,0,4,1.93a4.62,4.62,0,0,0-1-.1H1.08Zm0,5h2a5.83,5.83,0,0,0,1.12-.11,3.22,3.22,0,0,0,.93-.36,1.87,1.87,0,0,0,.63-.65,1.79,1.79,0,0,0,.24-1A1.81,1.81,0,0,0,5.3,7a3.39,3.39,0,0,0-2-.51H1.08Z"/><path class="cls-1" d="M9.46,5.31c0-.3,0-.57,0-.81h1a5.76,5.76,0,0,1,0,.63c0,.23,0,.42,0,.57h0a2.38,2.38,0,0,1,.89-1,2.53,2.53,0,0,1,1.36-.38h.35l.32.07-.14,1L13,5.31l-.42,0a2.12,2.12,0,0,0-.78.15,1.75,1.75,0,0,0-.65.47,2.78,2.78,0,0,0-.45.82,3.92,3.92,0,0,0-.17,1.21v3.59h-1V6C9.48,5.85,9.47,5.61,9.46,5.31Z"/><path class="cls-1" d="M21.58,8a3.92,3.92,0,0,1-.27,1.47,3.61,3.61,0,0,1-.77,1.17,3.44,3.44,0,0,1-1.19.77,4,4,0,0,1-1.52.28,3.89,3.89,0,0,1-1.5-.28,3.5,3.5,0,0,1-1.18-.77,3.45,3.45,0,0,1-.77-1.17A3.74,3.74,0,0,1,14.1,8a3.74,3.74,0,0,1,.28-1.47,3.45,3.45,0,0,1,.77-1.17,3.5,3.5,0,0,1,1.18-.77,3.89,3.89,0,0,1,1.5-.28,4,4,0,0,1,1.52.28,3.44,3.44,0,0,1,1.19.77,3.61,3.61,0,0,1,.77,1.17A3.92,3.92,0,0,1,21.58,8ZM20.5,8a3.3,3.3,0,0,0-.18-1.1,2.86,2.86,0,0,0-.53-.9,2.72,2.72,0,0,0-3.06-.61,2.58,2.58,0,0,0-1.36,1.51,3.28,3.28,0,0,0,0,2.2,2.52,2.52,0,0,0,.53.9,2.36,2.36,0,0,0,.83.6,2.89,2.89,0,0,0,2.21,0,2.43,2.43,0,0,0,.85-.6,2.86,2.86,0,0,0,.53-.9A3.3,3.3,0,0,0,20.5,8Z"/><path class="cls-1" d="M28.83,6.1a1.91,1.91,0,0,0-.74-.66A2.17,2.17,0,0,0,27,5.17a2.82,2.82,0,0,0-1.11.22,2.73,2.73,0,0,0-.85.6,2.92,2.92,0,0,0-.54.9A3.42,3.42,0,0,0,24.34,8a3.31,3.31,0,0,0,.19,1.11,2.73,2.73,0,0,0,.53.89,2.35,2.35,0,0,0,.85.6,2.57,2.57,0,0,0,1.1.22,2.2,2.2,0,0,0,1.91-.91l.76.56a3.3,3.3,0,0,1-1.1.89A3.44,3.44,0,0,1,27,11.7a4,4,0,0,1-1.54-.28,3.34,3.34,0,0,1-1.93-1.94A3.74,3.74,0,0,1,23.26,8a3.74,3.74,0,0,1,.28-1.47A3.34,3.34,0,0,1,25.47,4.6,4,4,0,0,1,27,4.32a3.63,3.63,0,0,1,1.44.31,2.72,2.72,0,0,1,1.17.91Z"/><path class="cls-1" d="M32.35,5.65a2.17,2.17,0,0,1,.95-1,2.9,2.9,0,0,1,1.41-.36,2.43,2.43,0,0,1,2,.8,3.12,3.12,0,0,1,.67,2.09v4.31h-1V7.64a5.2,5.2,0,0,0-.09-1A2,2,0,0,0,36,5.86a1.51,1.51,0,0,0-.58-.51,2.13,2.13,0,0,0-.92-.18,1.93,1.93,0,0,0-.79.17,2,2,0,0,0-.69.5,2.54,2.54,0,0,0-.48.86,3.71,3.71,0,0,0-.17,1.22v3.6h-1V.18h1V5.65Z"/><path class="cls-1" d="M45.12,11.52c0-.19,0-.4,0-.63s0-.42,0-.57h0a2.35,2.35,0,0,1-1,1,2.88,2.88,0,0,1-1.42.38,2.43,2.43,0,0,1-2-.8A3.1,3.1,0,0,1,40,8.81V4.5h1V8.39a5.16,5.16,0,0,0,.09,1,2,2,0,0,0,.31.77,1.51,1.51,0,0,0,.58.51,2.1,2.1,0,0,0,.92.18,2,2,0,0,0,.79-.17,1.94,1.94,0,0,0,.68-.5,2.54,2.54,0,0,0,.48-.86A3.69,3.69,0,0,0,45,8.1V4.5h1V10c0,.19,0,.43,0,.73s0,.57,0,.81Z"/><path class="cls-1" d="M48.72,5.31c0-.3,0-.57,0-.81h1c0,.19,0,.4,0,.63s0,.42,0,.57h0a2.47,2.47,0,0,1,.9-1A2.5,2.5,0,0,1,52,4.32h.35l.32.07-.13,1-.3-.06-.42,0a2.08,2.08,0,0,0-.78.15,1.67,1.67,0,0,0-.65.47,2.39,2.39,0,0,0-.45.82,3.63,3.63,0,0,0-.18,1.21v3.59h-1V6C48.73,5.85,48.73,5.61,48.72,5.31Z"/><path class="cls-1" d="M60.25,7.8V8a2.35,2.35,0,0,1,0,.26H54.42a2.74,2.74,0,0,0,.21,1,2.5,2.5,0,0,0,.54.81,2.7,2.7,0,0,0,.81.55,2.55,2.55,0,0,0,1,.2,2.5,2.5,0,0,0,1.38-.37,2.7,2.7,0,0,0,.87-.84l.77.59a3.68,3.68,0,0,1-1.39,1.14A3.88,3.88,0,0,1,57,11.7a3.59,3.59,0,0,1-1.44-.28,3.28,3.28,0,0,1-1.15-.77,3.75,3.75,0,0,1-.76-1.17,4.07,4.07,0,0,1,0-2.94,3.43,3.43,0,0,1,.76-1.17A3.25,3.25,0,0,1,55.5,4.6a3.39,3.39,0,0,1,1.39-.28,3.52,3.52,0,0,1,1.46.28,2.88,2.88,0,0,1,1,.75A3.25,3.25,0,0,1,60,6.45,4.24,4.24,0,0,1,60.25,7.8Zm-1-.33a2.49,2.49,0,0,0-.64-1.64,2.15,2.15,0,0,0-1.69-.66,2.43,2.43,0,0,0-.94.19,2.72,2.72,0,0,0-.77.51,2.54,2.54,0,0,0-.52.74,2.34,2.34,0,0,0-.23.86Z"/><path class="cls-1" d="M66.33,4.5,68,10.2h0l1.89-5.7h1l1.92,5.7h0l1.68-5.7h1.08l-2.22,7H72.31L70.44,5.83h0l-1.85,5.69H67.45l-2.22-7Z"/><path class="cls-1" d="M78.63,1.8a.68.68,0,0,1-.23.52.73.73,0,0,1-.49.2.76.76,0,0,1-.5-.2.67.67,0,0,1-.22-.52.67.67,0,0,1,.22-.52.76.76,0,0,1,.5-.2.73.73,0,0,1,.49.2A.68.68,0,0,1,78.63,1.8Zm-.21,9.72h-1v-7h1Z"/><path class="cls-1" d="M84.3,5.35h-2v4.1a2.39,2.39,0,0,0,.07.65.91.91,0,0,0,.22.39.79.79,0,0,0,.34.2,1.86,1.86,0,0,0,.42.05,1.72,1.72,0,0,0,.44-.06,2.85,2.85,0,0,0,.44-.16l0,.88a3.58,3.58,0,0,1-.56.16,4.26,4.26,0,0,1-.64,0,3.26,3.26,0,0,1-.6-.07,1.71,1.71,0,0,1-.59-.29,1.61,1.61,0,0,1-.44-.57,2.31,2.31,0,0,1-.17-.95V5.35H79.84V4.5H81.3v-2h1v2h2Z"/><path class="cls-1" d="M87,5.65a2.14,2.14,0,0,1,.94-1,2.9,2.9,0,0,1,1.41-.36,2.46,2.46,0,0,1,2,.8A3.17,3.17,0,0,1,92,7.21v4.31H91V7.64a5.2,5.2,0,0,0-.09-1,2.14,2.14,0,0,0-.3-.77A1.54,1.54,0,0,0,90,5.35a2.07,2.07,0,0,0-.92-.18,2,2,0,0,0-.79.17,2,2,0,0,0-.68.5,2.54,2.54,0,0,0-.48.86,3.69,3.69,0,0,0-.18,1.22v3.6h-1V.18h1V5.65Z"/><path class="cls-1" d="M99.63,1.8a.68.68,0,0,1-.23.52.73.73,0,0,1-.49.2.76.76,0,0,1-.5-.2.67.67,0,0,1-.22-.52.67.67,0,0,1,.22-.52.76.76,0,0,1,.5-.2.73.73,0,0,1,.49.2A.68.68,0,0,1,99.63,1.8Zm-.21,9.72h-1v-7h1Z"/><path class="cls-1" d="M103.05,4.5c0,.19,0,.4,0,.63s0,.42,0,.57h0a2.33,2.33,0,0,1,1-1,2.92,2.92,0,0,1,1.43-.38,2.43,2.43,0,0,1,2,.8,3.12,3.12,0,0,1,.67,2.09v4.31h-1V7.64a5.2,5.2,0,0,0-.09-1,2,2,0,0,0-.31-.77,1.51,1.51,0,0,0-.58-.51,2.14,2.14,0,0,0-.93-.18,1.92,1.92,0,0,0-.78.17,2,2,0,0,0-.69.5,2.54,2.54,0,0,0-.48.86,3.69,3.69,0,0,0-.18,1.22v3.6h-1V6c0-.19,0-.43,0-.73s0-.57-.05-.81Z"/><path class="cls-1" d="M113.82,5.35h-1.65v6.17h-1V5.35h-1.47V4.5h1.47V2.58a2.83,2.83,0,0,1,.58-1.89,2.23,2.23,0,0,1,1.8-.69L114,0a2.61,2.61,0,0,1,.42.08l-.18.9-.33-.07a2.05,2.05,0,0,0-.37,0,1.36,1.36,0,0,0-.67.14.87.87,0,0,0-.4.38,1.66,1.66,0,0,0-.2.58,5.12,5.12,0,0,0,0,.7V4.5h1.65Z"/><path class="cls-1" d="M122.25,8A3.74,3.74,0,0,1,122,9.48a3.42,3.42,0,0,1-2,1.94,4.18,4.18,0,0,1-3,0,3.44,3.44,0,0,1-1.19-.77A3.61,3.61,0,0,1,115,9.48a4,4,0,0,1,0-2.94,3.61,3.61,0,0,1,.77-1.17A3.44,3.44,0,0,1,117,4.6a4.18,4.18,0,0,1,3,0,3.42,3.42,0,0,1,2,1.94A3.74,3.74,0,0,1,122.25,8Zm-1.08,0a3.07,3.07,0,0,0-.19-1.1,2.52,2.52,0,0,0-.53-.9,2.46,2.46,0,0,0-.84-.61,2.65,2.65,0,0,0-1.11-.23,2.57,2.57,0,0,0-1.1.23,2.46,2.46,0,0,0-.84.61,2.68,2.68,0,0,0-.53.9,3.28,3.28,0,0,0,0,2.2,2.68,2.68,0,0,0,.53.9,2.31,2.31,0,0,0,.84.6,2.57,2.57,0,0,0,1.1.22,2.65,2.65,0,0,0,1.11-.22,2.31,2.31,0,0,0,.84-.6,2.52,2.52,0,0,0,.53-.9A3.07,3.07,0,0,0,121.17,8Z"/><path class="cls-1" d="M124.81,12.93a3.59,3.59,0,0,0,1.15.92,3.46,3.46,0,0,0,1.54.37,3.21,3.21,0,0,0,1.27-.22,2.13,2.13,0,0,0,.85-.59,2.4,2.4,0,0,0,.47-.88,3.69,3.69,0,0,0,.15-1.07V10.14h0a2.69,2.69,0,0,1-1.14,1,3.45,3.45,0,0,1-1.51.36,3.92,3.92,0,0,1-1.49-.27,3.36,3.36,0,0,1-1.14-.74,3.46,3.46,0,0,1-.74-1.13A4,4,0,0,1,123.93,8a3.88,3.88,0,0,1,.26-1.41,3.45,3.45,0,0,1,.74-1.15,3.33,3.33,0,0,1,1.14-.79,3.92,3.92,0,0,1,1.49-.28,3.38,3.38,0,0,1,1.5.36,2.8,2.8,0,0,1,1.15,1h0V4.5h1v7a5.27,5.27,0,0,1-.15,1.21,3.09,3.09,0,0,1-.59,1.19,3.25,3.25,0,0,1-1.16.9,4.37,4.37,0,0,1-1.91.36,4.9,4.9,0,0,1-1.86-.37,4.48,4.48,0,0,1-1.51-1Zm.2-5A3,3,0,0,0,125.19,9a2.55,2.55,0,0,0,.52.87,2.28,2.28,0,0,0,.83.59,2.67,2.67,0,0,0,1.12.22,3.14,3.14,0,0,0,1.08-.19A2.48,2.48,0,0,0,130.16,9a3.1,3.1,0,0,0,.2-1.12,2.84,2.84,0,0,0-.2-1A2.65,2.65,0,0,0,129.6,6a2.77,2.77,0,0,0-.86-.6,2.58,2.58,0,0,0-1.08-.23,2.67,2.67,0,0,0-1.12.23,2.43,2.43,0,0,0-.83.6,2.55,2.55,0,0,0-.52.87A3,3,0,0,0,125,7.92Z"/><path class="cls-1" d="M133.9,5.31c0-.3,0-.57,0-.81h1c0,.19,0,.4,0,.63s0,.42,0,.57h0a2.47,2.47,0,0,1,.9-1,2.5,2.5,0,0,1,1.35-.38h.36l.32.07-.14,1-.3-.06a3,3,0,0,0-.42,0,2.08,2.08,0,0,0-.78.15,1.75,1.75,0,0,0-.65.47,2.78,2.78,0,0,0-.45.82,3.92,3.92,0,0,0-.17,1.21v3.59h-1V6C133.92,5.85,133.91,5.61,133.9,5.31Z"/><path class="cls-1" d="M143.56,7a1.77,1.77,0,0,0-.48-1.36,2,2,0,0,0-1.39-.45,3,3,0,0,0-1.17.23,2.82,2.82,0,0,0-.92.6L139,5.33a3.44,3.44,0,0,1,1.15-.73,4.53,4.53,0,0,1,1.61-.28,3.38,3.38,0,0,1,1.07.16,2.44,2.44,0,0,1,.87.47,2.15,2.15,0,0,1,.58.8,2.73,2.73,0,0,1,.21,1.12V9.94c0,.27,0,.56,0,.85a5.8,5.8,0,0,0,.09.73h-.91c0-.17-.06-.35-.08-.56a5.63,5.63,0,0,1,0-.58h0a2.93,2.93,0,0,1-1.08,1,3.19,3.19,0,0,1-1.47.31,3.51,3.51,0,0,1-.83-.11,2.54,2.54,0,0,1-.78-.37,2.06,2.06,0,0,1-.58-.66,2,2,0,0,1-.24-1A1.85,1.85,0,0,1,139,8.28a2.37,2.37,0,0,1,1.1-.71,6.08,6.08,0,0,1,1.58-.3c.6,0,1.21-.07,1.85-.07Zm-.3,1c-.42,0-.84,0-1.26.05a6.32,6.32,0,0,0-1.16.21,2.31,2.31,0,0,0-.85.46,1,1,0,0,0-.33.79,1.22,1.22,0,0,0,.15.63,1.1,1.1,0,0,0,.38.42,1.65,1.65,0,0,0,.53.22,2.38,2.38,0,0,0,.59.07,2.25,2.25,0,0,0,1-.19,1.93,1.93,0,0,0,.71-.51,2.18,2.18,0,0,0,.43-.74,2.58,2.58,0,0,0,.15-.88V8Z"/><path class="cls-1" d="M148.17,15.12h-1V4.5h1V5.71h0a2.87,2.87,0,0,1,1.17-1,3.37,3.37,0,0,1,1.47-.35,4,4,0,0,1,1.5.28,3.53,3.53,0,0,1,1.14.79,3.47,3.47,0,0,1,.73,1.17A3.82,3.82,0,0,1,154.48,8a3.82,3.82,0,0,1-.26,1.45,3.62,3.62,0,0,1-.73,1.18,3.67,3.67,0,0,1-1.14.78,4,4,0,0,1-1.5.28,3.37,3.37,0,0,1-1.47-.35,2.83,2.83,0,0,1-1.17-1h0ZM153.4,8a3.3,3.3,0,0,0-.18-1.1,2.64,2.64,0,0,0-.51-.9,2.46,2.46,0,0,0-.84-.61,2.67,2.67,0,0,0-1.12-.23,2.74,2.74,0,0,0-1.08.22,2.77,2.77,0,0,0-.86.6,3,3,0,0,0-.56.9,3.24,3.24,0,0,0,0,2.24,2.8,2.8,0,0,0,.56.89,2.7,2.7,0,0,0,1.94.81,2.67,2.67,0,0,0,1.12-.22,2.31,2.31,0,0,0,.84-.6,2.64,2.64,0,0,0,.51-.9A3.3,3.3,0,0,0,153.4,8Z"/><path class="cls-1" d="M157.75,5.65a2.17,2.17,0,0,1,.95-1,2.9,2.9,0,0,1,1.41-.36,2.43,2.43,0,0,1,2,.8,3.12,3.12,0,0,1,.67,2.09v4.31h-1V7.64a5.2,5.2,0,0,0-.09-1,2,2,0,0,0-.31-.77,1.51,1.51,0,0,0-.58-.51,2.14,2.14,0,0,0-.93-.18,1.92,1.92,0,0,0-.78.17,2,2,0,0,0-.69.5,2.54,2.54,0,0,0-.48.86,3.69,3.69,0,0,0-.18,1.22v3.6h-1V.18h1V5.65Z"/><path class="cls-1" d="M166.66,1.8a.67.67,0,0,1-.22.52.76.76,0,0,1-.5.2.73.73,0,0,1-.49-.2.68.68,0,0,1-.23-.52.68.68,0,0,1,.23-.52.73.73,0,0,1,.49-.2.76.76,0,0,1,.5.2A.67.67,0,0,1,166.66,1.8Zm-.21,9.72h-1v-7h1Z"/><path class="cls-1" d="M174.22,6.1a1.91,1.91,0,0,0-.74-.66,2.14,2.14,0,0,0-1.06-.27,2.82,2.82,0,0,0-1.11.22,2.73,2.73,0,0,0-.85.6,2.92,2.92,0,0,0-.54.9A3.42,3.42,0,0,0,169.74,8a3.31,3.31,0,0,0,.18,1.11,2.76,2.76,0,0,0,.54.89,2.31,2.31,0,0,0,.84.6,2.65,2.65,0,0,0,1.11.22,2.34,2.34,0,0,0,1.14-.25,2.32,2.32,0,0,0,.76-.66l.77.56a3.34,3.34,0,0,1-1.11.89,3.39,3.39,0,0,1-1.56.33,4,4,0,0,1-1.55-.28,3.4,3.4,0,0,1-1.18-.77,3.56,3.56,0,0,1-.75-1.17,4.14,4.14,0,0,1,0-2.94,3.56,3.56,0,0,1,.75-1.17,3.4,3.4,0,0,1,1.18-.77,4,4,0,0,1,1.55-.28,3.58,3.58,0,0,1,1.43.31,2.75,2.75,0,0,1,1.18.91Z"/><path class="cls-1" d="M180.4,6.17a1.87,1.87,0,0,0-.68-.72,2,2,0,0,0-1-.28,3.31,3.31,0,0,0-.54.06,1.48,1.48,0,0,0-.48.2,1.1,1.1,0,0,0-.34.34.93.93,0,0,0-.13.5.86.86,0,0,0,.41.76,4,4,0,0,0,1.27.44,4.36,4.36,0,0,1,1.84.74,1.64,1.64,0,0,1,.59,1.31,2.11,2.11,0,0,1-.23,1,2,2,0,0,1-.61.67,2.47,2.47,0,0,1-.84.38,4.49,4.49,0,0,1-1,.11,3.78,3.78,0,0,1-1.54-.33,2.81,2.81,0,0,1-1.23-1l.81-.6a2.24,2.24,0,0,0,2,1.1,3.21,3.21,0,0,0,.63-.06,1.42,1.42,0,0,0,.52-.21,1.19,1.19,0,0,0,.36-.38,1.16,1.16,0,0,0,.14-.58.88.88,0,0,0-.54-.83,6.53,6.53,0,0,0-1.53-.52,6.91,6.91,0,0,1-.67-.19,2.1,2.1,0,0,1-.65-.33,1.73,1.73,0,0,1-.5-.54,1.62,1.62,0,0,1-.19-.83,1.87,1.87,0,0,1,.21-.92,1.7,1.7,0,0,1,.56-.63,2.35,2.35,0,0,1,.8-.37,3.59,3.59,0,0,1,.93-.12,3.29,3.29,0,0,1,1.43.33,2.28,2.28,0,0,1,1,.93Z"/></g></g></svg>